<svg width="402" height="400" viewBox="0 0 402 400" fill="none" xmlns="http://www.w3.org/2000/svg">
<path d="M274.808 385.334C274.918 385.081 274.803 384.786 274.549 384.676L270.425 382.875C270.172 382.765 269.877 382.88 269.767 383.133C269.657 383.387 269.772 383.681 270.025 383.792L273.691 385.392L272.091 389.058C271.98 389.311 272.096 389.606 272.349 389.716C272.602 389.827 272.897 389.711 273.007 389.458L274.808 385.334ZM274.167 384.668C227.997 402.778 176.701 403.116 130.295 385.615L129.942 386.551C176.58 404.139 228.132 403.8 274.532 385.599L274.167 384.668ZM130.295 385.615C83.8885 368.115 45.7043 334.033 23.1972 290.025L22.3069 290.48C44.9276 334.71 83.3039 368.963 129.942 386.551L130.295 385.615ZM23.1972 290.025C0.690247 246.017 -4.5239 195.243 8.57266 147.616L7.60846 147.351C-5.55441 195.219 -0.313782 246.25 22.3069 290.48L23.1972 290.025ZM8.57266 147.616C21.6693 99.9883 52.1365 58.9271 94.0262 32.4497L93.492 31.6044C51.3924 58.2144 20.7713 99.4822 7.60846 147.351L8.57266 147.616ZM94.0262 32.4497C135.916 5.97235 186.221 -4.01978 235.117 4.4248L235.288 3.43939C186.147 -5.04727 135.591 4.99451 93.492 31.6044L94.0262 32.4497ZM235.117 4.4248C284.014 12.8694 327.992 39.1441 358.464 78.118L359.251 77.502C328.626 38.332 284.428 11.9261 235.288 3.43939L235.117 4.4248ZM358.464 78.118C388.935 117.092 403.714 165.967 399.914 215.199L400.911 215.276C404.73 165.794 389.877 116.672 359.251 77.502L358.464 78.118ZM399.914 215.199C396.114 264.432 374.009 310.489 337.913 344.376L338.597 345.105C374.874 311.047 397.092 264.758 400.911 215.276L399.914 215.199Z" fill="white"/>
</svg>
