<svg viewBox="0 0 1918 454" fill="none" xmlns="http://www.w3.org/2000/svg">

<g opacity="0.6">
    <g class="motion-group">
        <path class="motion-path" fill-rule="evenodd" clip-rule="evenodd" d="M39.1 227H1878.6V226H39.1V227Z" fill="url(#paint0)"/>
        <path class="motion-line" d="M1240.7 225.8C1245.2 225.8 1304.2 226.3 1324.2 226.3" stroke="url(#paint1)" stroke-linecap="round"/>
    </g>
    <g class="motion-group">
        <path class="motion-path" fill-rule="evenodd" clip-rule="evenodd" d="M0 0.8C38.4 33.4 160.3 108 341.6 145.2C522.3 182.2 827.2 186 958.3 186H958.9H959.5C1090.6 186 1395.5 182.2 1576.2 145.2C1757.6 108 1879.6 33.4 1917.9 0.8L1917.3 0C1879.1 32.6 1757.3 107.1 1576.1 144.2C1395.2 181.2 1089.7 185 959 185C828.2 185 522.8 181.2 341.9 144.2C160.7 107.1 38.9 32.6 0.7 0L0 0.8Z" fill="url(#paint2)"/>
        <path class="motion-line" d="M782.7 182.8C803.2 183.5 850.7 184.8 870.7 184.8" stroke="url(#paint3)" stroke-linecap="round"/>
    </g>
    <g class="motion-group">
        <path class="motion-path" fill-rule="evenodd" clip-rule="evenodd" d="M0.0999756 453C38.5 420.3 160.4 345.7 341.7 308.6C522.4 271.6 827.3 267.8 958.4 267.8H959H959.6C1090.7 267.8 1395.6 271.6 1576.3 308.6C1757.6 345.7 1879.6 420.3 1917.9 453L1917.3 453.8C1879.1 421.2 1757.3 346.7 1576.1 309.6C1395.2 272.5 1089.8 268.8 959 268.8C828.2 268.8 522.8 272.6 341.9 309.6C160.8 346.7 39 421.2 0.699976 453.8L0.0999756 453Z" fill="url(#paint4)"/>
        <path class="motion-line" d="M782.7 271C803.2 270.3 850.7 269 870.7 269" stroke="url(#paint5)" stroke-linecap="round"/>
    </g>
    <g class="motion-group">
        <path class="motion-path" fill-rule="evenodd" clip-rule="evenodd" d="M0 131.8C38.3 145.1 160.3 175.3 341.5 190.4C522.2 205.4 827.1 207 958.2 207H958.8H959.4C1090.5 207 1395.4 205.5 1576.1 190.4C1757.4 175.3 1879.3 145.1 1917.6 131.8L1917.3 130.9C1879.1 144.1 1757.2 174.4 1576 189.4C1395.1 204.4 1089.6 206 958.8 206C828 206 522.6 204.5 341.6 189.4C160.4 174.4 38.6 144.1 0.4 130.9L0 131.8Z" fill="url(#paint6)"/>
        <path class="motion-line" d="M1240.7 225.8C1245.2 225.8 1304.2 226.3 1324.2 226.3" stroke="url(#paint7)" stroke-linecap="round"/>
    </g>
    <g class="motion-group">
        <path class="motion-path" fill-rule="evenodd" clip-rule="evenodd" d="M0.799988 322C39.1 308.7 161.1 278.5 342.3 263.4C523 248.4 827.9 246.8 959 246.8H959.6H960.2C1091.3 246.8 1396.2 248.3 1576.9 263.4C1758.2 278.5 1880.1 308.7 1918.4 322L1918.1 322.9C1879.9 309.7 1758 279.4 1576.8 264.4C1395.9 249.4 1090.4 247.8 959.6 247.8C828.8 247.8 523.4 249.3 342.4 264.4C161.2 279.5 39.4 309.7 1.19999 322.9L0.799988 322Z" fill="url(#paint8)"/>
        <path class="motion-line" d="M1241.5 228C1246 228 1305 227.5 1325 227.5" stroke="url(#paint9)" stroke-linecap="round"/>
    </g>
</g>
<defs>
    <linearGradient id="paint0" x1="75.3201" y1="217.335" x2="1836.57" y2="235.623" gradientUnits="userSpaceOnUse">
    <stop stop-color="white" stop-opacity="0"/>
    <stop offset="0.0001" stop-color="#C97CFF" stop-opacity="0"/>
    <stop offset="0.4996" stop-color="#A77CC5"/>
    <stop offset="1" stop-color="#CC84FF" stop-opacity="0"/>
    </linearGradient>
    <linearGradient id="paint1" x1="1321.67" y1="226.939" x2="1234.17" y2="224.939" gradientUnits="userSpaceOnUse">
    <stop stop-color="#5D009F" stop-opacity="0"/>
    <stop offset="1" stop-color="#5D009F"/>
    </linearGradient>
    <linearGradient id="paint2" x1="76.7561" y1="79.0469" x2="1838" y2="97.3349" gradientUnits="userSpaceOnUse">
    <stop stop-color="white" stop-opacity="0"/>
    <stop offset="0.0001" stop-color="#C97CFF" stop-opacity="0"/>
    <stop offset="0.4996" stop-color="#A77CC5"/>
    <stop offset="1" stop-color="#CC84FF" stop-opacity="0"/>
    </linearGradient>
    <linearGradient id="paint3" x1="870.165" y1="184.91" x2="782.665" y2="182.91" gradientUnits="userSpaceOnUse">
    <stop stop-color="#5D009F" stop-opacity="0"/>
    <stop offset="1" stop-color="#5D009F"/>
    </linearGradient>
    <linearGradient id="paint4" x1="76.84" y1="374.758" x2="1838.09" y2="356.47" gradientUnits="userSpaceOnUse">
    <stop stop-color="white" stop-opacity="0"/>
    <stop offset="0.0001" stop-color="#C97CFF" stop-opacity="0"/>
    <stop offset="0.4996" stop-color="#A77CC5"/>
    <stop offset="1" stop-color="#CC84FF" stop-opacity="0"/>
    </linearGradient>
    <linearGradient id="paint5" x1="870.249" y1="268.895" x2="782.749" y2="270.895" gradientUnits="userSpaceOnUse">
    <stop stop-color="#5D009F" stop-opacity="0"/>
    <stop offset="1" stop-color="#5D009F"/>
    </linearGradient>
    <linearGradient id="paint6" x1="75.9647" y1="155.26" x2="1837.21" y2="173.548" gradientUnits="userSpaceOnUse">
    <stop stop-color="white" stop-opacity="0"/>
    <stop offset="0.0001" stop-color="#C97CFF" stop-opacity="0"/>
    <stop offset="0.4996" stop-color="#A77CC5"/>
    <stop offset="1" stop-color="#CC84FF" stop-opacity="0"/>
    </linearGradient>
    <linearGradient id="paint7" x1="1321.67" y1="226.939" x2="1234.17" y2="224.939" gradientUnits="userSpaceOnUse">
    <stop stop-color="#5D009F" stop-opacity="0"/>
    <stop offset="1" stop-color="#5D009F"/>
    </linearGradient>
    <linearGradient id="paint8" x1="76.7625" y1="298.576" x2="1838.01" y2="280.288" gradientUnits="userSpaceOnUse">
    <stop stop-color="white" stop-opacity="0"/>
    <stop offset="0.0001" stop-color="#C97CFF" stop-opacity="0"/>
    <stop offset="0.4996" stop-color="#A77CC5"/>
    <stop offset="1" stop-color="#CC84FF" stop-opacity="0"/>
    </linearGradient>
    <linearGradient id="paint9" x1="1322.47" y1="226.896" x2="1234.97" y2="228.896" gradientUnits="userSpaceOnUse">
    <stop stop-color="#5D009F" stop-opacity="0"/>
    <stop offset="1" stop-color="#5D009F"/>
    </linearGradient>
</defs>
</svg>
