<svg width="140" height="140" viewBox="0 0 140 140" fill="none" xmlns="http://www.w3.org/2000/svg">
<g filter="url(#filter0_b_356_17023)">
<rect width="140" height="140" rx="26" fill="white"/>
<rect x="0.5" y="0.5" width="139" height="139" rx="25.5" stroke="#5D009F" stroke-opacity="0.3"/>
</g>
<path d="M24.464 51.574C21.6213 51.574 19.2297 50.9453 17.289 49.688C15.3483 48.4033 13.9817 46.6677 13.189 44.481L18.027 41.652C19.1477 44.5767 21.348 46.039 24.628 46.039C26.2133 46.039 27.375 45.752 28.113 45.178C28.851 44.604 29.22 43.8797 29.22 43.005C29.22 41.9937 28.769 41.2147 27.867 40.668C26.965 40.094 25.3523 39.479 23.029 38.823C21.7443 38.4403 20.651 38.0577 19.749 37.675C18.8743 37.2923 17.986 36.7867 17.084 36.158C16.2093 35.502 15.5397 34.682 15.075 33.698C14.6103 32.714 14.378 31.566 14.378 30.254C14.378 27.6573 15.2937 25.5937 17.125 24.063C18.9837 22.505 21.2113 21.726 23.808 21.726C26.1313 21.726 28.1677 22.3 29.917 23.448C31.6937 24.5687 33.074 26.1403 34.058 28.163L29.302 30.91C28.154 28.45 26.3227 27.22 23.808 27.22C22.6327 27.22 21.7033 27.4933 21.02 28.04C20.364 28.5593 20.036 29.2427 20.036 30.09C20.036 30.992 20.405 31.73 21.143 32.304C21.9083 32.8507 23.357 33.452 25.489 34.108C26.3637 34.3813 27.0197 34.6 27.457 34.764C27.9217 34.9007 28.5367 35.133 29.302 35.461C30.0947 35.7617 30.696 36.0487 31.106 36.322C31.5433 36.5953 32.0353 36.9643 32.582 37.429C33.1287 37.8937 33.5387 38.372 33.812 38.864C34.1127 39.356 34.3587 39.9573 34.55 40.668C34.7687 41.3513 34.878 42.103 34.878 42.923C34.878 45.5743 33.9077 47.679 31.967 49.237C30.0537 50.795 27.5527 51.574 24.464 51.574ZM49.2693 51.574C46.0713 51.574 43.4473 50.672 41.3973 48.868C39.3473 47.064 38.3223 44.645 38.3223 41.611V22.3H43.9393V41.16C43.9393 42.6633 44.363 43.8523 45.2103 44.727C46.085 45.6017 47.438 46.039 49.2693 46.039C51.1007 46.039 52.44 45.6017 53.2873 44.727C54.162 43.8523 54.5993 42.6633 54.5993 41.16V22.3H60.2573V41.611C60.2573 44.645 59.2323 47.064 57.1823 48.868C55.1323 50.672 52.4947 51.574 49.2693 51.574ZM93.4395 22.3V51H87.8225V32.386L79.7455 45.711H79.0895L71.0125 32.427V51H65.3545V22.3H71.1765L79.4175 35.871L87.6175 22.3H93.4395ZM122.936 47.269C120.039 50.139 116.513 51.574 112.358 51.574C108.203 51.574 104.677 50.139 101.78 47.269C98.9101 44.3717 97.4751 40.832 97.4751 36.65C97.4751 32.468 98.9101 28.942 101.78 26.072C104.677 23.1747 108.203 21.726 112.358 21.726C116.513 21.726 120.039 23.1747 122.936 26.072C125.833 28.942 127.282 32.468 127.282 36.65C127.282 40.832 125.833 44.3717 122.936 47.269ZM105.757 43.415C107.534 45.1643 109.734 46.039 112.358 46.039C114.982 46.039 117.182 45.1643 118.959 43.415C120.736 41.6383 121.624 39.3833 121.624 36.65C121.624 33.9167 120.736 31.6617 118.959 29.885C117.182 28.1083 114.982 27.22 112.358 27.22C109.734 27.22 107.534 28.1083 105.757 29.885C103.98 31.6617 103.092 33.9167 103.092 36.65C103.092 39.3833 103.98 41.6383 105.757 43.415Z" fill="black"/>
<path d="M65.736 100.656H62.016V103.38H65.58V104.436H62.016V108H60.9V99.6H65.736V100.656ZM72.1875 102H73.2315V108H72.1875V106.968C71.6675 107.76 70.9115 108.156 69.9195 108.156C69.0795 108.156 68.3635 107.852 67.7715 107.244C67.1795 106.628 66.8835 105.88 66.8835 105C66.8835 104.12 67.1795 103.376 67.7715 102.768C68.3635 102.152 69.0795 101.844 69.9195 101.844C70.9115 101.844 71.6675 102.24 72.1875 103.032V102ZM70.0515 107.148C70.6595 107.148 71.1675 106.944 71.5755 106.536C71.9835 106.12 72.1875 105.608 72.1875 105C72.1875 104.392 71.9835 103.884 71.5755 103.476C71.1675 103.06 70.6595 102.852 70.0515 102.852C69.4515 102.852 68.9475 103.06 68.5395 103.476C68.1315 103.884 67.9275 104.392 67.9275 105C67.9275 105.608 68.1315 106.12 68.5395 106.536C68.9475 106.944 69.4515 107.148 70.0515 107.148ZM75.9415 103.62C75.9415 103.852 76.0575 104.04 76.2895 104.184C76.5215 104.32 76.8015 104.432 77.1295 104.52C77.4575 104.6 77.7855 104.696 78.1135 104.808C78.4415 104.912 78.7215 105.096 78.9535 105.36C79.1855 105.616 79.3015 105.948 79.3015 106.356C79.3015 106.9 79.0895 107.336 78.6655 107.664C78.2495 107.992 77.7135 108.156 77.0575 108.156C76.4735 108.156 75.9735 108.028 75.5575 107.772C75.1415 107.516 74.8455 107.176 74.6695 106.752L75.5695 106.236C75.6655 106.524 75.8455 106.752 76.1095 106.92C76.3735 107.088 76.6895 107.172 77.0575 107.172C77.4015 107.172 77.6855 107.108 77.9095 106.98C78.1335 106.844 78.2455 106.636 78.2455 106.356C78.2455 106.124 78.1295 105.94 77.8975 105.804C77.6655 105.66 77.3855 105.548 77.0575 105.468C76.7295 105.38 76.4015 105.28 76.0735 105.168C75.7455 105.056 75.4655 104.872 75.2335 104.616C75.0015 104.36 74.8855 104.032 74.8855 103.632C74.8855 103.112 75.0855 102.684 75.4855 102.348C75.8935 102.012 76.4015 101.844 77.0095 101.844C77.4975 101.844 77.9295 101.956 78.3055 102.18C78.6895 102.396 78.9775 102.7 79.1695 103.092L78.2935 103.584C78.0775 103.072 77.6495 102.816 77.0095 102.816C76.7135 102.816 76.4615 102.888 76.2535 103.032C76.0455 103.168 75.9415 103.364 75.9415 103.62ZM83.8072 103.008H82.2112V106.26C82.2112 106.556 82.2672 106.768 82.3792 106.896C82.4992 107.016 82.6792 107.08 82.9192 107.088C83.1592 107.088 83.4552 107.08 83.8072 107.064V108C82.8952 108.12 82.2272 108.048 81.8032 107.784C81.3792 107.512 81.1672 107.004 81.1672 106.26V103.008H79.9792V102H81.1672V100.632L82.2112 100.32V102H83.8072V103.008ZM93.5264 99.6H94.5704V108H93.5264V106.968C93.0064 107.76 92.2504 108.156 91.2584 108.156C90.4184 108.156 89.7024 107.852 89.1104 107.244C88.5184 106.628 88.2224 105.88 88.2224 105C88.2224 104.12 88.5184 103.376 89.1104 102.768C89.7024 102.152 90.4184 101.844 91.2584 101.844C92.2504 101.844 93.0064 102.24 93.5264 103.032V99.6ZM91.3904 107.148C91.9984 107.148 92.5064 106.944 92.9144 106.536C93.3224 106.12 93.5264 105.608 93.5264 105C93.5264 104.392 93.3224 103.884 92.9144 103.476C92.5064 103.06 91.9984 102.852 91.3904 102.852C90.7904 102.852 90.2864 103.06 89.8784 103.476C89.4704 103.884 89.2664 104.392 89.2664 105C89.2664 105.608 89.4704 106.12 89.8784 106.536C90.2864 106.944 90.7904 107.148 91.3904 107.148ZM101.36 102H102.404V108H101.36V106.968C100.84 107.76 100.084 108.156 99.0922 108.156C98.2522 108.156 97.5362 107.852 96.9442 107.244C96.3522 106.628 96.0562 105.88 96.0562 105C96.0562 104.12 96.3522 103.376 96.9442 102.768C97.5362 102.152 98.2522 101.844 99.0922 101.844C100.084 101.844 100.84 102.24 101.36 103.032V102ZM99.2242 107.148C99.8322 107.148 100.34 106.944 100.748 106.536C101.156 106.12 101.36 105.608 101.36 105C101.36 104.392 101.156 103.884 100.748 103.476C100.34 103.06 99.8322 102.852 99.2242 102.852C98.6242 102.852 98.1202 103.06 97.7122 103.476C97.3042 103.884 97.1002 104.392 97.1002 105C97.1002 105.608 97.3042 106.12 97.7122 106.536C98.1202 106.944 98.6242 107.148 99.2242 107.148ZM107.49 103.008H105.894V106.26C105.894 106.556 105.95 106.768 106.062 106.896C106.182 107.016 106.362 107.08 106.602 107.088C106.842 107.088 107.138 107.08 107.49 107.064V108C106.578 108.12 105.91 108.048 105.486 107.784C105.062 107.512 104.85 107.004 104.85 106.26V103.008H103.662V102H104.85V100.632L105.894 100.32V102H107.49V103.008ZM113.629 102H114.673V108H113.629V106.968C113.109 107.76 112.353 108.156 111.361 108.156C110.521 108.156 109.805 107.852 109.213 107.244C108.621 106.628 108.325 105.88 108.325 105C108.325 104.12 108.621 103.376 109.213 102.768C109.805 102.152 110.521 101.844 111.361 101.844C112.353 101.844 113.109 102.24 113.629 103.032V102ZM111.493 107.148C112.101 107.148 112.609 106.944 113.017 106.536C113.425 106.12 113.629 105.608 113.629 105C113.629 104.392 113.425 103.884 113.017 103.476C112.609 103.06 112.101 102.852 111.493 102.852C110.893 102.852 110.389 103.06 109.981 103.476C109.573 103.884 109.369 104.392 109.369 105C109.369 105.608 109.573 106.12 109.981 106.536C110.389 106.944 110.893 107.148 111.493 107.148ZM64.104 115.844C64.944 115.844 65.66 116.152 66.252 116.768C66.844 117.376 67.14 118.12 67.14 119C67.14 119.88 66.844 120.628 66.252 121.244C65.66 121.852 64.944 122.156 64.104 122.156C63.112 122.156 62.356 121.76 61.836 120.968V124.4H60.792V116H61.836V117.032C62.356 116.24 63.112 115.844 64.104 115.844ZM63.972 121.148C64.572 121.148 65.076 120.944 65.484 120.536C65.892 120.12 66.096 119.608 66.096 119C66.096 118.392 65.892 117.884 65.484 117.476C65.076 117.06 64.572 116.852 63.972 116.852C63.364 116.852 62.856 117.06 62.448 117.476C62.04 117.884 61.836 118.392 61.836 119C61.836 119.608 62.04 120.12 62.448 120.536C62.856 120.944 63.364 121.148 63.972 121.148ZM69.6697 117.008C70.0137 116.264 70.6377 115.892 71.5417 115.892V116.984C71.0297 116.96 70.5897 117.096 70.2217 117.392C69.8537 117.688 69.6697 118.164 69.6697 118.82V122H68.6257V116H69.6697V117.008ZM77.5391 121.244C76.9231 121.852 76.1751 122.156 75.2951 122.156C74.4151 122.156 73.6671 121.852 73.0511 121.244C72.4431 120.636 72.1391 119.888 72.1391 119C72.1391 118.112 72.4431 117.364 73.0511 116.756C73.6671 116.148 74.4151 115.844 75.2951 115.844C76.1751 115.844 76.9231 116.148 77.5391 116.756C78.1551 117.364 78.4631 118.112 78.4631 119C78.4631 119.888 78.1551 120.636 77.5391 121.244ZM75.2951 121.136C75.8951 121.136 76.3991 120.932 76.8071 120.524C77.2151 120.116 77.4191 119.608 77.4191 119C77.4191 118.392 77.2151 117.884 76.8071 117.476C76.3991 117.068 75.8951 116.864 75.2951 116.864C74.7031 116.864 74.2031 117.068 73.7951 117.476C73.3871 117.884 73.1831 118.392 73.1831 119C73.1831 119.608 73.3871 120.116 73.7951 120.524C74.2031 120.932 74.7031 121.136 75.2951 121.136ZM82.7539 122.156C81.8499 122.156 81.0979 121.856 80.4979 121.256C79.8979 120.648 79.5979 119.896 79.5979 119C79.5979 118.104 79.8979 117.356 80.4979 116.756C81.0979 116.148 81.8499 115.844 82.7539 115.844C83.3459 115.844 83.8779 115.988 84.3499 116.276C84.8219 116.556 85.1739 116.936 85.4059 117.416L84.5299 117.92C84.3779 117.6 84.1419 117.344 83.8219 117.152C83.5099 116.96 83.1539 116.864 82.7539 116.864C82.1539 116.864 81.6499 117.068 81.2419 117.476C80.8419 117.884 80.6419 118.392 80.6419 119C80.6419 119.6 80.8419 120.104 81.2419 120.512C81.6499 120.92 82.1539 121.124 82.7539 121.124C83.1539 121.124 83.5139 121.032 83.8339 120.848C84.1539 120.656 84.3979 120.4 84.5659 120.08L85.4539 120.596C85.1979 121.068 84.8299 121.448 84.3499 121.736C83.8699 122.016 83.3379 122.156 82.7539 122.156ZM87.3746 119.48C87.4786 120.016 87.7226 120.432 88.1066 120.728C88.4986 121.024 88.9786 121.172 89.5466 121.172C90.3386 121.172 90.9146 120.88 91.2746 120.296L92.1626 120.8C91.5786 121.704 90.6986 122.156 89.5226 122.156C88.5706 122.156 87.7946 121.86 87.1946 121.268C86.6026 120.668 86.3066 119.912 86.3066 119C86.3066 118.096 86.5986 117.344 87.1826 116.744C87.7666 116.144 88.5226 115.844 89.4506 115.844C90.3306 115.844 91.0466 116.156 91.5986 116.78C92.1586 117.396 92.4386 118.14 92.4386 119.012C92.4386 119.164 92.4266 119.32 92.4026 119.48H87.3746ZM89.4506 116.828C88.8906 116.828 88.4266 116.988 88.0586 117.308C87.6906 117.62 87.4626 118.04 87.3746 118.568H91.3826C91.2946 118 91.0706 117.568 90.7106 117.272C90.3506 116.976 89.9306 116.828 89.4506 116.828ZM94.5443 117.62C94.5443 117.852 94.6603 118.04 94.8923 118.184C95.1243 118.32 95.4043 118.432 95.7323 118.52C96.0603 118.6 96.3883 118.696 96.7163 118.808C97.0443 118.912 97.3243 119.096 97.5563 119.36C97.7883 119.616 97.9043 119.948 97.9043 120.356C97.9043 120.9 97.6923 121.336 97.2683 121.664C96.8523 121.992 96.3163 122.156 95.6603 122.156C95.0763 122.156 94.5763 122.028 94.1603 121.772C93.7443 121.516 93.4483 121.176 93.2723 120.752L94.1723 120.236C94.2683 120.524 94.4483 120.752 94.7123 120.92C94.9763 121.088 95.2923 121.172 95.6603 121.172C96.0043 121.172 96.2883 121.108 96.5123 120.98C96.7363 120.844 96.8483 120.636 96.8483 120.356C96.8483 120.124 96.7323 119.94 96.5003 119.804C96.2683 119.66 95.9883 119.548 95.6603 119.468C95.3323 119.38 95.0043 119.28 94.6763 119.168C94.3483 119.056 94.0683 118.872 93.8363 118.616C93.6043 118.36 93.4883 118.032 93.4883 117.632C93.4883 117.112 93.6883 116.684 94.0883 116.348C94.4963 116.012 95.0043 115.844 95.6123 115.844C96.1003 115.844 96.5323 115.956 96.9083 116.18C97.2923 116.396 97.5803 116.7 97.7723 117.092L96.8963 117.584C96.6803 117.072 96.2523 116.816 95.6123 116.816C95.3163 116.816 95.0643 116.888 94.8563 117.032C94.6483 117.168 94.5443 117.364 94.5443 117.62ZM99.9054 117.62C99.9054 117.852 100.021 118.04 100.253 118.184C100.485 118.32 100.765 118.432 101.093 118.52C101.421 118.6 101.749 118.696 102.077 118.808C102.405 118.912 102.685 119.096 102.917 119.36C103.149 119.616 103.265 119.948 103.265 120.356C103.265 120.9 103.053 121.336 102.629 121.664C102.213 121.992 101.677 122.156 101.021 122.156C100.437 122.156 99.9374 122.028 99.5214 121.772C99.1054 121.516 98.8094 121.176 98.6334 120.752L99.5334 120.236C99.6294 120.524 99.8094 120.752 100.073 120.92C100.337 121.088 100.653 121.172 101.021 121.172C101.365 121.172 101.649 121.108 101.873 120.98C102.097 120.844 102.209 120.636 102.209 120.356C102.209 120.124 102.093 119.94 101.861 119.804C101.629 119.66 101.349 119.548 101.021 119.468C100.693 119.38 100.365 119.28 100.037 119.168C99.7094 119.056 99.4294 118.872 99.1974 118.616C98.9654 118.36 98.8494 118.032 98.8494 117.632C98.8494 117.112 99.0494 116.684 99.4494 116.348C99.8574 116.012 100.365 115.844 100.973 115.844C101.461 115.844 101.893 115.956 102.269 116.18C102.653 116.396 102.941 116.7 103.133 117.092L102.257 117.584C102.041 117.072 101.613 116.816 100.973 116.816C100.677 116.816 100.425 116.888 100.217 117.032C100.009 117.168 99.9054 117.364 99.9054 117.62ZM105.211 114.908C105.011 114.908 104.843 114.84 104.707 114.704C104.571 114.568 104.503 114.404 104.503 114.212C104.503 114.02 104.571 113.856 104.707 113.72C104.843 113.576 105.011 113.504 105.211 113.504C105.403 113.504 105.567 113.576 105.703 113.72C105.839 113.856 105.907 114.02 105.907 114.212C105.907 114.404 105.839 114.568 105.703 114.704C105.567 114.84 105.403 114.908 105.211 114.908ZM104.683 122V116H105.727V122H104.683ZM110.548 115.844C111.252 115.844 111.816 116.068 112.24 116.516C112.664 116.956 112.876 117.556 112.876 118.316V122H111.832V118.376C111.832 117.888 111.7 117.512 111.436 117.248C111.172 116.976 110.808 116.84 110.344 116.84C109.824 116.84 109.404 117.004 109.084 117.332C108.764 117.652 108.604 118.148 108.604 118.82V122H107.56V116H108.604V116.864C109.028 116.184 109.676 115.844 110.548 115.844ZM119.553 116H120.585V121.748C120.585 122.636 120.285 123.324 119.685 123.812C119.085 124.308 118.365 124.556 117.525 124.556C116.853 124.556 116.273 124.428 115.785 124.172C115.297 123.924 114.929 123.564 114.681 123.092L115.593 122.576C115.921 123.248 116.573 123.584 117.549 123.584C118.173 123.584 118.661 123.42 119.013 123.092C119.373 122.764 119.553 122.316 119.553 121.748V120.896C119.025 121.696 118.273 122.096 117.297 122.096C116.441 122.096 115.717 121.792 115.125 121.184C114.533 120.576 114.237 119.836 114.237 118.964C114.237 118.092 114.533 117.356 115.125 116.756C115.717 116.148 116.441 115.844 117.297 115.844C118.281 115.844 119.033 116.24 119.553 117.032V116ZM115.893 120.488C116.301 120.896 116.809 121.1 117.417 121.1C118.025 121.1 118.533 120.896 118.941 120.488C119.349 120.08 119.553 119.572 119.553 118.964C119.553 118.364 119.349 117.86 118.941 117.452C118.533 117.044 118.025 116.84 117.417 116.84C116.809 116.84 116.301 117.044 115.893 117.452C115.485 117.86 115.281 118.364 115.281 118.964C115.281 119.572 115.485 120.08 115.893 120.488Z" fill="#0E0E0E"/>
<circle cx="28" cy="112" r="16" fill="#5D009F"/>
<mask id="mask0_356_17023" style="mask-type:alpha" maskUnits="userSpaceOnUse" x="16" y="100" width="24" height="24">
<rect x="16" y="100" width="24" height="24" fill="#D9D9D9"/>
</mask>
<g mask="url(#mask0_356_17023)">
<path d="M25.9972 121L26.9972 114H23.4972C23.2472 114 23.0929 113.933 23.0342 113.8C22.9762 113.667 23.0139 113.483 23.1472 113.25L28.9972 103H29.9972L28.9972 110H32.4972C32.7472 110 32.9012 110.067 32.9592 110.2C33.0179 110.333 32.9805 110.517 32.8472 110.75L26.9972 121H25.9972Z" fill="white"/>
</g>
<defs>
<filter id="filter0_b_356_17023" x="-4" y="-4" width="148" height="148" filterUnits="userSpaceOnUse" color-interpolation-filters="sRGB">
<feFlood flood-opacity="0" result="BackgroundImageFix"/>
<feGaussianBlur in="BackgroundImage" stdDeviation="2"/>
<feComposite in2="SourceAlpha" operator="in" result="effect1_backgroundBlur_356_17023"/>
<feBlend mode="normal" in="SourceGraphic" in2="effect1_backgroundBlur_356_17023" result="shape"/>
</filter>
</defs>
</svg>
