<svg width="40" height="40" viewBox="0 0 40 40" fill="none" xmlns="http://www.w3.org/2000/svg">
<path d="M9.91667 35.8334C9.25 35.8334 8.68056 35.5973 8.20833 35.1251C7.73611 34.6529 7.5 34.0834 7.5 33.4167V6.58341C7.5 5.91675 7.73611 5.3473 8.20833 4.87508C8.68056 4.40286 9.25 4.16675 9.91667 4.16675H24.375L32.5 12.2917V33.4167C32.5 34.0834 32.2639 34.6529 31.7917 35.1251C31.3194 35.5973 30.75 35.8334 30.0833 35.8334H9.91667ZM22.8333 12.5001V6.04175H9.91667C9.77778 6.04175 9.65278 6.0973 9.54167 6.20841C9.43056 6.31953 9.375 6.44453 9.375 6.58341V33.4167C9.375 33.5556 9.43056 33.6806 9.54167 33.7917C9.65278 33.9029 9.77778 33.9584 9.91667 33.9584H30.0833C30.2222 33.9584 30.3472 33.9029 30.4583 33.7917C30.5694 33.6806 30.625 33.5556 30.625 33.4167V12.5001H22.8333Z" fill="#5D009F"/>
<path d="M21.2448 31.0001H19.3281V29.3334H15.7031V27.4584H22.9948V24.0417H16.6615C16.3837 24.0417 16.1545 23.9515 15.974 23.7709C15.7934 23.5904 15.7031 23.3612 15.7031 23.0834V17.7917C15.7031 17.514 15.7934 17.2848 15.974 17.1042C16.1545 16.9237 16.3837 16.8334 16.6615 16.8334H19.3281V15.1667H21.2448V16.8334H24.8698V18.7501H17.5781V22.1667H23.9115C24.1892 22.1667 24.4184 22.257 24.599 22.4376C24.7795 22.6181 24.8698 22.8334 24.8698 23.0834V28.4167C24.8698 28.6667 24.7795 28.882 24.599 29.0626C24.4184 29.2431 24.1892 29.3334 23.9115 29.3334H21.2448V31.0001Z" fill="white"/>
</svg>
