<svg width="40" height="40" viewBox="0 0 40 40" fill="none" xmlns="http://www.w3.org/2000/svg">
<path d="M8.24479 35.8334C7.57812 35.8334 7.00868 35.5973 6.53646 35.125C6.06424 34.6528 5.82812 34.0834 5.82812 33.4167V9.29171C5.82812 8.65282 6.06424 8.09032 6.53646 7.60421C7.00868 7.1181 7.57812 6.87504 8.24479 6.87504H11.3281V3.95837H13.4115V6.87504H26.6615V3.95837H28.7031V6.87504H31.7448C32.4115 6.87504 32.9809 7.1181 33.4531 7.60421C33.9253 8.09032 34.1615 8.65282 34.1615 9.29171V33.4167C34.1615 34.0834 33.9253 34.6528 33.4531 35.125C32.9809 35.5973 32.4115 35.8334 31.7448 35.8334H8.24479ZM7.70313 33.4167C7.70313 33.5556 7.75868 33.6806 7.86979 33.7917C7.9809 33.9028 8.1059 33.9584 8.24479 33.9584H31.7448C31.8837 33.9584 32.0087 33.9028 32.1198 33.7917C32.2309 33.6806 32.2865 33.5556 32.2865 33.4167V9.29171C32.2865 9.15282 32.2309 9.03476 32.1198 8.93754C32.0087 8.84032 31.8837 8.79171 31.7448 8.79171H8.24479C8.1059 8.79171 7.9809 8.84032 7.86979 8.93754C7.75868 9.03476 7.70313 9.15282 7.70313 9.29171V33.4167ZM15.4948 33.9584V30L12.3698 26.3334C12.092 26.0278 11.849 25.6459 11.6406 25.1875C11.4323 24.7292 11.3281 24.1945 11.3281 23.5834C11.3281 23.25 11.3628 22.9237 11.4323 22.6042C11.5017 22.2848 11.6198 21.9723 11.7865 21.6667C11.6476 21.3889 11.5365 21.0903 11.4531 20.7709C11.3698 20.4514 11.3281 20.1112 11.3281 19.75C11.3281 19.1389 11.4323 18.6042 11.6406 18.1459C11.849 17.6875 12.092 17.3056 12.3698 17L15.4948 13.3334V8.79171H17.4948V13.625C17.4948 13.7639 17.3976 14.0278 17.2031 14.4167L13.8698 18.3334C13.6753 18.5556 13.5365 18.7848 13.4531 19.0209C13.3698 19.257 13.3281 19.5 13.3281 19.75C13.3281 20.3056 13.5087 20.7848 13.8698 21.1875C14.2309 21.5903 14.6892 21.7917 15.2448 21.7917C15.4948 21.7917 15.7309 21.75 15.9531 21.6667C16.1753 21.5834 16.3698 21.4445 16.5365 21.25C17.0087 20.7778 17.5434 20.4167 18.1406 20.1667C18.7378 19.9167 19.3559 19.7917 19.9948 19.7917C20.6337 19.7917 21.2517 19.9167 21.849 20.1667C22.4462 20.4167 22.9809 20.7778 23.4531 21.25C23.6476 21.4445 23.8559 21.5834 24.0781 21.6667C24.3003 21.75 24.5226 21.7917 24.7448 21.7917C25.3003 21.7917 25.7587 21.5903 26.1198 21.1875C26.4809 20.7848 26.6615 20.3195 26.6615 19.7917C26.6615 19.5417 26.6128 19.2987 26.5156 19.0625C26.4184 18.8264 26.2865 18.5973 26.1198 18.375L22.7865 14.4167C22.6753 14.3056 22.599 14.1806 22.5573 14.0417C22.5156 13.9028 22.4948 13.7639 22.4948 13.625V8.79171H24.4948V13.3334L27.6198 17.0834C27.9809 17.4723 28.2448 17.8959 28.4115 18.3542C28.5781 18.8125 28.6615 19.2917 28.6615 19.7917C28.6615 20.125 28.6128 20.4514 28.5156 20.7709C28.4184 21.0903 28.3003 21.3889 28.1615 21.6667C28.3281 21.9723 28.4531 22.2848 28.5365 22.6042C28.6198 22.9237 28.6615 23.25 28.6615 23.5834C28.6615 24.1945 28.5573 24.7292 28.349 25.1875C28.1406 25.6459 27.8976 26.0278 27.6198 26.3334L24.4948 30V33.9584H22.4948V29.7084C22.4948 29.5417 22.592 29.2778 22.7865 28.9167L26.1198 25C26.342 24.75 26.4948 24.4792 26.5781 24.1875C26.6615 23.8959 26.6753 23.5973 26.6198 23.2917C26.342 23.4584 26.0503 23.5834 25.7448 23.6667C25.4392 23.75 25.1198 23.7917 24.7865 23.7917C24.2865 23.7917 23.7934 23.6875 23.3073 23.4792C22.8212 23.2709 22.3976 22.9723 22.0365 22.5834C21.7865 22.3056 21.4809 22.1042 21.1198 21.9792C20.7587 21.8542 20.3837 21.7917 19.9948 21.7917C19.6337 21.7917 19.2726 21.8542 18.9115 21.9792C18.5503 22.1042 18.2309 22.3056 17.9531 22.5834C17.592 22.9723 17.1684 23.2709 16.6823 23.4792C16.1962 23.6875 15.717 23.7917 15.2448 23.7917C14.9115 23.7917 14.5851 23.75 14.2656 23.6667C13.9462 23.5834 13.6476 23.4584 13.3698 23.2917C13.3142 23.5973 13.3281 23.8959 13.4115 24.1875C13.4948 24.4792 13.6476 24.75 13.8698 25L17.2031 28.9167C17.2865 29.0556 17.3559 29.1875 17.4115 29.3125C17.467 29.4375 17.4948 29.5695 17.4948 29.7084V33.9584H15.4948ZM7.70313 33.4167V33.9584V8.79171V9.29171V33.4167Z" fill="#5D009F"/>
<path d="M15.4948 33.9584V30L12.3698 26.3334C12.092 26.0278 11.849 25.6459 11.6406 25.1875C11.4323 24.7292 11.3281 24.1945 11.3281 23.5834C11.3281 23.25 11.3628 22.9236 11.4323 22.6042C11.5017 22.2847 11.6198 21.9722 11.7865 21.6667C11.6476 21.3889 11.5365 21.0903 11.4531 20.7709C11.3698 20.4514 11.3281 20.1111 11.3281 19.75C11.3281 19.1389 11.4323 18.6042 11.6406 18.1459C11.849 17.6875 12.092 17.3056 12.3698 17L15.4948 13.3334V8.79169H17.4948V13.625C17.4948 13.7639 17.3976 14.0278 17.2031 14.4167L13.8698 18.3334C13.6753 18.5556 13.5365 18.7847 13.4531 19.0209C13.3698 19.257 13.3281 19.5 13.3281 19.75C13.3281 20.3056 13.5087 20.7847 13.8698 21.1875C14.2309 21.5903 14.6892 21.7917 15.2448 21.7917C15.4948 21.7917 15.7309 21.75 15.9531 21.6667C16.1753 21.5834 16.3698 21.4445 16.5365 21.25C17.0087 20.7778 17.5434 20.4167 18.1406 20.1667C18.7378 19.9167 19.3559 19.7917 19.9948 19.7917C20.6337 19.7917 21.2517 19.9167 21.849 20.1667C22.4462 20.4167 22.9809 20.7778 23.4531 21.25C23.6476 21.4445 23.8559 21.5834 24.0781 21.6667C24.3003 21.75 24.5226 21.7917 24.7448 21.7917C25.3003 21.7917 25.7587 21.5903 26.1198 21.1875C26.4809 20.7847 26.6615 20.3195 26.6615 19.7917C26.6615 19.5417 26.6128 19.2986 26.5156 19.0625C26.4184 18.8264 26.2865 18.5972 26.1198 18.375L22.7865 14.4167C22.6753 14.3056 22.599 14.1806 22.5573 14.0417C22.5156 13.9028 22.4948 13.7639 22.4948 13.625V8.79169H24.4948V13.3334L27.6198 17.0834C27.9809 17.4722 28.2448 17.8959 28.4115 18.3542C28.5781 18.8125 28.6615 19.2917 28.6615 19.7917C28.6615 20.125 28.6128 20.4514 28.5156 20.7709C28.4184 21.0903 28.3003 21.3889 28.1615 21.6667C28.3281 21.9722 28.4531 22.2847 28.5365 22.6042C28.6198 22.9236 28.6615 23.25 28.6615 23.5834C28.6615 24.1945 28.5573 24.7292 28.349 25.1875C28.1406 25.6459 27.8976 26.0278 27.6198 26.3334L24.4948 30V33.9584H22.4948V29.7084C22.4948 29.5417 22.592 29.2778 22.7865 28.9167L26.1198 25C26.342 24.75 26.4948 24.4792 26.5781 24.1875C26.6615 23.8959 26.6753 23.5972 26.6198 23.2917C26.342 23.4584 26.0503 23.5834 25.7448 23.6667C25.4392 23.75 25.1198 23.7917 24.7865 23.7917C24.2865 23.7917 23.7934 23.6875 23.3073 23.4792C22.8212 23.2709 22.3976 22.9722 22.0365 22.5834C21.7865 22.3056 21.4809 22.1042 21.1198 21.9792C20.7587 21.8542 20.3837 21.7917 19.9948 21.7917C19.6337 21.7917 19.2726 21.8542 18.9115 21.9792C18.5503 22.1042 18.2309 22.3056 17.9531 22.5834C17.592 22.9722 17.1684 23.2709 16.6823 23.4792C16.1962 23.6875 15.717 23.7917 15.2448 23.7917C14.9115 23.7917 14.5851 23.75 14.2656 23.6667C13.9462 23.5834 13.6476 23.4584 13.3698 23.2917C13.3142 23.5972 13.3281 23.8959 13.4115 24.1875C13.4948 24.4792 13.6476 24.75 13.8698 25L17.2031 28.9167C17.2865 29.0556 17.3559 29.1875 17.4115 29.3125C17.467 29.4375 17.4948 29.5695 17.4948 29.7084V33.9584H15.4948Z" fill="white"/>
</svg>
