<svg width="32" height="32" viewBox="0 0 32 32" fill="none" xmlns="http://www.w3.org/2000/svg">
<path d="M23.0359 22.9999C23.6137 22.9999 24.1026 22.7888 24.5026 22.3666C24.9026 21.9444 25.1026 21.4444 25.1026 20.8666C25.1026 20.2888 24.9026 19.7999 24.5026 19.3999C24.1026 18.9999 23.6137 18.7999 23.0359 18.7999C22.4582 18.7999 21.9582 18.9999 21.5359 19.3999C21.1137 19.7999 20.9026 20.2888 20.9026 20.8666C20.9026 21.4444 21.1137 21.9444 21.5359 22.3666C21.9582 22.7888 22.4582 22.9999 23.0359 22.9999ZM23.0026 27.1666C23.7359 27.1666 24.4026 27.011 25.0026 26.6999C25.6026 26.3888 26.1137 25.9444 26.5359 25.3666C25.9582 25.0555 25.3804 24.8222 24.8026 24.6666C24.2248 24.511 23.6248 24.4333 23.0026 24.4333C22.3804 24.4333 21.7748 24.511 21.1859 24.6666C20.597 24.8222 20.0248 25.0555 19.4693 25.3666C19.8915 25.9444 20.397 26.3888 20.9859 26.6999C21.5748 27.011 22.247 27.1666 23.0026 27.1666ZM23.1026 29.3333C21.3693 29.3333 19.8915 28.7166 18.6693 27.4833C17.447 26.2499 16.8359 24.7888 16.8359 23.0999C16.8359 21.3666 17.447 19.8833 18.6693 18.6499C19.8915 17.4166 21.3693 16.7999 23.1026 16.7999C24.8137 16.7999 26.2859 17.4166 27.5193 18.6499C28.7526 19.8833 29.3693 21.3666 29.3693 23.0999C29.3693 24.7888 28.7526 26.2499 27.5193 27.4833C26.2859 28.7166 24.8137 29.3333 23.1026 29.3333ZM16.0026 29.2333H15.7526C15.697 29.2333 15.6137 29.211 15.5026 29.1666C12.6804 28.3222 10.2804 26.5444 8.3026 23.8333C6.32483 21.1222 5.33594 18.0444 5.33594 14.5999V8.03327C5.33594 7.61105 5.45816 7.22771 5.7026 6.88327C5.94705 6.53882 6.25816 6.28882 6.63594 6.13327L15.3026 2.89993C15.547 2.81105 15.7804 2.7666 16.0026 2.7666C16.2248 2.7666 16.4582 2.81105 16.7026 2.89993L25.3693 6.13327C25.747 6.28882 26.0582 6.53882 26.3026 6.88327C26.5471 7.22771 26.6693 7.61105 26.6693 8.03327V15.6333C26.3582 15.4777 26.0248 15.3388 25.6693 15.2166C25.3137 15.0944 24.9804 15.011 24.6693 14.9666V8.03327L16.0026 4.83327L7.33594 8.03327V14.5999C7.33594 16.2888 7.60816 17.8444 8.1526 19.2666C8.69705 20.6888 9.39149 21.9388 10.2359 23.0166C11.0804 24.0944 12.0137 24.9888 13.0359 25.6999C14.0582 26.411 15.047 26.9222 16.0026 27.2333C16.1359 27.4999 16.3359 27.7999 16.6026 28.1333C16.8693 28.4666 17.0915 28.7222 17.2693 28.8999C17.0248 29.011 16.797 29.0944 16.5859 29.1499C16.3748 29.2055 16.1804 29.2333 16.0026 29.2333Z" fill="#A0A0A0"/>
<path d="M23.0359 23.0003C23.6137 23.0003 24.1026 22.7892 24.5026 22.367C24.9026 21.9447 25.1026 21.4447 25.1026 20.867C25.1026 20.2892 24.9026 19.8003 24.5026 19.4003C24.1026 19.0003 23.6137 18.8003 23.0359 18.8003C22.4582 18.8003 21.9582 19.0003 21.5359 19.4003C21.1137 19.8003 20.9026 20.2892 20.9026 20.867C20.9026 21.4447 21.1137 21.9447 21.5359 22.367C21.9582 22.7892 22.4582 23.0003 23.0359 23.0003ZM23.0026 27.167C23.7359 27.167 24.4026 27.0114 25.0026 26.7003C25.6026 26.3892 26.1137 25.9447 26.5359 25.367C25.9582 25.0558 25.3804 24.8225 24.8026 24.667C24.2248 24.5114 23.6248 24.4336 23.0026 24.4336C22.3804 24.4336 21.7748 24.5114 21.1859 24.667C20.597 24.8225 20.0248 25.0558 19.4693 25.367C19.8915 25.9447 20.397 26.3892 20.9859 26.7003C21.5748 27.0114 22.247 27.167 23.0026 27.167ZM23.1026 29.3336C21.3693 29.3336 19.8915 28.717 18.6693 27.4836C17.447 26.2503 16.8359 24.7892 16.8359 23.1003C16.8359 21.367 17.447 19.8836 18.6693 18.6503C19.8915 17.417 21.3693 16.8003 23.1026 16.8003C24.8137 16.8003 26.2859 17.417 27.5193 18.6503C28.7526 19.8836 29.3693 21.367 29.3693 23.1003C29.3693 24.7892 28.7526 26.2503 27.5193 27.4836C26.2859 28.717 24.8137 29.3336 23.1026 29.3336Z" fill="#5D009F"/>
</svg>
