<svg width="32" height="32" viewBox="0 0 32 32" fill="none" xmlns="http://www.w3.org/2000/svg">
<path d="M4.66406 28C4.10851 28 3.63628 27.8056 3.2474 27.4167C2.85851 27.0278 2.66406 26.5556 2.66406 26V6C2.66406 5.44444 2.85851 4.97222 3.2474 4.58333C3.63628 4.19444 4.10851 4 4.66406 4H13.6641C14.2196 4 14.6918 4.19444 15.0807 4.58333C15.4696 4.97222 15.6641 5.44444 15.6641 6V9.5H27.3307C27.8863 9.5 28.3585 9.69444 28.7474 10.0833C29.1363 10.4722 29.3307 10.9444 29.3307 11.5V26C29.3307 26.5556 29.1363 27.0278 28.7474 27.4167C28.3585 27.8056 27.8863 28 27.3307 28H4.66406ZM4.66406 26H8.16406V22.5H4.66406V26ZM4.66406 20.5H8.16406V17H4.66406V20.5ZM4.66406 15H8.16406V11.5H4.66406V15ZM4.66406 11.5H8.16406V6H4.66406V11.5ZM10.1641 26H13.6641V22.5H10.1641V26ZM10.1641 20.5H13.6641V17H10.1641V20.5ZM8.16406 15H13.6641V11.5H8.16406V15ZM8.16406 11.5H13.6641V6H8.16406V11.5ZM15.6641 26H27.3307V11.5H15.6641V15H18.3307V17H15.6641V20.5H18.3307V22.5H15.6641V26ZM21.8307 17V15H23.8307V17H21.8307ZM21.8307 22.5V20.5H23.8307V22.5H21.8307Z" fill="#A0A0A0"/>
<path d="M8.20312 8.5V12.5C8.20312 13.0523 8.65084 13.5 9.20312 13.5C9.75541 13.5 10.2031 13.0523 10.2031 12.5V8.5C10.2031 7.94772 9.75541 7.5 9.20312 7.5C8.65084 7.5 8.20312 7.94772 8.20312 8.5Z" fill="#5D009F"/>
<path d="M11.2031 9.5L7.20312 9.5C6.65084 9.5 6.20312 9.94772 6.20312 10.5C6.20312 11.0523 6.65084 11.5 7.20312 11.5L11.2031 11.5C11.7554 11.5 12.2031 11.0523 12.2031 10.5C12.2031 9.94772 11.7554 9.5 11.2031 9.5Z" fill="#5D009F"/>
</svg>
