<svg width="79" height="86" viewBox="0 0 79 86" fill="none" xmlns="http://www.w3.org/2000/svg">
<g clip-path="url(#clip0_393_281)">
<path d="M53.9797 3.88152C55.0688 3.88152 55.9516 3.01261 55.9516 1.94076C55.9516 0.868909 55.0688 0 53.9797 0C52.8907 0 52.0078 0.868909 52.0078 1.94076C52.0078 3.01261 52.8907 3.88152 53.9797 3.88152Z" fill="#07ABDD"/>
<path d="M48.6438 13.1003C49.7329 13.1003 50.6157 12.2314 50.6157 11.1595C50.6157 10.0877 49.7329 9.21875 48.6438 9.21875C47.5547 9.21875 46.6719 10.0877 46.6719 11.1595C46.6719 12.2314 47.5547 13.1003 48.6438 13.1003Z" fill="#5D009F"/>
<path d="M29.2922 5.94402C30.3813 5.94402 31.2641 5.07511 31.2641 4.00326C31.2641 2.93141 30.3813 2.0625 29.2922 2.0625C28.2032 2.0625 27.3203 2.93141 27.3203 4.00326C27.3203 5.07511 28.2032 5.94402 29.2922 5.94402Z" fill="#07ABDD"/>
<path d="M39.3157 11.6042C40.4047 11.6042 41.2876 10.7353 41.2876 9.66342C41.2876 8.59156 40.4047 7.72266 39.3157 7.72266C38.2266 7.72266 37.3438 8.59156 37.3438 9.66342C37.3438 10.7353 38.2266 11.6042 39.3157 11.6042Z" fill="#5D009F"/>
<path d="M31.0188 27.6159C32.1079 27.6159 32.9907 26.747 32.9907 25.6751C32.9907 24.6033 32.1079 23.7344 31.0188 23.7344C29.9297 23.7344 29.0469 24.6033 29.0469 25.6751C29.0469 26.747 29.9297 27.6159 31.0188 27.6159Z" fill="#07ABDD"/>
<path d="M25.0188 37.36C26.1079 37.36 26.9907 36.4911 26.9907 35.4193C26.9907 34.3474 26.1079 33.4785 25.0188 33.4785C23.9297 33.4785 23.0469 34.3474 23.0469 35.4193C23.0469 36.4911 23.9297 37.36 25.0188 37.36Z" fill="#5D009F"/>
<path d="M42.1438 30.6882C43.2329 30.6882 44.1157 29.8193 44.1157 28.7474C44.1157 27.6755 43.2329 26.8066 42.1438 26.8066C41.0547 26.8066 40.1719 27.6755 40.1719 28.7474C40.1719 29.8193 41.0547 30.6882 42.1438 30.6882Z" fill="#07ABDD"/>
<path d="M52.175 36.3493C53.2641 36.3493 54.147 35.4804 54.147 34.4085C54.147 33.3367 53.2641 32.4678 52.175 32.4678C51.086 32.4678 50.2031 33.3367 50.2031 34.4085C50.2031 35.4804 51.086 36.3493 52.175 36.3493Z" fill="#5D009F"/>
<path d="M6.57886 69.1394L5.01775 68.3711C3.08692 67.4412 1.15608 66.0261 1.15608 62.7915C1.15608 59.3951 3.82639 56.5244 7.48265 56.5244C10.0297 56.5244 12.4946 57.7374 13.6449 58.546L11.1389 62.8723C10.6459 62.468 8.83835 61.5785 7.68806 61.5785C7.154 61.5785 6.7021 61.9424 6.7021 62.5489C6.7021 63.1553 7.11292 63.3979 7.97563 63.8023L10.194 64.8939C12.3714 65.9856 13.7681 67.6838 13.7681 70.2715C13.7681 73.9508 11.0157 76.7407 7.31833 76.7407C4.15504 76.7407 1.32041 75.2042 0.046875 74.2743L2.88151 69.665C3.21016 69.948 5.63398 71.4845 7.35941 71.4845C7.77022 71.4845 8.2632 71.2014 8.2632 70.6354C8.22212 69.9884 7.56482 69.5841 6.57886 69.1394Z" fill="white"/>
<path d="M22.5178 68.0479C22.5178 69.5843 23.0108 70.5951 24.2844 70.5951C25.5579 70.5951 26.0509 69.5843 26.0509 68.0479V56.8076H32.2953V68.3713C32.2953 73.1019 29.132 76.7409 24.2844 76.7409C19.4367 76.7409 16.2734 73.1424 16.2734 68.3713V56.8076H22.5178V68.0479Z" fill="white"/>
<path d="M55.9173 56.8076V76.2152H49.6729V73.6276C49.6729 71.9698 49.714 70.2312 49.8783 68.5735L49.7551 68.5331C49.3032 69.3417 48.5226 70.5143 47.7421 71.6059L45.8934 74.1532H45.6058L43.8393 71.6868C43.0588 70.5951 42.196 69.3013 41.7441 68.5331L41.6209 68.5735C41.7852 69.8673 41.8263 71.8485 41.8263 73.385V76.2557H35.6641V56.8481H40.676L45.7291 63.8024H45.8523L50.9054 56.8481H55.9173V56.8076Z" fill="white"/>
<path d="M68.8581 56.5654C74.5685 56.5654 79.0053 61.0534 79.0053 66.6736C79.0053 72.2937 74.5685 76.7817 68.8581 76.7817C63.1478 76.7817 58.7109 72.2937 58.7109 66.6736C58.7109 61.0534 63.1478 56.5654 68.8581 56.5654ZM68.8581 70.5955C71.0354 70.5955 72.7609 68.8974 72.7609 66.6736C72.7609 64.4093 71.0354 62.7516 68.8581 62.7516C66.6808 62.7516 64.9554 64.4498 64.9554 66.6736C64.9554 68.8974 66.6397 70.5955 68.8581 70.5955Z" fill="white"/>
<path d="M1.06812 82.3615V85.9196H0.698388V82.3615H0V82.0381H1.76651V82.3615H1.06812Z" fill="white"/>
<path d="M4.31137 85.9186L4.10596 84.9887H3.12L2.91459 85.9186H2.58594L3.44865 82.0371H3.81839L4.6811 85.9186H4.31137ZM3.61298 82.6032L3.40757 83.5331L3.16108 84.6652H4.0238L3.77731 83.5331L3.61298 82.6032Z" fill="white"/>
<path d="M5.95312 85.9186V82.0371H6.28178V85.5952H7.51423V85.9186H5.95312Z" fill="white"/>
<path d="M8.82812 85.9186V82.0371H10.4714V82.3606H9.15678V83.7757H10.3071V84.0992H9.15678V85.5952H10.4714V85.9186H8.82812Z" fill="white"/>
<path d="M12.1568 82.9674V85.8786H11.8281V81.9971H12.1568C12.1979 82.0375 12.1979 82.1184 12.2389 82.2397C12.28 82.361 12.3211 82.4418 12.4033 82.6036C12.4444 82.7249 12.5265 82.8462 12.5676 83.0079C12.6087 83.1292 12.6908 83.2909 12.7319 83.4122C12.773 83.5335 12.8552 83.6548 12.8962 83.7761C12.9373 83.8974 12.9784 83.9783 13.0195 84.0187L13.4303 84.9891H13.4714V82.0375H13.8V85.919H13.4714C13.4303 85.8786 13.4303 85.7977 13.3892 85.6764C13.3481 85.5551 13.3071 85.4743 13.2249 85.3125C13.1838 85.1912 13.1017 85.0699 13.0606 84.9082C13.0195 84.7869 12.9373 84.6252 12.8962 84.5039C12.8552 84.3826 12.773 84.2613 12.7319 84.1804C12.6908 84.0591 12.6498 84.0187 12.6498 83.9378L12.1568 82.9674Z" fill="white"/>
<path d="M16.0994 82.3606V85.9186H15.7296V82.3606H15.0312V82.0371H16.7978V82.3606H16.0994Z" fill="white"/>
<path d="M17.9531 85.919V85.5146H18.3639V85.919H17.9531Z" fill="white"/>
<path d="M20.5837 82.3606V85.9186H20.214V82.3606H19.5156V82.0371H21.2821V82.3606H20.5837Z" fill="white"/>
<path d="M22.5938 85.9186V82.0371H24.237V82.3606H22.9224V83.7757H24.0727V84.0992H22.9224V85.5952H24.237V85.9186H22.5938Z" fill="white"/>
<path d="M26.4212 81.998C26.7087 81.998 26.9142 82.0789 27.0785 82.2406C27.2428 82.4024 27.325 82.6045 27.325 82.8876L26.9552 82.9684C26.9552 82.7663 26.9142 82.6045 26.832 82.5237C26.7498 82.4024 26.6266 82.3619 26.4623 82.3619C26.3801 82.3619 26.2979 82.3619 26.2158 82.4024C26.1336 82.4428 26.0925 82.4832 26.0514 82.5641C26.0104 82.645 25.9693 82.6854 25.9693 82.7663C25.9693 82.8471 25.9282 82.928 25.9282 83.0089V85.0709C25.9282 85.1518 25.9282 85.2326 25.9693 85.2731C25.9693 85.3539 26.0104 85.3944 26.0514 85.4752C26.0925 85.5157 26.1336 85.5561 26.2158 85.5965C26.2979 85.637 26.3801 85.637 26.4623 85.637C26.6266 85.637 26.7498 85.5965 26.832 85.4752C26.9142 85.3944 26.9552 85.2326 26.9963 85.0305L27.3661 85.1114C27.3661 85.3944 27.2839 85.5965 27.1196 85.7583C26.9552 85.92 26.7498 85.9604 26.5033 85.9604C26.2158 85.9604 26.0104 85.8796 25.846 85.7178C25.6817 85.5561 25.6406 85.3539 25.6406 85.0709V83.0493C25.6406 82.928 25.6406 82.7663 25.6817 82.645C25.7228 82.5237 25.7639 82.4024 25.846 82.3215C25.9282 82.2406 26.0104 82.1598 26.1336 82.1193C26.1336 82.0385 26.2569 81.998 26.4212 81.998Z" fill="white"/>
<path d="M30.1468 85.9186V84.0992H29.0787V85.9186H28.75V82.0371H29.0787V83.7757H30.1468V82.0371H30.4754V85.9186H30.1468Z" fill="white"/>
<path d="M32.3677 82.9674V85.8786H32.0391V81.9971H32.3677C32.4088 82.0375 32.4088 82.1184 32.4499 82.2397C32.491 82.361 32.532 82.4418 32.6142 82.6036C32.6553 82.7249 32.7375 82.8462 32.7785 83.0079C32.8196 83.1292 32.9018 83.2909 32.9429 83.4122C32.9839 83.5335 33.0661 83.6548 33.1072 83.7761C33.1483 83.8974 33.1893 83.9783 33.2304 84.0187L33.6412 84.9891H33.6823V82.0375H34.011V85.919H33.6823C33.6412 85.8786 33.6412 85.7977 33.6002 85.6764C33.5591 85.5551 33.518 85.4743 33.4358 85.3125C33.3948 85.1912 33.3126 85.0699 33.2715 84.9082C33.2304 84.7869 33.1483 84.6252 33.1072 84.5039C33.0661 84.3826 32.9839 84.2613 32.9429 84.1804C32.9018 84.0591 32.8607 84.0187 32.8607 83.9378L32.3677 82.9674Z" fill="white"/>
<path d="M35.5781 85.9186V82.0371H35.9479V85.9186H35.5781Z" fill="white"/>
<path d="M39.2743 84.949C39.2743 85.1916 39.2332 85.3938 39.1511 85.5151L39.4797 85.7577L39.3154 85.9599L38.9868 85.7173C38.8635 85.8386 38.6581 85.9194 38.3705 85.9194C38.083 85.9194 37.8365 85.8386 37.7132 85.6768C37.5489 85.5151 37.5078 85.3129 37.5078 84.9895V82.9678C37.5078 82.8465 37.5078 82.6848 37.5489 82.5635C37.59 82.4422 37.6311 82.3209 37.7132 82.2401C37.7954 82.1592 37.8775 82.0783 38.0008 82.0379C38.124 81.9975 38.2473 81.957 38.4116 81.957C38.5759 81.957 38.7403 81.9975 38.8224 82.0379C38.9457 82.0783 39.0278 82.1592 39.11 82.2401C39.1922 82.3209 39.2332 82.4422 39.2743 82.5635C39.3154 82.6848 39.3154 82.8061 39.3154 82.9678V84.949H39.2743ZM38.9046 82.9274C38.9046 82.8466 38.9046 82.7657 38.8635 82.6848C38.8635 82.604 38.8224 82.5635 38.7813 82.4827C38.7403 82.4422 38.6992 82.3614 38.617 82.3614C38.5349 82.3209 38.4527 82.3209 38.3705 82.3209C38.2473 82.3209 38.1651 82.3614 38.083 82.4018C38.0008 82.4422 37.9597 82.5231 37.9186 82.5635C37.8775 82.6444 37.8365 82.7253 37.8365 82.8061C37.8365 82.887 37.7954 82.9678 37.7954 83.0487V85.0703C37.7954 85.1512 37.7954 85.2321 37.8365 85.2725C37.8775 85.3534 37.8775 85.3938 37.9186 85.4747C37.9597 85.5151 38.0008 85.5555 38.083 85.596C38.1651 85.6364 38.2473 85.6364 38.3294 85.6364C38.4527 85.6364 38.5759 85.596 38.6581 85.5555L38.2884 85.2725L38.4527 85.0703L38.7813 85.3129C38.7813 85.2725 38.8224 85.2321 38.8224 85.1512C38.8224 85.1108 38.8224 85.0299 38.8224 84.9895V82.9274H38.9046Z" fill="white"/>
<path d="M42.5223 82.0379V84.949C42.5223 85.2725 42.4401 85.5151 42.3169 85.6768C42.1526 85.8386 41.9472 85.9194 41.6596 85.9194C41.372 85.9194 41.1255 85.8386 41.0023 85.6768C40.879 85.5151 40.7969 85.3129 40.7969 84.9895V81.9975H41.1255V84.9895C41.1255 85.0703 41.1255 85.1512 41.1666 85.1916C41.2077 85.2725 41.2077 85.3129 41.2488 85.3938C41.2899 85.4342 41.3309 85.4747 41.4131 85.5151C41.4953 85.5555 41.5774 85.5555 41.6596 85.5555C41.865 85.5555 41.9882 85.4747 42.0704 85.3534C42.1526 85.2321 42.1936 85.0703 42.1936 84.9086V81.957H42.5223V82.0379Z" fill="white"/>
<path d="M44.0469 85.9186V82.0371H45.6901V82.3606H44.3755V83.7757H45.5258V84.0992H44.3755V85.5952H45.6901V85.9186H44.0469Z" fill="white"/>
<path d="M47.3281 85.919V85.5146H47.7389V85.919H47.3281Z" fill="white"/>
<path d="M49.7478 82.3606V85.9186H49.3781V82.3606H48.6797V82.0371H50.4462V82.3606H49.7478Z" fill="white"/>
<path d="M51.7188 85.9186V82.0371H53.362V82.3606H52.0474V83.7757H53.1977V84.0992H52.0474V85.5952H53.362V85.9186H51.7188Z" fill="white"/>
<path d="M55.5774 81.998C55.865 81.998 56.0704 82.0789 56.2347 82.2406C56.3991 82.4024 56.4812 82.6045 56.4812 82.8876L56.1115 82.9684C56.1115 82.7663 56.0704 82.6045 55.9882 82.5237C55.9061 82.4024 55.7828 82.3619 55.6185 82.3619C55.5363 82.3619 55.4542 82.3619 55.372 82.4024C55.2899 82.4428 55.2488 82.4832 55.2077 82.5641C55.1666 82.645 55.1255 82.6854 55.1255 82.7663C55.1255 82.8471 55.0845 82.928 55.0845 83.0089V85.0709C55.0845 85.1518 55.0844 85.2326 55.1255 85.2731C55.1255 85.3539 55.1666 85.3944 55.2077 85.4752C55.2488 85.5157 55.2899 85.5561 55.372 85.5965C55.4542 85.637 55.5363 85.637 55.6185 85.637C55.7828 85.637 55.9061 85.5965 55.9882 85.4752C56.0704 85.3944 56.1115 85.2326 56.1526 85.0305L56.5223 85.1114C56.5223 85.3944 56.4401 85.5965 56.2758 85.7583C56.1115 85.92 55.9061 85.9604 55.6596 85.9604C55.372 85.9604 55.1666 85.8796 55.0023 85.7178C54.838 85.5561 54.7969 85.3539 54.7969 85.0709V83.0493C54.7969 82.928 54.7969 82.7663 54.838 82.645C54.879 82.5237 54.9201 82.4024 55.0023 82.3215C55.0844 82.2406 55.1666 82.1598 55.2899 82.1193C55.2488 82.0385 55.4131 81.998 55.5774 81.998Z" fill="white"/>
<path d="M59.2874 85.9186V84.0992H58.2193V85.9186H57.8906V82.0371H58.2193V83.7757H59.2874V82.0371H59.6161V85.9186H59.2874Z" fill="white"/>
<path d="M61.5396 82.9684V85.8796H61.2109V81.998H61.5396C61.5807 82.0385 61.5807 82.1193 61.6218 82.2406C61.6628 82.3619 61.7039 82.4428 61.7861 82.6045C61.8272 82.7258 61.9093 82.8471 61.9504 83.0089C61.9915 83.1302 62.0737 83.2919 62.1147 83.4132C62.1558 83.5345 62.238 83.6558 62.2791 83.7771C62.3201 83.8984 62.3612 83.9792 62.4023 84.0197L62.8131 84.9901H62.8542V82.0385H63.1829V85.92H62.8542C62.8131 85.8796 62.8131 85.7987 62.772 85.6774C62.731 85.5561 62.6899 85.4752 62.6077 85.3135C62.5666 85.1922 62.4845 85.0709 62.4434 84.9092C62.4023 84.7879 62.3201 84.6262 62.2791 84.5049C62.238 84.3836 62.1558 84.2623 62.1147 84.1814C62.0737 84.0601 62.0326 84.0197 62.0326 83.9388L61.5396 82.9684Z" fill="white"/>
<path d="M66.4286 84.949C66.4286 85.2725 66.3464 85.5151 66.2231 85.6768C66.0588 85.8386 65.8534 85.9194 65.5658 85.9194C65.2783 85.9194 65.0318 85.8386 64.9085 85.6768C64.7442 85.5151 64.7031 85.3129 64.7031 84.9895V82.9678C64.7031 82.8465 64.7031 82.6848 64.7442 82.5635C64.7853 82.4422 64.8264 82.3209 64.9085 82.2401C64.9907 82.1592 65.0729 82.0783 65.1961 82.0379C65.3193 81.9975 65.4426 81.957 65.6069 81.957C65.7712 81.957 65.9356 81.9975 66.0177 82.0379C66.141 82.0783 66.2231 82.1592 66.3053 82.2401C66.3875 82.3209 66.4286 82.4422 66.4696 82.5635C66.5107 82.6848 66.5107 82.8061 66.5107 82.9678V84.949H66.4286ZM66.0588 82.9274C66.0588 82.8466 66.0588 82.7657 66.0177 82.6848C66.0177 82.604 65.9767 82.5635 65.9356 82.4827C65.8945 82.4422 65.8534 82.3614 65.7713 82.3614C65.6891 82.3209 65.6069 82.3209 65.5248 82.3209C65.4015 82.3209 65.3194 82.3614 65.2372 82.4018C65.155 82.4422 65.1139 82.5231 65.0729 82.5635C65.0318 82.6444 64.9907 82.7253 64.9907 82.8061C64.9907 82.887 64.9496 82.9678 64.9496 83.0487V85.0703C64.9496 85.1512 64.9496 85.2321 64.9907 85.2725C65.0318 85.3534 65.0318 85.3938 65.0729 85.4747C65.1139 85.5151 65.155 85.5555 65.2372 85.596C65.3194 85.6364 65.4015 85.6364 65.4837 85.6364C65.6891 85.6364 65.8123 85.5555 65.8945 85.4342C65.9767 85.3129 66.0177 85.1512 66.0177 84.9895V82.9274H66.0588Z" fill="white"/>
<path d="M67.9531 85.9186V82.0371H68.2818V85.5952H69.5142V85.9186H67.9531Z" fill="white"/>
<path d="M72.5536 84.949C72.5536 85.2725 72.4714 85.5151 72.3482 85.6768C72.1838 85.8386 71.9784 85.9194 71.6908 85.9194C71.4033 85.9194 71.1568 85.8386 71.0335 85.6768C70.9103 85.5151 70.8281 85.3129 70.8281 84.9895V82.9678C70.8281 82.8465 70.8281 82.6848 70.8692 82.5635C70.9103 82.4422 70.9514 82.3209 71.0335 82.2401C71.1157 82.1592 71.1979 82.0783 71.3211 82.0379C71.4444 81.9975 71.5676 81.957 71.7319 81.957C71.8963 81.957 72.0606 81.9975 72.1427 82.0379C72.266 82.0783 72.3481 82.1592 72.4303 82.2401C72.5125 82.3209 72.5536 82.4422 72.5946 82.5635C72.6357 82.6848 72.6357 82.8061 72.6357 82.9678V84.949H72.5536ZM72.2249 82.9274C72.2249 82.8466 72.2249 82.7657 72.1838 82.6848C72.1838 82.604 72.1427 82.5635 72.1017 82.4827C72.0606 82.4422 72.0195 82.3614 71.9373 82.3614C71.8552 82.3209 71.773 82.3209 71.6908 82.3209C71.5676 82.3209 71.4854 82.3614 71.4033 82.4018C71.3211 82.4422 71.28 82.5231 71.2389 82.5635C71.1979 82.6444 71.1568 82.7253 71.1568 82.8061C71.1568 82.887 71.1157 82.9678 71.1157 83.0487V85.0703C71.1157 85.1512 71.1157 85.2321 71.1568 85.2725C71.1979 85.3534 71.1979 85.3938 71.2389 85.4747C71.28 85.5151 71.3211 85.5555 71.4033 85.596C71.4854 85.6364 71.5676 85.6364 71.6498 85.6364C71.8552 85.6364 71.9784 85.5555 72.0606 85.4342C72.1427 85.3129 72.1838 85.1512 72.1838 84.9895V82.9274H72.2249Z" fill="white"/>
<path d="M74.935 85.9591C74.6475 85.9591 74.4421 85.8782 74.2777 85.7165C74.1134 85.5547 74.0312 85.3526 74.0312 85.0695V83.0479C74.0312 82.8862 74.0313 82.7649 74.0723 82.6436C74.1134 82.5223 74.1545 82.401 74.2367 82.3201C74.3188 82.2393 74.401 82.1584 74.5242 82.118C74.6475 82.0775 74.7707 82.0371 74.935 82.0371C75.2226 82.0371 75.428 82.118 75.5513 82.2393C75.7156 82.3606 75.7567 82.6032 75.7978 82.8458L75.4691 82.9266C75.4691 82.7245 75.428 82.5627 75.3459 82.4819C75.2637 82.401 75.1405 82.3201 74.9761 82.3201C74.894 82.3201 74.8118 82.3201 74.7296 82.3606C74.6475 82.401 74.6064 82.4414 74.5653 82.5223C74.5242 82.6032 74.4832 82.6436 74.4832 82.7245C74.4832 82.8053 74.4421 82.8862 74.4421 82.9671V85.0291C74.4421 85.11 74.4421 85.1909 74.4832 85.2313C74.4832 85.3121 74.5242 85.3526 74.5653 85.4334C74.6064 85.4739 74.6475 85.5143 74.7296 85.5547C74.8118 85.5952 74.894 85.5952 74.9761 85.5952C75.1405 85.5952 75.2637 85.5547 75.3869 85.4739C75.5102 85.393 75.5513 85.2717 75.5513 85.11V84.1396H75.0583V83.8566H75.8799V85.0695C75.8799 85.1908 75.8388 85.3526 75.7978 85.4334C75.7567 85.5547 75.6745 85.6356 75.5924 85.7165C75.5102 85.7973 75.428 85.8378 75.3048 85.8782C75.1815 85.9186 75.0583 85.9591 74.935 85.9591Z" fill="white"/>
<path d="M78.058 83.8161L78.3045 83.0479L78.6332 82.0371H79.0029C78.9618 82.118 78.9618 82.1988 78.9207 82.3201C78.8797 82.4414 78.8386 82.5627 78.7975 82.7245C78.7564 82.8862 78.6743 83.0075 78.6332 83.1692C78.5921 83.331 78.5099 83.4927 78.4688 83.614C78.4278 83.7757 78.3867 83.897 78.3456 84.0183C78.3045 84.1396 78.2634 84.2205 78.2634 84.3013V85.9591H77.9348V84.3013C77.8937 84.2609 77.8937 84.1396 77.8526 84.0183C77.8115 83.897 77.7705 83.7757 77.7294 83.614C77.6883 83.4523 77.6061 83.331 77.5651 83.1692C77.524 83.0075 77.4418 82.8458 77.4007 82.7245C77.3596 82.5627 77.3186 82.4414 77.2775 82.3201C77.2364 82.1988 77.1953 82.118 77.1953 82.0371H77.5651L77.8937 83.0479C77.8937 83.0884 77.9348 83.1288 77.9348 83.2097C77.9759 83.2905 77.9759 83.3714 78.0169 83.4522C78.058 83.5331 78.058 83.614 78.0991 83.6948C78.017 83.7353 78.058 83.7757 78.058 83.8161Z" fill="white"/>
</g>
<defs>
<clipPath id="clip0_393_281">
<rect width="79" height="86" fill="white"/>
</clipPath>
</defs>
</svg>
