<svg width="78" height="86" viewBox="0 0 78 86" fill="none" xmlns="http://www.w3.org/2000/svg">
<g clip-path="url(#clip0_343_2177)">
<path d="M53.2984 3.88152C54.3737 3.88152 55.2454 3.01262 55.2454 1.94076C55.2454 0.868909 54.3737 0 53.2984 0C52.2231 0 51.3514 0.868909 51.3514 1.94076C51.3514 3.01262 52.2231 3.88152 53.2984 3.88152Z" fill="#3AADCC"/>
<path d="M48.025 13.1003C49.1002 13.1003 49.9719 12.2314 49.9719 11.1595C49.9719 10.0877 49.1002 9.21875 48.025 9.21875C46.9497 9.21875 46.078 10.0877 46.078 11.1595C46.078 12.2314 46.9497 13.1003 48.025 13.1003Z" fill="#5D009F"/>
<path d="M28.9234 5.94354C29.9987 5.94354 30.8704 5.07463 30.8704 4.00277C30.8704 2.93092 29.9987 2.06201 28.9234 2.06201C27.8481 2.06201 26.9764 2.93092 26.9764 4.00277C26.9764 5.07463 27.8481 5.94354 28.9234 5.94354Z" fill="#3AADCC"/>
<path d="M38.8179 11.6042C39.8932 11.6042 40.7649 10.7353 40.7649 9.66342C40.7649 8.59156 39.8932 7.72266 38.8179 7.72266C37.7427 7.72266 36.871 8.59156 36.871 9.66342C36.871 10.7353 37.7427 11.6042 38.8179 11.6042Z" fill="#5D009F"/>
<path d="M30.6226 27.6154C31.6979 27.6154 32.5696 26.7465 32.5696 25.6746C32.5696 24.6028 31.6979 23.7339 30.6226 23.7339C29.5473 23.7339 28.6757 24.6028 28.6757 25.6746C28.6757 26.7465 29.5473 27.6154 30.6226 27.6154Z" fill="#3AADCC"/>
<path d="M24.7007 37.3595C25.776 37.3595 26.6477 36.4906 26.6477 35.4188C26.6477 34.3469 25.776 33.478 24.7007 33.478C23.6255 33.478 22.7538 34.3469 22.7538 35.4188C22.7538 36.4906 23.6255 37.3595 24.7007 37.3595Z" fill="#5D009F"/>
<path d="M41.6109 30.6882C42.6862 30.6882 43.5579 29.8193 43.5579 28.7474C43.5579 27.6755 42.6862 26.8066 41.6109 26.8066C40.5356 26.8066 39.6639 27.6755 39.6639 28.7474C39.6639 29.8193 40.5356 30.6882 41.6109 30.6882Z" fill="#3AADCC"/>
<path d="M51.5132 36.3488C52.5885 36.3488 53.4602 35.4799 53.4602 34.408C53.4602 33.3362 52.5885 32.4673 51.5132 32.4673C50.438 32.4673 49.5663 33.3362 49.5663 34.408C49.5663 35.4799 50.438 36.3488 51.5132 36.3488Z" fill="#5D009F"/>
<path d="M6.49227 69.1394L4.95092 68.3711C3.04453 67.4412 1.13813 66.0261 1.13813 62.7915C1.13813 59.3951 3.77464 56.5244 7.38462 56.5244C9.89944 56.5244 12.3331 57.7374 13.4689 58.546L10.9946 62.8723C10.5079 62.468 8.72316 61.5785 7.58743 61.5785C7.06013 61.5785 6.61395 61.9424 6.61395 62.5489C6.61395 63.1553 7.01957 63.3979 7.87136 63.8023L10.0617 64.8939C12.2115 65.9856 13.5906 67.6838 13.5906 70.2715C13.5906 73.9508 10.8729 76.7407 7.22237 76.7407C4.09913 76.7407 1.30038 75.2042 0.0429688 74.2743L2.84172 69.665C3.16621 69.948 5.55935 71.4845 7.26294 71.4845C7.66855 71.4845 8.15529 71.2014 8.15529 70.6354C8.11473 69.9884 7.46574 69.5841 6.49227 69.1394Z" fill="#0E0E0E"/>
<path d="M22.2279 68.0479C22.2279 69.5843 22.7146 70.5951 23.972 70.5951C25.2294 70.5951 25.7162 69.5843 25.7162 68.0479V56.8076H31.8815V68.3713C31.8815 73.1019 28.7583 76.7409 23.972 76.7409C19.1857 76.7409 16.0625 73.1424 16.0625 68.3713V56.8076H22.2279V68.0479Z" fill="#0E0E0E"/>
<path d="M55.2078 56.8076V76.2152H49.0424V73.6276C49.0424 71.9698 49.083 70.2312 49.2453 68.5735L49.1236 68.5331C48.6774 69.3417 47.9067 70.5143 47.1361 71.6059L45.3108 74.1532H45.0268L43.2827 71.6868C42.512 70.5951 41.6602 69.3013 41.2141 68.5331L41.0924 68.5735C41.2546 69.8673 41.2952 71.8485 41.2952 73.385V76.2557H35.2109V56.8481H40.1595L45.1485 63.8024H45.2702L50.2593 56.8481H55.2078V56.8076Z" fill="#0E0E0E"/>
<path d="M67.9836 56.5649C73.6216 56.5649 78.0023 61.053 78.0023 66.6731C78.0023 72.2932 73.6216 76.7812 67.9836 76.7812C62.3455 76.7812 57.9648 72.2932 57.9648 66.6731C57.9648 61.053 62.3455 56.5649 67.9836 56.5649ZM67.9836 70.595C70.1333 70.595 71.8369 68.8969 71.8369 66.6731C71.8369 64.4089 70.1333 62.7511 67.9836 62.7511C65.8338 62.7511 64.1302 64.4493 64.1302 66.6731C64.1302 68.8969 65.7932 70.595 67.9836 70.595Z" fill="#0E0E0E"/>
<path d="M1.0546 82.3611V85.9191H0.689548V82.3611H0V82.0376H1.74415V82.3611H1.0546Z" fill="#0E0E0E"/>
<path d="M4.25828 85.9191L4.05547 84.9892H3.08199L2.87918 85.9191H2.55469L3.40648 82.0376H3.77154L4.62333 85.9191H4.25828ZM3.56873 82.6037L3.36592 83.5336L3.12255 84.6657H3.97434L3.73097 83.5336L3.56873 82.6037Z" fill="#0E0E0E"/>
<path d="M5.88281 85.9191V82.0376H6.20731V85.5957H7.42415V85.9191H5.88281Z" fill="#0E0E0E"/>
<path d="M8.72266 85.9191V82.0376H10.3451V82.3611H9.04715V83.7762H10.1829V84.0997H9.04715V85.5957H10.3451V85.9191H8.72266Z" fill="#0E0E0E"/>
<path d="M12.0042 82.9674V85.8786H11.6797V81.9971H12.0042C12.0447 82.0375 12.0447 82.1184 12.0853 82.2397C12.1259 82.361 12.1664 82.4418 12.2476 82.6036C12.2881 82.7249 12.3692 82.8462 12.4098 83.0079C12.4504 83.1292 12.5315 83.2909 12.572 83.4122C12.6126 83.5335 12.6937 83.6548 12.7343 83.7761C12.7749 83.8974 12.8154 83.9783 12.856 84.0187L13.2616 84.9891H13.3022V82.0375H13.6266V85.919H13.3022C13.2616 85.8786 13.2616 85.7977 13.221 85.6764C13.1805 85.5551 13.1399 85.4743 13.0588 85.3125C13.0182 85.1912 12.9371 85.0699 12.8965 84.9082C12.856 84.7869 12.7749 84.6252 12.7343 84.5039C12.6937 84.3826 12.6126 84.2613 12.572 84.1804C12.5315 84.0591 12.4909 84.0187 12.4909 83.9378L12.0042 82.9674Z" fill="#0E0E0E"/>
<path d="M15.9023 82.3611V85.9191H15.5372V82.3611H14.8477V82.0376H16.5918V82.3611H15.9023Z" fill="#0E0E0E"/>
<path d="M17.7266 85.919V85.5146H18.1322V85.919H17.7266Z" fill="#0E0E0E"/>
<path d="M20.3202 82.3611V85.9191H19.9552V82.3611H19.2656V82.0376H21.0098V82.3611H20.3202Z" fill="#0E0E0E"/>
<path d="M22.3086 85.9191V82.0376H23.9311V82.3611H22.6331V83.7762H23.7688V84.0997H22.6331V85.5957H23.9311V85.9191H22.3086Z" fill="#0E0E0E"/>
<path d="M26.0832 81.9971C26.3671 81.9971 26.5699 82.0779 26.7322 82.2397C26.8944 82.4014 26.9755 82.6036 26.9755 82.8866L26.6105 82.9674C26.6105 82.7653 26.5699 82.6036 26.4888 82.5227C26.4077 82.4014 26.286 82.361 26.1237 82.361C26.0426 82.361 25.9615 82.361 25.8804 82.4014C25.7992 82.4418 25.7587 82.4823 25.7181 82.5631C25.6776 82.644 25.637 82.6844 25.637 82.7653C25.637 82.8462 25.5964 82.927 25.5964 83.0079V85.0699C25.5964 85.1508 25.5964 85.2317 25.637 85.2721C25.637 85.353 25.6776 85.3934 25.7181 85.4743C25.7587 85.5147 25.7992 85.5551 25.8804 85.5956C25.9615 85.636 26.0426 85.636 26.1237 85.636C26.286 85.636 26.4077 85.5956 26.4888 85.4743C26.5699 85.3934 26.6105 85.2317 26.651 85.0295L27.0161 85.1104C27.0161 85.3934 26.935 85.5956 26.7727 85.7573C26.6105 85.919 26.4077 85.9595 26.1643 85.9595C25.8804 85.9595 25.6776 85.8786 25.5153 85.7169C25.3531 85.5551 25.3125 85.353 25.3125 85.0699V83.0483C25.3125 82.927 25.3125 82.7653 25.3531 82.644C25.3936 82.5227 25.4342 82.4014 25.5153 82.3205C25.5964 82.2397 25.6776 82.1588 25.7992 82.1184C25.7992 82.0375 25.9209 81.9971 26.0832 81.9971Z" fill="#0E0E0E"/>
<path d="M29.7697 85.9191V84.0997H28.7151V85.9191H28.3906V82.0376H28.7151V83.7762H29.7697V82.0376H30.0942V85.9191H29.7697Z" fill="#0E0E0E"/>
<path d="M31.9612 82.9674V85.8786H31.6367V81.9971H31.9612C32.0018 82.0375 32.0018 82.1184 32.0423 82.2397C32.0829 82.361 32.1235 82.4418 32.2046 82.6036C32.2451 82.7249 32.3263 82.8462 32.3668 83.0079C32.4074 83.1292 32.4885 83.2909 32.5291 83.4122C32.5696 83.5335 32.6508 83.6548 32.6913 83.7761C32.7319 83.8974 32.7724 83.9783 32.813 84.0187L33.2186 84.9891H33.2592V82.0375H33.5837V85.919H33.2592C33.2186 85.8786 33.2186 85.7977 33.1781 85.6764C33.1375 85.5551 33.0969 85.4743 33.0158 85.3125C32.9753 85.1912 32.8941 85.0699 32.8536 84.9082C32.813 84.7869 32.7319 84.6252 32.6913 84.5039C32.6508 84.3826 32.5696 84.2613 32.5291 84.1804C32.4885 84.0591 32.448 84.0187 32.448 83.9378L31.9612 82.9674Z" fill="#0E0E0E"/>
<path d="M35.125 85.9191V82.0376H35.4901V85.9191H35.125Z" fill="#0E0E0E"/>
<path d="M38.7754 84.949C38.7754 85.1916 38.7348 85.3938 38.6537 85.5151L38.9782 85.7577L38.816 85.9599L38.4915 85.7173C38.3698 85.8386 38.167 85.9194 37.883 85.9194C37.5991 85.9194 37.3557 85.8386 37.2341 85.6768C37.0718 85.5151 37.0313 85.3129 37.0313 84.9895V82.9678C37.0313 82.8465 37.0312 82.6848 37.0718 82.5635C37.1124 82.4422 37.1529 82.3209 37.2341 82.2401C37.3152 82.1592 37.3963 82.0783 37.518 82.0379C37.6397 81.9975 37.7614 81.957 37.9236 81.957C38.0859 81.957 38.2481 81.9975 38.3292 82.0379C38.4509 82.0783 38.532 82.1592 38.6132 82.2401C38.6943 82.3209 38.7348 82.4422 38.7754 82.5635C38.816 82.6848 38.816 82.8061 38.816 82.9678V84.949H38.7754ZM38.4103 82.9274C38.4103 82.8466 38.4103 82.7657 38.3698 82.6848C38.3698 82.604 38.3292 82.5635 38.2887 82.4827C38.2481 82.4422 38.2075 82.3614 38.1264 82.3614C38.0453 82.3209 37.9642 82.3209 37.883 82.3209C37.7614 82.3209 37.6802 82.3614 37.5991 82.4018C37.518 82.4422 37.4774 82.5231 37.4369 82.5635C37.3963 82.6444 37.3557 82.7253 37.3557 82.8061C37.3557 82.887 37.3152 82.9678 37.3152 83.0487V85.0703C37.3152 85.1512 37.3152 85.2321 37.3557 85.2725C37.3963 85.3534 37.3963 85.3938 37.4369 85.4747C37.4774 85.5151 37.518 85.5555 37.5991 85.596C37.6802 85.6364 37.7614 85.6364 37.8425 85.6364C37.9642 85.6364 38.0859 85.596 38.167 85.5555L37.8019 85.2725L37.9642 85.0703L38.2887 85.3129C38.2887 85.2725 38.3292 85.2321 38.3292 85.1512C38.3292 85.1108 38.3292 85.0299 38.3292 84.9895V82.9274H38.4103Z" fill="#0E0E0E"/>
<path d="M41.9811 82.0374V84.9486C41.9811 85.272 41.8999 85.5146 41.7782 85.6763C41.616 85.8381 41.4132 85.9189 41.1293 85.9189C40.8453 85.9189 40.602 85.8381 40.4803 85.6763C40.3586 85.5146 40.2775 85.3124 40.2775 84.989V81.997H40.602V84.989C40.602 85.0698 40.602 85.1507 40.6425 85.1911C40.6831 85.272 40.6831 85.3124 40.7236 85.3933C40.7642 85.4337 40.8048 85.4742 40.8859 85.5146C40.967 85.555 41.0481 85.555 41.1293 85.555C41.3321 85.555 41.4538 85.4742 41.5349 85.3529C41.616 85.2316 41.6566 85.0698 41.6566 84.9081V81.9565H41.9811V82.0374Z" fill="#0E0E0E"/>
<path d="M43.4844 85.9191V82.0376H45.1068V82.3611H43.8089V83.7762H44.9446V84.0997H43.8089V85.5957H45.1068V85.9191H43.4844Z" fill="#0E0E0E"/>
<path d="M46.7266 85.919V85.5146H47.1322V85.919H46.7266Z" fill="#0E0E0E"/>
<path d="M49.121 82.3611V85.9191H48.756V82.3611H48.0664V82.0376H49.8106V82.3611H49.121Z" fill="#0E0E0E"/>
<path d="M51.0664 85.9191V82.0376H52.6889V82.3611H51.3909V83.7762H52.5266V84.0997H51.3909V85.5957H52.6889V85.9191H51.0664Z" fill="#0E0E0E"/>
<path d="M54.88 81.9971C55.164 81.9971 55.3668 82.0779 55.529 82.2397C55.6913 82.4014 55.7724 82.6036 55.7724 82.8866L55.4074 82.9674C55.4074 82.7653 55.3668 82.6036 55.2857 82.5227C55.2045 82.4014 55.0829 82.361 54.9206 82.361C54.8395 82.361 54.7584 82.361 54.6772 82.4014C54.5961 82.4418 54.5556 82.4823 54.515 82.5631C54.4744 82.644 54.4339 82.6844 54.4339 82.7653C54.4339 82.8462 54.3933 82.927 54.3933 83.0079V85.0699C54.3933 85.1508 54.3933 85.2317 54.4339 85.2721C54.4339 85.353 54.4744 85.3934 54.515 85.4743C54.5556 85.5147 54.5961 85.5551 54.6772 85.5956C54.7584 85.636 54.8395 85.636 54.9206 85.636C55.0829 85.636 55.2045 85.5956 55.2857 85.4743C55.3668 85.3934 55.4073 85.2317 55.4479 85.0295L55.813 85.1104C55.813 85.3934 55.7318 85.5956 55.5696 85.7573C55.4073 85.919 55.2045 85.9595 54.9612 85.9595C54.6772 85.9595 54.4744 85.8786 54.3122 85.7169C54.1499 85.5551 54.1094 85.353 54.1094 85.0699V83.0483C54.1094 82.927 54.1094 82.7653 54.1499 82.644C54.1905 82.5227 54.2311 82.4014 54.3122 82.3205C54.3933 82.2397 54.4744 82.1588 54.5961 82.1184C54.5556 82.0375 54.7178 81.9971 54.88 81.9971Z" fill="#0E0E0E"/>
<path d="M58.5314 85.9191V84.0997H57.4768V85.9191H57.1523V82.0376H57.4768V83.7762H58.5314V82.0376H58.8559V85.9191H58.5314Z" fill="#0E0E0E"/>
<path d="M60.7581 82.9674V85.8786H60.4336V81.9971H60.7581C60.7986 82.0375 60.7986 82.1184 60.8392 82.2397C60.8798 82.361 60.9203 82.4418 61.0015 82.6036C61.042 82.7249 61.1231 82.8462 61.1637 83.0079C61.2043 83.1292 61.2854 83.2909 61.3259 83.4122C61.3665 83.5335 61.4476 83.6548 61.4882 83.7761C61.5288 83.8974 61.5693 83.9783 61.6099 84.0187L62.0155 84.9891H62.0561V82.0375H62.3806V85.919H62.0561C62.0155 85.8786 62.0155 85.7977 61.9749 85.6764C61.9344 85.5551 61.8938 85.4743 61.8127 85.3125C61.7721 85.1912 61.691 85.0699 61.6504 84.9082C61.6099 84.7869 61.5288 84.6252 61.4882 84.5039C61.4476 84.3826 61.3665 84.2613 61.3259 84.1804C61.2854 84.0591 61.2448 84.0187 61.2448 83.9378L60.7581 82.9674Z" fill="#0E0E0E"/>
<path d="M65.5864 84.949C65.5864 85.2725 65.5053 85.5151 65.3836 85.6768C65.2213 85.8386 65.0185 85.9194 64.7346 85.9194C64.4507 85.9194 64.2073 85.8386 64.0856 85.6768C63.9234 85.5151 63.8828 85.3129 63.8828 84.9895V82.9678C63.8828 82.8465 63.8828 82.6848 63.9234 82.5635C63.9639 82.4422 64.0045 82.3209 64.0856 82.2401C64.1667 82.1592 64.2479 82.0783 64.3696 82.0379C64.4912 81.9975 64.6129 81.957 64.7752 81.957C64.9374 81.957 65.0997 81.9975 65.1808 82.0379C65.3025 82.0783 65.3836 82.1592 65.4647 82.2401C65.5458 82.3209 65.5864 82.4422 65.627 82.5635C65.6675 82.6848 65.6675 82.8061 65.6675 82.9678V84.949H65.5864ZM65.2213 82.9274C65.2213 82.8466 65.2213 82.7657 65.1808 82.6848C65.1808 82.604 65.1402 82.5635 65.0997 82.4827C65.0591 82.4422 65.0185 82.3614 64.9374 82.3614C64.8563 82.3209 64.7752 82.3209 64.694 82.3209C64.5724 82.3209 64.4912 82.3614 64.4101 82.4018C64.329 82.4422 64.2884 82.5231 64.2479 82.5635C64.2073 82.6444 64.1667 82.7253 64.1667 82.8061C64.1667 82.887 64.1262 82.9678 64.1262 83.0487V85.0703C64.1262 85.1512 64.1262 85.2321 64.1667 85.2725C64.2073 85.3534 64.2073 85.3938 64.2479 85.4747C64.2884 85.5151 64.329 85.5555 64.4101 85.596C64.4912 85.6364 64.5724 85.6364 64.6535 85.6364C64.8563 85.6364 64.978 85.5555 65.0591 85.4342C65.1402 85.3129 65.1808 85.1512 65.1808 84.9895V82.9274H65.2213Z" fill="#0E0E0E"/>
<path d="M67.09 85.9191V82.0376H67.4145V85.5957H68.6313V85.9191H67.09Z" fill="#0E0E0E"/>
<path d="M71.6294 84.949C71.6294 85.2725 71.5483 85.5151 71.4266 85.6768C71.2643 85.8386 71.0615 85.9194 70.7776 85.9194C70.4936 85.9194 70.2503 85.8386 70.1286 85.6768C70.0069 85.5151 69.9258 85.3129 69.9258 84.9895V82.9678C69.9258 82.8465 69.9258 82.6848 69.9663 82.5635C70.0069 82.4422 70.0475 82.3209 70.1286 82.2401C70.2097 82.1592 70.2908 82.0783 70.4125 82.0379C70.5342 81.9975 70.6559 81.957 70.8181 81.957C70.9804 81.957 71.1426 81.9975 71.2238 82.0379C71.3454 82.0783 71.4266 82.1592 71.5077 82.2401C71.5888 82.3209 71.6294 82.4422 71.6699 82.5635C71.7105 82.6848 71.7105 82.8061 71.7105 82.9678V84.949H71.6294ZM71.3049 82.9274C71.3049 82.8466 71.3049 82.7657 71.2643 82.6848C71.2643 82.604 71.2238 82.5635 71.1832 82.4827C71.1426 82.4422 71.1021 82.3614 71.021 82.3614C70.9398 82.3209 70.8587 82.3209 70.7776 82.3209C70.6559 82.3209 70.5748 82.3614 70.4936 82.4018C70.4125 82.4422 70.372 82.5231 70.3314 82.5635C70.2908 82.6444 70.2503 82.7253 70.2503 82.8061C70.2503 82.887 70.2097 82.9678 70.2097 83.0487V85.0703C70.2097 85.1512 70.2097 85.2321 70.2503 85.2725C70.2908 85.3534 70.2908 85.3938 70.3314 85.4747C70.372 85.5151 70.4125 85.5555 70.4936 85.596C70.5748 85.6364 70.6559 85.6364 70.737 85.6364C70.9398 85.6364 71.0615 85.5555 71.1426 85.4342C71.2238 85.3129 71.2643 85.1512 71.2643 84.9895V82.9274H71.3049Z" fill="#0E0E0E"/>
<path d="M73.9822 85.9596C73.6983 85.9596 73.4955 85.8787 73.3332 85.717C73.171 85.5552 73.0898 85.3531 73.0898 85.07V83.0484C73.0898 82.8867 73.0898 82.7654 73.1304 82.6441C73.171 82.5228 73.2115 82.4015 73.2927 82.3206C73.3738 82.2398 73.4549 82.1589 73.5766 82.1185C73.6983 82.078 73.82 82.0376 73.9822 82.0376C74.2661 82.0376 74.4689 82.1185 74.5906 82.2398C74.7529 82.3611 74.7934 82.6037 74.834 82.8462L74.5095 82.9271C74.5095 82.725 74.4689 82.5632 74.3878 82.4824C74.3067 82.4015 74.185 82.3206 74.0228 82.3206C73.9416 82.3206 73.8605 82.3206 73.7794 82.3611C73.6983 82.4015 73.6577 82.4419 73.6171 82.5228C73.5766 82.6037 73.536 82.6441 73.536 82.725C73.536 82.8058 73.4955 82.8867 73.4955 82.9675V85.0296C73.4955 85.1105 73.4955 85.1913 73.536 85.2318C73.536 85.3126 73.5766 85.3531 73.6171 85.4339C73.6577 85.4744 73.6983 85.5148 73.7794 85.5552C73.8605 85.5957 73.9416 85.5957 74.0228 85.5957C74.185 85.5957 74.3067 85.5552 74.4284 85.4744C74.5501 85.3935 74.5906 85.2722 74.5906 85.1105V84.1401H74.1039V83.8571H74.9151V85.07C74.9151 85.1913 74.8746 85.3531 74.834 85.4339C74.7934 85.5552 74.7123 85.6361 74.6312 85.717C74.5501 85.7978 74.4689 85.8383 74.3473 85.8787C74.2256 85.9191 74.1039 85.9596 73.9822 85.9596Z" fill="#0E0E0E"/>
<path d="M77.0666 83.8166L77.31 83.0484L77.6345 82.0376H77.9996C77.959 82.1185 77.959 82.1993 77.9184 82.3206C77.8779 82.4419 77.8373 82.5632 77.7968 82.725C77.7562 82.8867 77.6751 83.008 77.6345 83.1697C77.5939 83.3314 77.5128 83.4932 77.4723 83.6145C77.4317 83.7762 77.3911 83.8975 77.3506 84.0188C77.31 84.1401 77.2694 84.221 77.2694 84.3018V85.9596H76.945V84.3018C76.9044 84.2614 76.9044 84.1401 76.8638 84.0188C76.8233 83.8975 76.7827 83.7762 76.7421 83.6145C76.7016 83.4527 76.6205 83.3314 76.5799 83.1697C76.5393 83.008 76.4582 82.8463 76.4177 82.725C76.3771 82.5632 76.3365 82.4419 76.296 82.3206C76.2554 82.1993 76.2148 82.1185 76.2148 82.0376H76.5799L76.9044 83.0484C76.9044 83.0888 76.945 83.1293 76.945 83.2101C76.9855 83.291 76.9855 83.3719 77.0261 83.4527C77.0666 83.5336 77.0666 83.6145 77.1072 83.6953C77.0261 83.7358 77.0666 83.7762 77.0666 83.8166Z" fill="#0E0E0E"/>
</g>
<defs>
<clipPath id="clip0_343_2177">
<rect width="78" height="86" fill="white"/>
</clipPath>
</defs>
</svg>
