<svg width="24" height="24" viewBox="0 0 24 24" fill="none" xmlns="http://www.w3.org/2000/svg">
<path d="M18.7766 19.625L14.875 15.7C14.375 16.1333 13.7958 16.4708 13.1375 16.7125C12.4792 16.9542 11.7917 17.075 11.075 17.075C9.375 17.075 7.9375 16.4875 6.7625 15.3125C5.5875 14.1375 5 12.7083 5 11.025C5 9.35833 5.5875 7.9375 6.7625 6.7625C7.9375 5.5875 9.36667 5 11.05 5C12.7333 5 14.1625 5.5875 15.3375 6.7625C16.5125 7.9375 17.1 9.35833 17.1 11.025C17.1 11.725 16.9792 12.4083 16.7375 13.075C16.4958 13.7417 16.15 14.3417 15.7 14.875L19.6266 18.825C19.7432 18.9417 19.8016 19.075 19.8016 19.225C19.8016 19.375 19.7349 19.5083 19.6016 19.625C19.4849 19.7583 19.3432 19.825 19.1766 19.825C19.0099 19.825 18.8766 19.7583 18.7766 19.625ZM11.075 15.95C12.425 15.95 13.575 15.4708 14.525 14.5125C15.475 13.5542 15.95 12.3917 15.95 11.025C15.95 9.65833 15.475 8.5 14.525 7.55C13.575 6.6 12.425 6.125 11.075 6.125C9.69167 6.125 8.525 6.6 7.575 7.55C6.625 8.5 6.15 9.65833 6.15 11.025C6.15 12.3917 6.625 13.5542 7.575 14.5125C8.525 15.4708 9.69167 15.95 11.075 15.95Z" fill="white"/>
</svg>
