<svg width="1866" height="1189" viewBox="0 0 1866 1189" fill="none" xmlns="http://www.w3.org/2000/svg">

<g class="buble">
    <path opacity="0.6" d="M351.276 1079.9C344.735 1080.57 338.889 1075.82 338.217 1069.28C337.546 1062.74 342.304 1056.89 348.844 1056.22C355.385 1055.55 361.231 1060.3 361.903 1066.84C362.574 1073.38 357.816 1079.23 351.276 1079.9Z" fill="#3AADCC"/>
</g>
<g class="buble">
    <path opacity="0.6" d="M134.861 59.5961C140.861 62.2849 147.905 59.6008 150.594 53.6009C153.283 47.601 150.599 40.5574 144.599 37.8685C138.599 35.1797 131.555 37.8638 128.866 43.8637C126.177 49.8636 128.862 56.9072 134.861 59.5961Z" fill="#3AADCC"/>
</g>
<g class="buble">
    <path opacity="0.6" d="M1816.45 333.815C1824.98 337.639 1834.99 333.822 1838.82 325.291C1842.64 316.76 1838.82 306.746 1830.29 302.922C1821.76 299.099 1811.75 302.916 1807.92 311.447C1804.1 319.978 1807.92 329.992 1816.45 333.815Z" fill="#5D009F"/>
</g>
<g class="buble">
    <path opacity="0.6" d="M1815.48 71.191C1819.62 71.8567 1823.52 69.0418 1824.18 64.9036C1824.85 60.7655 1822.03 56.8712 1817.9 56.2054C1813.76 55.5397 1809.86 58.3547 1809.2 62.4928C1808.53 66.6309 1811.35 70.5252 1815.48 71.191Z" fill="#3AADCC"/>
</g>
<g class="buble">
    <path opacity="0.6" d="M8.48814 564.191C12.6263 564.857 16.5206 562.042 17.1863 557.903C17.8521 553.765 15.0371 549.871 10.899 549.205C6.76087 548.54 2.86656 551.354 2.20082 555.493C1.53508 559.631 4.35001 563.525 8.48814 564.191Z" fill="#3AADCC"/>
</g>
<g class="buble">
    <path opacity="0.6" d="M1853.49 817.18C1857.62 817.845 1861.51 815.032 1862.18 810.897C1862.84 806.761 1860.03 802.87 1855.89 802.204C1851.76 801.539 1847.87 804.352 1847.2 808.487C1846.54 812.623 1849.35 816.514 1853.49 817.18Z" fill="#5D009F"/>
</g>
<g class="buble">
    <path opacity="0.6" d="M1147 12.9528C1150.31 13.4853 1153.42 11.2334 1153.95 7.9229C1154.49 4.61239 1152.23 1.49694 1148.92 0.964346C1145.61 0.431753 1142.5 2.6837 1141.97 5.9942C1141.43 9.30471 1143.69 12.4202 1147 12.9528Z" fill="#5D009F"/>
</g>
<g class="buble">
    <path opacity="0.6" d="M1687.36 44.2249C1692.53 45.0565 1697.4 41.5402 1698.23 36.3711C1699.06 31.2019 1695.54 26.3374 1690.38 25.5058C1685.21 24.6741 1680.34 28.1904 1679.51 33.3595C1678.68 38.5287 1682.2 43.3932 1687.36 44.2249Z" fill="#3AADCC"/>
</g>
<g class="buble">
    <path opacity="0.6" d="M67.4881 894.191C71.6263 894.857 75.5206 892.042 76.1863 887.903C76.8521 883.765 74.0371 879.871 69.899 879.205C65.7609 878.54 61.8666 881.354 61.2008 885.493C60.5351 889.631 63.35 893.525 67.4881 894.191Z" fill="#3AADCC"/>
</g>
<g class="buble">
    <path opacity="0.6" d="M1855.48 660.191C1851.35 659.525 1848.53 655.631 1849.2 651.493C1849.86 647.354 1853.76 644.539 1857.9 645.205C1862.03 645.871 1864.85 649.765 1864.18 653.903C1863.52 658.042 1859.62 660.856 1855.48 660.191Z" fill="#3AADCC"/>
</g>
<g class="buble">
    <path opacity="0.6" d="M1573.86 270.596C1579.86 273.285 1586.9 270.6 1589.59 264.601C1592.28 258.601 1589.6 251.557 1583.6 248.868C1577.6 246.179 1570.55 248.864 1567.87 254.863C1565.18 260.863 1567.86 267.907 1573.86 270.596Z" fill="#3AADCC"/>
</g>
<g class="buble">
    <path opacity="0.6" d="M617.622 560.135C620.723 560.634 623.642 558.524 624.141 555.422C624.64 552.321 622.53 549.402 619.428 548.903C616.327 548.404 613.408 550.514 612.909 553.616C612.41 556.717 614.52 559.636 617.622 560.135Z" fill="#5D009F"/>
</g>
<g class="buble">
    <g filter="url(#filter0_f_8_2)">
    <path d="M1670.49 1178.15C1663.04 1176.95 1657.97 1169.94 1659.17 1162.49C1660.37 1155.04 1667.38 1149.97 1674.83 1151.17C1682.28 1152.37 1687.35 1159.38 1686.15 1166.83C1684.95 1174.28 1677.94 1179.35 1670.49 1178.15Z" fill="#3AADCC" fill-opacity="0.8"/>
    </g>
</g>
<g class="buble">
    <g filter="url(#filter1_f_8_2)">
    <path d="M251.491 231.144C258.94 232.342 265.95 227.275 267.148 219.827C268.346 212.378 263.279 205.368 255.831 204.17C248.382 202.972 241.372 208.039 240.174 215.487C238.976 222.936 244.043 229.946 251.491 231.144Z" fill="#3AADCC" fill-opacity="0.49"/>
    </g>
</g>
<defs>
<filter id="filter0_f_8_2" x="1649" y="1141" width="47.3249" height="47.3249" filterUnits="userSpaceOnUse" color-interpolation-filters="sRGB">
<feFlood flood-opacity="0" result="BackgroundImageFix"/>
<feBlend mode="normal" in="SourceGraphic" in2="BackgroundImageFix" result="shape"/>
<feGaussianBlur stdDeviation="5" result="effect1_foregroundBlur_8_2"/>
</filter>
<filter id="filter1_f_8_2" x="229.999" y="193.995" width="47.3249" height="47.3249" filterUnits="userSpaceOnUse" color-interpolation-filters="sRGB">
<feFlood flood-opacity="0" result="BackgroundImageFix"/>
<feBlend mode="normal" in="SourceGraphic" in2="BackgroundImageFix" result="shape"/>
<feGaussianBlur stdDeviation="5" result="effect1_foregroundBlur_8_2"/>
</filter>
<clipPath id="clip0_8_2">
<rect width="1866" height="1189" fill="white"/>
</clipPath>
</defs>
</svg>
