<svg width="35" height="34" viewBox="0 0 35 34" fill="none" xmlns="http://www.w3.org/2000/svg">
<g class="js-circle">
    <path d="M10.2816 23C13.5162 23 16.1384 20.3137 16.1384 17C16.1384 13.6863 13.5162 11 10.2816 11C7.04698 11 4.4248 13.6863 4.4248 17C4.4248 20.3137 7.04698 23 10.2816 23Z" fill="#5D009F"/>
</g>
<g class="js-circle">
    <g filter="url(#filter0_f_21_26)">
    <path d="M12.234 21C9.53844 21 7.35329 18.7614 7.35329 16C7.35329 13.2386 9.53844 11 12.234 11C14.9295 11 17.1146 13.2386 17.1146 16C17.1146 18.7614 14.9295 21 12.234 21Z" fill="#5D009F"/>
    </g>
</g>
<g class="js-circle">
    <g filter="url(#filter1_f_21_26)">
    <path d="M18.0908 25C13.2388 25 9.30557 20.9706 9.30557 16C9.30557 11.0294 13.2388 7 18.0908 7C22.9427 7 26.876 11.0294 26.876 16C26.876 20.9706 22.9427 25 18.0908 25Z" fill="#3AADCC"/>
    </g>
</g>
<g class="js-circle">
    <path opacity="0.6" d="M14.1861 20C11.4906 20 9.30544 17.7614 9.30544 15C9.30544 12.2386 11.4906 10 14.1861 10C16.8816 10 19.0668 12.2386 19.0668 15C19.0668 17.7614 16.8816 20 14.1861 20Z" fill="#5D009F"/>
</g>
<g class="js-circle">
    <path opacity="0.6" d="M14.1861 23C11.4906 23 9.30544 20.7614 9.30544 18C9.30544 15.2386 11.4906 13 14.1861 13C16.8816 13 19.0668 15.2386 19.0668 18C19.0668 20.7614 16.8816 23 14.1861 23Z" fill="#3AADCC"/>
</g>
<g class="js-circle">
    <path d="M16.6265 10C12.5832 10 9.3055 13.3579 9.3055 17.5C9.3055 21.6421 12.5832 25 16.6265 25C20.6698 25 23.9475 21.6421 23.9475 17.5C23.9475 13.3579 20.6698 10 16.6265 10Z" fill="#5D009F"/>
</g>
<g class="js-circle">
    <path d="M10.7696 8C6.18725 8 2.4725 11.8056 2.4725 16.5C2.4725 21.1944 6.18725 25 10.7696 25C15.352 25 19.0668 21.1944 19.0668 16.5C19.0668 11.8056 15.352 8 10.7696 8Z" fill="#3AADCC"/>
</g>
<g class="js-circle">
    <path opacity="0.6" d="M13.2071 20.4764C14.8229 20.7427 16.3434 19.6167 16.6034 17.9614C16.8633 16.3062 15.7642 14.7485 14.1485 14.4822C12.5327 14.2159 11.0122 15.3418 10.7522 16.9971C10.4923 18.6524 11.5914 20.2101 13.2071 20.4764Z" fill="#3AADCC"/>
</g>
<g class="js-circle">
    <path opacity="0.6" d="M15.7633 21.1349C18.7908 21.6339 21.6399 19.5241 22.1269 16.4226C22.614 13.3212 20.5546 10.4024 17.5271 9.90346C14.4997 9.40449 11.6506 11.5143 11.1635 14.6157C10.6765 17.7172 12.7359 20.636 15.7633 21.1349Z" fill="#5D009F"/>
</g>
<g class="js-circle">
    <path d="M14.1862 24C16.8817 24 19.0669 21.7614 19.0669 19C19.0669 16.2386 16.8817 14 14.1862 14C11.4907 14 9.30554 16.2386 9.30554 19C9.30554 21.7614 11.4907 24 14.1862 24Z" fill="#5D009F"/>
</g>
<g class="js-circle">
    <path d="M18.0906 22C20.7861 22 22.9713 19.7614 22.9713 17C22.9713 14.2386 20.7861 12 18.0906 12C15.3951 12 13.21 14.2386 13.21 17C13.21 19.7614 15.3951 22 18.0906 22Z" fill="#5D009F"/>
</g>
<g class="js-circle">
    <g filter="url(#filter2_f_21_26)">
    <path d="M15.1623 23C12.4668 23 10.2816 20.7614 10.2816 18C10.2816 15.2386 12.4668 13 15.1623 13C17.8578 13 20.043 15.2386 20.043 18C20.043 20.7614 17.8578 23 15.1623 23Z" fill="#5D009F"/>
    </g>
</g>
<g class="js-circle">
    <g filter="url(#filter3_f_21_26)">
    <path d="M15.1623 23C12.4668 23 10.2816 20.7614 10.2816 18C10.2816 15.2386 12.4668 13 15.1623 13C17.8578 13 20.043 15.2386 20.043 18C20.043 20.7614 17.8578 23 15.1623 23Z" fill="#5D009F"/>
    </g>
</g>
<g class="js-circle">
    <path opacity="0.6" d="M13.21 22C10.5145 22 8.32936 19.7614 8.32936 17C8.32936 14.2386 10.5145 12 13.21 12C15.9055 12 18.0907 14.2386 18.0907 17C18.0907 19.7614 15.9055 22 13.21 22Z" fill="#3AADCC"/>
</g>
<g class="js-circle">
    <path opacity="0.6" d="M16.7594 24.1822C12.6751 25.3034 8.47689 22.8203 7.38251 18.6361C6.28812 14.452 8.71193 10.1512 12.7962 9.03001C16.8805 7.90887 21.0787 10.3919 22.1731 14.5761C23.2675 18.7603 20.8437 23.0611 16.7594 24.1822Z" fill="#5D009F"/>
</g>
<g class="js-circle">
    <path opacity="0.6" d="M16.7594 24.1822C12.6751 25.3034 8.47689 22.8203 7.38251 18.6361C6.28812 14.452 8.71193 10.1512 12.7962 9.03001C16.8805 7.90887 21.0787 10.3919 22.1731 14.5761C23.2675 18.7603 20.8437 23.0611 16.7594 24.1822Z" fill="#3AADCC"/>
</g>

<defs>
<filter id="filter0_f_21_26" x="-2.64673" y="1" width="29.7614" height="30" filterUnits="userSpaceOnUse" color-interpolation-filters="sRGB">
<feFlood flood-opacity="0" result="BackgroundImageFix"/>
<feBlend mode="normal" in="SourceGraphic" in2="BackgroundImageFix" result="shape"/>
<feGaussianBlur stdDeviation="5" result="effect1_foregroundBlur_21_26"/>
</filter>
<filter id="filter1_f_21_26" x="-0.694458" y="-3" width="37.5704" height="38" filterUnits="userSpaceOnUse" color-interpolation-filters="sRGB">
<feFlood flood-opacity="0" result="BackgroundImageFix"/>
<feBlend mode="normal" in="SourceGraphic" in2="BackgroundImageFix" result="shape"/>
<feGaussianBlur stdDeviation="5" result="effect1_foregroundBlur_21_26"/>
</filter>
<filter id="filter2_f_21_26" x="0.281616" y="3" width="29.7614" height="30" filterUnits="userSpaceOnUse" color-interpolation-filters="sRGB">
<feFlood flood-opacity="0" result="BackgroundImageFix"/>
<feBlend mode="normal" in="SourceGraphic" in2="BackgroundImageFix" result="shape"/>
<feGaussianBlur stdDeviation="5" result="effect1_foregroundBlur_21_26"/>
</filter>
<filter id="filter3_f_21_26" x="0.281616" y="3" width="29.7614" height="30" filterUnits="userSpaceOnUse" color-interpolation-filters="sRGB">
<feFlood flood-opacity="0" result="BackgroundImageFix"/>
<feBlend mode="normal" in="SourceGraphic" in2="BackgroundImageFix" result="shape"/>
<feGaussianBlur stdDeviation="5" result="effect1_foregroundBlur_21_26"/>
</filter>
<clipPath id="clip0_21_26">
<rect width="35" height="34" fill="white"/>
</clipPath>
</defs>
</svg>
