<svg viewBox="0 0 1165 458" fill="none" xmlns="http://www.w3.org/2000/svg">

<g class="buble">
    <g filter="url(#filter0_f_13_2)">
        <path d="M279 282C276.239 282 274 279.761 274 277C274 274.239 276.239 272 279 272C281.761 272 284 274.239 284 277C284 279.761 281.761 282 279 282Z" fill="#5D009F"/>
    </g>
</g>
<g class="buble">
    <g filter="url(#filter1_f_13_2)">
        <path d="M948 340C943.029 340 939 335.971 939 331C939 326.029 943.029 322 948 322C952.971 322 957 326.029 957 331C957 335.971 952.971 340 948 340Z" fill="#5D009F"/>
    </g>
</g>
<g class="buble">
    <g filter="url(#filter2_f_13_2)">
        <path d="M87 326C82.0294 326 78 321.971 78 317C78 312.029 82.0294 308 87 308C91.9706 308 96 312.029 96 317C96 321.971 91.9706 326 87 326Z" fill="#5D009F"/>
    </g>
</g>
<g class="buble">
    <g filter="url(#filter3_f_13_2)">
        <path d="M1146 335C1141.03 335 1137 330.971 1137 326C1137 321.029 1141.03 317 1146 317C1150.97 317 1155 321.029 1155 326C1155 330.971 1150.97 335 1146 335Z" fill="#3AADCC"/>
    </g>
</g>
<g class="buble">
    <path opacity="0.6" d="M527 422C525.895 422 525 421.105 525 420C525 418.895 525.895 418 527 418C528.105 418 529 418.895 529 420C529 421.105 528.105 422 527 422Z" fill="#5D009F"/>
</g>
<g class="buble">
    <path opacity="0.6" d="M613 360C610.239 360 608 357.761 608 355C608 352.239 610.239 350 613 350C615.761 350 618 352.239 618 355C618 357.761 615.761 360 613 360Z" fill="#5D009F"/>
</g>
<g class="buble">
    <path opacity="0.6" d="M613 360C610.239 360 608 357.761 608 355C608 352.239 610.239 350 613 350C615.761 350 618 352.239 618 355C618 357.761 615.761 360 613 360Z" fill="#5D009F"/>
</g>
<g class="buble">
    <path opacity="0.6" d="M901 117C898.239 117 896 114.761 896 112C896 109.239 898.239 107 901 107C903.761 107 906 109.239 906 112C906 114.761 903.761 117 901 117Z" fill="#3AADCC"/>
</g>
<g class="buble">
    <path opacity="0.6" d="M370 418C367.239 418 365 415.761 365 413C365 410.239 367.239 408 370 408C372.761 408 375 410.239 375 413C375 415.761 372.761 418 370 418Z" fill="#3AADCC"/>
</g>
<g class="buble">
    <path opacity="0.6" d="M96.7007 21.9978C102.058 23.4332 107.564 20.2542 108.999 14.8974C110.435 9.5405 107.256 4.03432 101.899 2.59896C96.5418 1.16359 91.0356 4.34259 89.6003 9.69944C88.1649 15.0563 91.3439 20.5625 96.7007 21.9978Z" fill="#5D009F"/>
</g>
<g class="buble">
    <path opacity="0.6" d="M1088.7 454.997C1094.06 456.433 1099.56 453.254 1101 447.897C1102.43 442.54 1099.26 437.034 1093.9 435.599C1088.54 434.163 1083.04 437.342 1081.6 442.699C1080.17 448.056 1083.34 453.562 1088.7 454.997Z" fill="#5D009F"/>
</g>
<g class="buble">
    <path opacity="0.6" d="M11.6363 134.182C7.45209 135.303 3.15129 132.82 2.03014 128.636C0.909 124.452 3.39207 120.151 7.57624 119.03C11.7604 117.909 16.0612 120.392 17.1824 124.576C18.3035 128.76 15.8204 133.061 11.6363 134.182Z" fill="#5D009F"/>
</g>
<g class="buble">
    <path opacity="0.6" d="M1044.64 79.1822C1040.46 80.3034 1036.16 77.8203 1035.03 73.6361C1033.91 69.452 1036.4 65.1512 1040.58 64.03C1044.76 62.9089 1049.06 65.3919 1050.19 69.5761C1051.31 73.7603 1048.82 78.0611 1044.64 79.1822Z" fill="#3AADCC"/>
</g>

    <defs>
        <filter id="filter0_f_13_2" x="264" y="262" width="30" height="30" filterUnits="userSpaceOnUse" color-interpolation-filters="sRGB">
        <feFlood flood-opacity="0" result="BackgroundImageFix"/>
        <feBlend mode="normal" in="SourceGraphic" in2="BackgroundImageFix" result="shape"/>
        <feGaussianBlur stdDeviation="5" result="effect1_foregroundBlur_13_2"/>
        </filter>
        <filter id="filter1_f_13_2" x="929" y="312" width="38" height="38" filterUnits="userSpaceOnUse" color-interpolation-filters="sRGB">
        <feFlood flood-opacity="0" result="BackgroundImageFix"/>
        <feBlend mode="normal" in="SourceGraphic" in2="BackgroundImageFix" result="shape"/>
        <feGaussianBlur stdDeviation="5" result="effect1_foregroundBlur_13_2"/>
        </filter>
        <filter id="filter2_f_13_2" x="68" y="298" width="38" height="38" filterUnits="userSpaceOnUse" color-interpolation-filters="sRGB">
        <feFlood flood-opacity="0" result="BackgroundImageFix"/>
        <feBlend mode="normal" in="SourceGraphic" in2="BackgroundImageFix" result="shape"/>
        <feGaussianBlur stdDeviation="5" result="effect1_foregroundBlur_13_2"/>
        </filter>
        <filter id="filter3_f_13_2" x="1127" y="307" width="38" height="38" filterUnits="userSpaceOnUse" color-interpolation-filters="sRGB">
        <feFlood flood-opacity="0" result="BackgroundImageFix"/>
        <feBlend mode="normal" in="SourceGraphic" in2="BackgroundImageFix" result="shape"/>
        <feGaussianBlur stdDeviation="5" result="effect1_foregroundBlur_13_2"/>
        </filter>
    </defs>
</svg>
