<svg width="1918" height="454" viewBox="0 0 1918 454" fill="none" xmlns="http://www.w3.org/2000/svg">
<g opacity="0.6">
<path fill-rule="evenodd" clip-rule="evenodd" d="M0.00390625 0.761176C38.3645 33.4455 160.333 108.012 341.646 145.162C522.389 182.196 827.285 185.976 958.369 185.999L958.969 185.999L959.569 185.999C1090.65 185.976 1395.55 182.196 1576.29 145.162C1757.6 108.012 1879.57 33.4455 1917.93 0.761176L1917.29 0C1879.07 32.5639 1757.26 107.062 1576.09 144.183C1395.19 181.249 1089.74 184.988 958.969 184.999C828.196 184.988 522.749 181.249 341.846 144.183C160.682 107.062 38.8716 32.5639 0.652452 0L0.00390625 0.761176ZM0.00390625 453.044C38.3645 420.36 160.333 345.794 341.646 308.643C522.389 271.609 827.285 267.829 958.369 267.806L958.969 267.806L959.569 267.806C1090.65 267.829 1395.55 271.609 1576.29 308.643C1757.6 345.794 1879.57 420.36 1917.93 453.044L1917.29 453.805C1879.07 421.241 1757.26 346.743 1576.09 309.622C1395.19 272.556 1089.74 268.817 958.969 268.806C828.196 268.817 522.749 272.556 341.846 309.622C160.682 346.743 38.8716 421.241 0.652452 453.805L0.00390625 453.044ZM341.572 263.581C160.305 278.656 38.3722 308.913 0.0319528 322.171L0.35878 323.117C38.5983 309.893 160.444 279.648 341.655 264.578C522.591 249.531 828.07 248.014 958.836 248.009C1089.6 248.014 1395.08 249.531 1576.02 264.578C1757.23 279.648 1879.07 309.893 1917.31 323.117L1917.64 322.171C1879.3 308.913 1757.37 278.656 1576.1 263.581C1395.39 248.553 1090.53 247.018 959.436 247.009L958.836 247.009L958.236 247.009C827.146 247.018 522.281 248.553 341.572 263.581ZM0.0319528 131.847C38.3722 145.105 160.305 175.362 341.572 190.437C522.281 205.465 827.146 207 958.236 207.009L958.836 207.009L959.436 207.009C1090.53 207 1395.39 205.465 1576.1 190.437C1757.37 175.362 1879.3 145.105 1917.64 131.847L1917.31 130.901C1879.07 144.125 1757.23 174.37 1576.02 189.44C1395.08 204.487 1089.6 206.004 958.836 206.009C828.07 206.004 522.591 204.487 341.655 189.44C160.444 174.37 38.5983 144.125 0.35878 130.901L0.0319528 131.847ZM39.1094 227.009H1878.62V226.009H39.1094V227.009Z" fill="url(#paint0_linear_356_17018)"/>
</g>
<path d="M628.156 202.292C648.656 202.959 694.656 204.292 714.656 204.292" stroke="url(#paint1_linear_356_17018)" stroke-linecap="round"/>
<path d="M782.656 182.792C803.156 183.459 850.656 184.792 870.656 184.792" stroke="url(#paint2_linear_356_17018)" stroke-linecap="round"/>
<path d="M1043.16 268.292C1074.16 268.292 1104.66 269.292 1126.66 269.792" stroke="url(#paint3_linear_356_17018)" stroke-linecap="round"/>
<path d="M1240.66 225.792C1245.16 225.792 1304.16 226.292 1324.16 226.292" stroke="url(#paint4_linear_356_17018)" stroke-linecap="round"/>
<path d="M1100.16 206.792C1126.66 206.292 1164.66 205.292 1184.66 205.292" stroke="url(#paint5_linear_356_17018)" stroke-linecap="round"/>
<path d="M339 309.292C367.5 303.792 404 297.292 425 295.292" stroke="url(#paint6_linear_356_17018)" stroke-linecap="round"/>
<defs>
<linearGradient id="paint0_linear_356_17018" x1="75.1443" y1="234.268" x2="1836.39" y2="252.556" gradientUnits="userSpaceOnUse">
<stop stop-color="white" stop-opacity="0"/>
<stop offset="0.0001" stop-color="#C97CFF" stop-opacity="0"/>
<stop offset="0.499571" stop-color="#A77CC5"/>
<stop offset="1" stop-color="#CC84FF" stop-opacity="0"/>
</linearGradient>
<linearGradient id="paint1_linear_356_17018" x1="714.656" y1="204.292" x2="627.156" y2="202.292" gradientUnits="userSpaceOnUse">
<stop stop-color="white"/>
<stop offset="1" stop-color="white" stop-opacity="0"/>
</linearGradient>
<linearGradient id="paint2_linear_356_17018" x1="870.156" y1="185.292" x2="782.656" y2="183.292" gradientUnits="userSpaceOnUse">
<stop stop-color="white"/>
<stop offset="1" stop-color="white" stop-opacity="0"/>
</linearGradient>
<linearGradient id="paint3_linear_356_17018" x1="1124.16" y1="270.792" x2="1036.66" y2="268.792" gradientUnits="userSpaceOnUse">
<stop stop-color="white"/>
<stop offset="1" stop-color="white" stop-opacity="0"/>
</linearGradient>
<linearGradient id="paint4_linear_356_17018" x1="1321.66" y1="227.292" x2="1234.16" y2="225.292" gradientUnits="userSpaceOnUse">
<stop stop-color="white"/>
<stop offset="1" stop-color="white" stop-opacity="0"/>
</linearGradient>
<linearGradient id="paint5_linear_356_17018" x1="1180.66" y1="206.792" x2="1093.16" y2="204.792" gradientUnits="userSpaceOnUse">
<stop stop-color="white"/>
<stop offset="1" stop-color="white" stop-opacity="0"/>
</linearGradient>
<linearGradient id="paint6_linear_356_17018" x1="425.5" y1="296.792" x2="338" y2="294.792" gradientUnits="userSpaceOnUse">
<stop stop-color="white"/>
<stop offset="1" stop-color="white" stop-opacity="0"/>
</linearGradient>
</defs>
</svg>
