<?xml version="1.0" encoding="UTF-8"?>
<svg id="Warstwa_1" data-name="Warstwa 1" xmlns="http://www.w3.org/2000/svg" width="140" height="140" xmlns:xlink="http://www.w3.org/1999/xlink" viewBox="0 0 140 140">
  <defs>
    <style>
      .cls-1 {
        fill: #fff;
      }

      .cls-2 {
        stroke: #000;
        stroke-miterlimit: 10;
        stroke-width: .5px;
      }

      .cls-3 {
        fill: none;
        stroke: rgba(93, 0, 159, .3);
      }

      .cls-4 {
        fill: #5d009f;
      }


    </style>
    <mask id="mask" x="16" y="100" width="24" height="24" maskUnits="userSpaceOnUse"/>
  </defs>
  <g>
    <rect class="cls-1" width="140" height="140" rx="26" ry="26"/>
    <rect class="cls-3" x=".5" y=".5" width="139" height="139" rx="25.5" ry="25.5"/>
  </g>
  <path d="M24.46,51.57c-2.84,0-5.23-.63-7.18-1.89-1.94-1.28-3.31-3.02-4.1-5.21l4.84-2.83c1.12,2.92,3.32,4.39,6.6,4.39,1.59,0,2.75-.29,3.49-.86,.74-.57,1.11-1.3,1.11-2.17,0-1.01-.45-1.79-1.35-2.34-.9-.57-2.51-1.19-4.84-1.84-1.28-.38-2.38-.77-3.28-1.15-.87-.38-1.76-.89-2.67-1.52-.87-.66-1.54-1.48-2.01-2.46-.46-.98-.7-2.13-.7-3.44,0-2.6,.92-4.66,2.75-6.19,1.86-1.56,4.09-2.34,6.68-2.34,2.32,0,4.36,.57,6.11,1.72,1.78,1.12,3.16,2.69,4.14,4.72l-4.76,2.75c-1.15-2.46-2.98-3.69-5.49-3.69-1.18,0-2.1,.27-2.79,.82-.66,.52-.98,1.2-.98,2.05,0,.9,.37,1.64,1.11,2.21,.77,.55,2.21,1.15,4.35,1.8,.87,.27,1.53,.49,1.97,.66,.46,.14,1.08,.37,1.84,.7,.79,.3,1.39,.59,1.8,.86,.44,.27,.93,.64,1.48,1.11,.55,.46,.96,.94,1.23,1.43,.3,.49,.55,1.09,.74,1.8,.22,.68,.33,1.44,.33,2.26,0,2.65-.97,4.76-2.91,6.31-1.91,1.56-4.41,2.34-7.5,2.34Zm24.81,0c-3.2,0-5.82-.9-7.87-2.71s-3.08-4.22-3.08-7.26V22.3h5.62v18.86c0,1.5,.42,2.69,1.27,3.57,.87,.87,2.23,1.31,4.06,1.31s3.17-.44,4.02-1.31c.87-.87,1.31-2.06,1.31-3.57V22.3h5.66v19.31c0,3.03-1.03,5.45-3.08,7.26s-4.69,2.71-7.91,2.71Zm44.17-29.27v28.7h-5.62v-18.61l-8.08,13.32h-.66l-8.08-13.28v18.57h-5.66V22.3h5.82l8.24,13.57,8.2-13.57h5.82Zm29.5,24.97c-2.9,2.87-6.42,4.31-10.58,4.31s-7.68-1.44-10.58-4.31c-2.87-2.9-4.3-6.44-4.3-10.62s1.44-7.71,4.3-10.58c2.9-2.9,6.42-4.35,10.58-4.35s7.68,1.45,10.58,4.35c2.9,2.87,4.35,6.4,4.35,10.58s-1.45,7.72-4.35,10.62Zm-17.18-3.85c1.78,1.75,3.98,2.62,6.6,2.62s4.82-.87,6.6-2.62c1.78-1.78,2.67-4.03,2.67-6.76s-.89-4.99-2.67-6.77c-1.78-1.78-3.98-2.67-6.6-2.67s-4.82,.89-6.6,2.67c-1.78,1.78-2.67,4.03-2.67,6.77s.89,4.99,2.67,6.76Z"/>
  <circle class="cls-4" cx="28" cy="112" r="16"/>
  <g class="cls-5">
    <path class="cls-1" d="M26,121l1-7h-3.5c-.25,0-.4-.07-.46-.2-.06-.13-.02-.32,.11-.55l5.85-10.25h1l-1,7h3.5c.25,0,.4,.07,.46,.2,.06,.13,.02,.32-.11,.55l-5.85,10.25h-1Z"/>
  </g>
  <g>
    <path class="cls-2" d="M66.6,108.94h-.22l-1.78-3.01s-.11,0-.2,0h-2.5v3h-.2v-7h2.7c.55,0,1.02,.2,1.41,.59,.39,.39,.59,.86,.59,1.41,0,.47-.15,.89-.46,1.26-.3,.37-.69,.6-1.15,.7l1.8,3.04Zm-4.7-3.18h2.5c.49,0,.92-.18,1.27-.54,.35-.36,.53-.79,.53-1.29s-.18-.93-.53-1.29c-.35-.36-.78-.54-1.27-.54h-2.5v3.64Z"/>
    <path class="cls-2" d="M69.68,103.84c.73,0,1.32,.26,1.77,.77s.69,1.13,.69,1.84v.1h-4.79c.03,.68,.26,1.23,.71,1.66s1,.64,1.65,.64c.44,0,.83-.09,1.19-.28,.35-.19,.61-.44,.78-.75l.17,.1c-.19,.34-.48,.61-.85,.81-.38,.2-.8,.3-1.28,.3-.74,0-1.35-.24-1.84-.73s-.73-1.11-.73-1.87,.24-1.36,.71-1.86c.48-.5,1.08-.74,1.81-.74Zm-2.33,2.54h4.61c-.04-.7-.27-1.27-.7-1.71-.43-.44-.96-.66-1.58-.66-.65,0-1.2,.22-1.65,.67s-.67,1.01-.68,1.7Z"/>
    <path class="cls-2" d="M78.16,103.94h.2v5h-.2v-1.53c-.19,.49-.51,.89-.94,1.19s-.92,.44-1.47,.44c-.73,0-1.34-.25-1.85-.75s-.76-1.12-.76-1.85,.25-1.35,.76-1.85,1.12-.75,1.85-.75c.55,0,1.04,.15,1.47,.44,.43,.3,.75,.69,.94,1.19v-1.53Zm-4.12,4.22c.47,.47,1.04,.7,1.71,.7s1.24-.23,1.71-.7,.7-1.04,.7-1.72-.23-1.25-.7-1.72c-.47-.47-1.04-.7-1.71-.7s-1.24,.23-1.71,.7c-.47,.47-.7,1.04-.7,1.72s.23,1.25,.7,1.72Z"/>
    <path class="cls-2" d="M80.16,108.94v-7.3h.2v7.3h-.2Z"/>
    <path class="cls-2" d="M82.26,105.94v-.18h3.6v.18h-3.6Z"/>
    <path class="cls-2" d="M90.05,104.12h-1.59v3.71c0,.44,.12,.73,.36,.86,.24,.13,.65,.16,1.23,.07v.18c-.63,.1-1.08,.06-1.37-.11-.28-.17-.42-.51-.42-1v-3.71h-1.2v-.18h1.2v-1.34l.2-.06v1.4h1.59v.18Z"/>
    <path class="cls-2" d="M91.72,102.36s-.1,.07-.17,.07-.12-.02-.17-.07-.07-.1-.07-.16,.02-.11,.07-.16c.04-.05,.1-.07,.17-.07s.12,.02,.17,.07c.04,.05,.07,.1,.07,.16s-.02,.11-.07,.16Zm-.26,6.58v-5h.2v5h-.2Z"/>
    <path class="cls-2" d="M98.82,103.84c.51,0,.93,.15,1.25,.46,.32,.31,.48,.76,.48,1.37v3.27h-.2v-3.27c0-.53-.14-.93-.42-1.22-.28-.29-.65-.43-1.12-.43-.51,0-.92,.18-1.24,.55-.32,.37-.48,.88-.48,1.54v2.82h-.2v-3.27c0-.53-.13-.93-.4-1.22-.27-.29-.63-.43-1.08-.43-.52,0-.94,.18-1.27,.55-.33,.37-.49,.88-.49,1.54v2.82h-.2v-5h.2v1.21c.13-.44,.35-.77,.67-.99,.32-.22,.68-.32,1.1-.32s.79,.11,1.08,.34c.3,.23,.48,.57,.56,1.01,.13-.45,.35-.79,.67-1.02s.69-.34,1.08-.34Z"/>
    <path class="cls-2" d="M104.33,103.84c.73,0,1.32,.26,1.77,.77,.46,.52,.69,1.13,.69,1.84v.1h-4.79c.03,.68,.26,1.23,.71,1.66s1,.64,1.66,.64c.44,0,.83-.09,1.18-.28,.35-.19,.61-.44,.78-.75l.17,.1c-.19,.34-.48,.61-.86,.81-.38,.2-.8,.3-1.27,.3-.74,0-1.35-.24-1.84-.73-.49-.49-.73-1.11-.73-1.87s.24-1.36,.71-1.86c.48-.5,1.08-.74,1.82-.74Zm-2.33,2.54h4.61c-.04-.7-.27-1.27-.7-1.71-.43-.44-.96-.66-1.58-.66-.65,0-1.2,.22-1.65,.67s-.67,1.01-.68,1.7Z"/>
    <path class="cls-2" d="M64.2,112.94c.95,0,1.74,.34,2.37,1.01,.62,.68,.93,1.5,.93,2.49s-.31,1.81-.93,2.49c-.62,.68-1.41,1.01-2.37,1.01h-2.5v-7h2.5Zm0,6.82c.9,0,1.64-.32,2.23-.96,.58-.64,.88-1.43,.88-2.36s-.29-1.72-.88-2.36c-.58-.64-1.33-.96-2.23-.96h-2.3v6.64h2.3Z"/>
    <path class="cls-2" d="M73.62,114.94h.2v5h-.2v-1.53c-.19,.49-.51,.89-.94,1.19s-.92,.44-1.47,.44c-.73,0-1.34-.25-1.85-.75-.51-.5-.76-1.12-.76-1.85s.25-1.35,.76-1.85c.51-.5,1.12-.75,1.85-.75,.54,0,1.04,.15,1.47,.44,.43,.3,.75,.69,.94,1.19v-1.53Zm-4.12,4.22c.47,.47,1.04,.7,1.71,.7s1.24-.23,1.71-.7c.47-.47,.7-1.04,.7-1.72s-.23-1.25-.7-1.72-1.04-.7-1.71-.7-1.24,.23-1.71,.7-.7,1.04-.7,1.72,.23,1.25,.7,1.72Z"/>
    <path class="cls-2" d="M78.01,115.12h-1.59v3.71c0,.44,.12,.73,.36,.86,.24,.13,.65,.16,1.23,.07v.18c-.63,.1-1.08,.06-1.37-.11-.28-.17-.42-.51-.42-1v-3.71h-1.2v-.18h1.2v-1.34l.2-.06v1.4h1.59v.18Z"/>
    <path class="cls-2" d="M83.73,114.94h.2v5h-.2v-1.53c-.19,.49-.51,.89-.94,1.19s-.92,.44-1.47,.44c-.73,0-1.34-.25-1.85-.75s-.76-1.12-.76-1.85,.25-1.35,.76-1.85,1.12-.75,1.85-.75c.55,0,1.04,.15,1.47,.44,.43,.3,.75,.69,.94,1.19v-1.53Zm-4.12,4.22c.47,.47,1.04,.7,1.71,.7s1.24-.23,1.71-.7,.7-1.04,.7-1.72-.23-1.25-.7-1.72c-.47-.47-1.04-.7-1.71-.7s-1.24,.23-1.71,.7c-.47,.47-.7,1.04-.7,1.72s.23,1.25,.7,1.72Z"/>
    <path class="cls-2" d="M88.73,116.24c0,.29,.11,.51,.33,.67,.22,.16,.5,.27,.81,.34,.32,.07,.64,.14,.96,.21,.32,.07,.59,.21,.81,.4,.22,.19,.33,.45,.33,.78,0,.39-.16,.72-.49,1-.33,.27-.75,.4-1.26,.4-.99,0-1.6-.35-1.85-1.05l.16-.09c.21,.64,.77,.96,1.69,.96,.45,0,.82-.12,1.11-.34,.29-.23,.44-.52,.44-.88,0-.29-.11-.52-.33-.69-.22-.17-.49-.29-.81-.35-.32-.07-.63-.14-.96-.21-.32-.07-.59-.2-.81-.39-.22-.18-.33-.43-.33-.75,0-.4,.15-.73,.46-1,.3-.27,.71-.4,1.22-.4,.39,0,.72,.09,1,.26,.28,.17,.48,.41,.6,.7l-.16,.09c-.11-.27-.29-.48-.54-.63-.25-.16-.55-.24-.9-.24-.45,0-.8,.11-1.08,.34-.27,.23-.4,.52-.4,.88Z"/>
    <path class="cls-2" d="M95.57,115.12h-1.59v3.71c0,.44,.12,.73,.36,.86,.24,.13,.65,.16,1.23,.07v.18c-.63,.1-1.08,.06-1.37-.11-.28-.17-.42-.51-.42-1v-3.71h-1.2v-.18h1.2v-1.34l.2-.06v1.4h1.59v.18Z"/>
    <path class="cls-2" d="M97.17,116.28c.12-.47,.35-.82,.7-1.05s.73-.35,1.15-.35v.18c-.52,0-.96,.19-1.32,.56-.36,.37-.54,.89-.54,1.54v2.78h-.2v-5h.2v1.34Z"/>
    <path class="cls-2" d="M102.05,114.84c.73,0,1.32,.26,1.77,.77,.46,.52,.69,1.13,.69,1.84v.1h-4.79c.03,.68,.26,1.23,.71,1.66s1,.64,1.66,.64c.44,0,.83-.09,1.18-.28,.35-.19,.61-.44,.78-.75l.17,.1c-.19,.34-.48,.61-.86,.81-.38,.2-.8,.3-1.27,.3-.74,0-1.35-.24-1.84-.73-.49-.49-.73-1.11-.73-1.87s.24-1.36,.71-1.86c.48-.5,1.08-.74,1.82-.74Zm-2.33,2.54h4.61c-.04-.7-.27-1.27-.7-1.71-.43-.44-.96-.66-1.58-.66-.65,0-1.2,.22-1.65,.67s-.67,1.01-.68,1.7Z"/>
    <path class="cls-2" d="M110.53,114.94h.2v5h-.2v-1.53c-.19,.49-.51,.89-.94,1.19s-.92,.44-1.47,.44c-.73,0-1.34-.25-1.85-.75s-.76-1.12-.76-1.85,.25-1.35,.76-1.85,1.12-.75,1.85-.75c.55,0,1.04,.15,1.47,.44,.43,.3,.75,.69,.94,1.19v-1.53Zm-4.12,4.22c.47,.47,1.04,.7,1.71,.7s1.24-.23,1.71-.7,.7-1.04,.7-1.72-.23-1.25-.7-1.72c-.47-.47-1.04-.7-1.71-.7s-1.24,.23-1.71,.7c-.47,.47-.7,1.04-.7,1.72s.23,1.25,.7,1.72Z"/>
    <path class="cls-2" d="M117.9,114.84c.51,0,.93,.15,1.25,.46,.32,.31,.48,.76,.48,1.37v3.27h-.2v-3.27c0-.53-.14-.93-.42-1.22-.28-.29-.65-.43-1.12-.43-.51,0-.92,.18-1.24,.55-.32,.37-.48,.88-.48,1.54v2.82h-.2v-3.27c0-.53-.13-.93-.4-1.22-.27-.29-.63-.43-1.08-.43-.52,0-.94,.18-1.27,.55-.33,.37-.49,.88-.49,1.54v2.82h-.2v-5h.2v1.21c.13-.44,.35-.77,.67-.99,.32-.22,.68-.32,1.1-.32s.79,.11,1.08,.34c.3,.23,.48,.57,.56,1.01,.13-.45,.35-.79,.67-1.02s.69-.34,1.08-.34Z"/>
    <path class="cls-2" d="M121.28,116.24c0,.29,.11,.51,.33,.67,.22,.16,.5,.27,.81,.34,.32,.07,.64,.14,.96,.21,.32,.07,.59,.21,.81,.4,.22,.19,.33,.45,.33,.78,0,.39-.16,.72-.49,1-.33,.27-.75,.4-1.26,.4-.99,0-1.6-.35-1.85-1.05l.16-.09c.21,.64,.77,.96,1.69,.96,.45,0,.82-.12,1.11-.34,.29-.23,.44-.52,.44-.88,0-.29-.11-.52-.33-.69-.22-.17-.49-.29-.81-.35-.32-.07-.63-.14-.96-.21-.32-.07-.59-.2-.81-.39-.22-.18-.33-.43-.33-.75,0-.4,.15-.73,.46-1,.3-.27,.71-.4,1.22-.4,.39,0,.72,.09,1,.26,.28,.17,.48,.41,.6,.7l-.16,.09c-.11-.27-.29-.48-.54-.63-.25-.16-.55-.24-.9-.24-.45,0-.8,.11-1.08,.34-.27,.23-.4,.52-.4,.88Z"/>
  </g>
</svg>