<svg width="32" height="32" viewBox="0 0 32 32" fill="none" xmlns="http://www.w3.org/2000/svg">
<path d="M2.36727 22.9002C2.18949 22.7891 2.08393 22.628 2.0506 22.4169C2.01727 22.2057 2.05616 22.0224 2.16727 21.8669L7.03393 14.0669C7.21171 13.778 7.46727 13.6224 7.8006 13.6002C8.13393 13.578 8.4006 13.6891 8.6006 13.9335L11.7339 17.6002L16.2673 10.3002C16.445 10.0113 16.7062 9.8613 17.0506 9.85019C17.395 9.83908 17.6673 9.97796 17.8673 10.2669L20.2006 13.8002C19.9562 13.8446 19.7062 13.9002 19.4506 13.9669C19.195 14.0335 18.945 14.1113 18.7006 14.2002L17.1006 11.8002L12.7006 19.0335C12.5228 19.3002 12.2673 19.4446 11.9339 19.4669C11.6006 19.4891 11.3339 19.3891 11.1339 19.1669L7.96727 15.4335L3.43393 22.6669C3.32282 22.8446 3.16171 22.9613 2.9506 23.0169C2.73949 23.0724 2.54505 23.0335 2.36727 22.9002ZM23.8673 14.0335C23.6228 13.9224 23.3673 13.8502 23.1006 13.8169C22.8339 13.7835 22.5673 13.7557 22.3006 13.7335L28.5673 3.83352C28.6784 3.65574 28.8395 3.54463 29.0506 3.50019C29.2617 3.45574 29.4562 3.50019 29.6339 3.63352C29.8117 3.74463 29.9173 3.90019 29.9506 4.10019C29.9839 4.30019 29.945 4.48908 29.8339 4.66685L23.8673 14.0335Z" fill="white"/>
<path d="M28.563 29.6337L24.5297 25.6337C24.0852 25.9448 23.6075 26.1893 23.0964 26.3671C22.5852 26.5448 22.063 26.6337 21.5297 26.6337C20.1075 26.6337 18.9019 26.1393 17.913 25.1504C16.9241 24.1615 16.4297 22.9559 16.4297 21.5337C16.4297 20.1115 16.9241 18.9059 17.913 17.9171C18.9019 16.9282 20.1075 16.4337 21.5297 16.4337C22.9519 16.4337 24.1575 16.9282 25.1464 17.9171C26.1352 18.9059 26.6297 20.1115 26.6297 21.5337C26.6297 22.0893 26.5352 22.6226 26.3464 23.1337C26.1575 23.6448 25.9075 24.1226 25.5964 24.567L29.6297 28.567C29.7852 28.7226 29.8686 28.9004 29.8797 29.1004C29.8908 29.3004 29.8186 29.4782 29.663 29.6337C29.5075 29.7893 29.3241 29.8671 29.113 29.8671C28.9019 29.8671 28.7186 29.7893 28.563 29.6337ZM21.5297 25.1004C22.5297 25.1004 23.3741 24.7559 24.063 24.067C24.7519 23.3782 25.0964 22.5337 25.0964 21.5337C25.0964 20.5337 24.7519 19.6893 24.063 19.0004C23.3741 18.3115 22.5297 17.9671 21.5297 17.9671C20.5297 17.9671 19.6852 18.3115 18.9964 19.0004C18.3075 19.6893 17.963 20.5337 17.963 21.5337C17.963 22.5337 18.3075 23.3782 18.9964 24.067C19.6852 24.7559 20.5297 25.1004 21.5297 25.1004Z" fill="white"/>
</svg>
