<svg width="40" height="40" viewBox="0 0 40 40" fill="none" xmlns="http://www.w3.org/2000/svg">
<path d="M0.828125 35.8751V34.0421C0.828125 32.9861 1.39079 32.1247 2.51612 31.4581C3.64079 30.7914 5.10612 30.4581 6.91212 30.4581C7.24546 30.4581 7.55779 30.4651 7.84912 30.4791C8.14112 30.4931 8.42579 30.5277 8.70312 30.5831C8.48112 31.0277 8.30779 31.4931 8.18312 31.9791C8.05779 32.4651 7.99512 32.9721 7.99512 33.5001V35.8751H0.828125ZM10.8281 35.8751V33.5831C10.8281 31.9724 11.6755 30.6877 13.3701 29.7291C15.0648 28.7711 17.2731 28.2921 19.9951 28.2921C22.7451 28.2921 24.9605 28.7711 26.6411 29.7291C28.3218 30.6877 29.1621 31.9724 29.1621 33.5831V35.8751H10.8281ZM31.9951 35.8751V33.5001C31.9951 32.9721 31.9395 32.4651 31.8281 31.9791C31.7175 31.4931 31.5508 31.0277 31.3281 30.5831C31.6061 30.5277 31.8911 30.4931 32.1831 30.4791C32.4745 30.4651 32.7868 30.4581 33.1201 30.4581C34.9255 30.4581 36.3838 30.7914 37.4951 31.4581C38.6065 32.1247 39.1621 32.9861 39.1621 34.0421V35.8751H31.9951ZM19.9951 30.3751C17.9398 30.3751 16.2591 30.6667 14.9531 31.2501C13.6478 31.8334 12.9811 32.5834 12.9531 33.5001V33.7921H27.0371V33.4581C27.0091 32.5694 26.3491 31.8334 25.0571 31.2501C23.7658 30.6667 22.0785 30.3751 19.9951 30.3751ZM6.91212 29.0421C6.16212 29.0421 5.53012 28.7781 5.01612 28.2501C4.50212 27.7221 4.24513 27.0971 4.24513 26.3751C4.24513 25.6531 4.50212 25.0351 5.01612 24.5211C5.53012 24.0071 6.16212 23.7501 6.91212 23.7501C7.63412 23.7501 8.25212 24.0071 8.76612 24.5211C9.28012 25.0351 9.53712 25.6531 9.53712 26.3751C9.53712 27.0971 9.28012 27.7221 8.76612 28.2501C8.25212 28.7781 7.63412 29.0421 6.91212 29.0421ZM33.1201 29.0421C32.3981 29.0421 31.7731 28.7781 31.2451 28.2501C30.7171 27.7221 30.4531 27.0971 30.4531 26.3751C30.4531 25.6531 30.7171 25.0351 31.2451 24.5211C31.7731 24.0071 32.3981 23.7501 33.1201 23.7501C33.8701 23.7501 34.4951 24.0071 34.9951 24.5211C35.4951 25.0351 35.7451 25.6531 35.7451 26.3751C35.7451 27.0971 35.4951 27.7221 34.9951 28.2501C34.4951 28.7781 33.8701 29.0421 33.1201 29.0421ZM19.9951 27.0421C18.8005 27.0421 17.7798 26.6254 16.9331 25.7921C16.0858 24.9587 15.6621 23.9307 15.6621 22.7081C15.6621 21.4861 16.0858 20.4654 16.9331 19.6461C17.7798 18.8267 18.8005 18.4171 19.9951 18.4171C21.2171 18.4171 22.2448 18.8267 23.0781 19.6461C23.9115 20.4654 24.3281 21.4861 24.3281 22.7081C24.3281 23.9027 23.9115 24.9237 23.0781 25.7711C22.2448 26.6184 21.2171 27.0421 19.9951 27.0421ZM19.9951 20.5001C19.3838 20.5001 18.8561 20.7084 18.4121 21.1251C17.9675 21.5417 17.7451 22.0694 17.7451 22.7081C17.7451 23.3474 17.9675 23.8821 18.4121 24.3121C18.8561 24.7427 19.3838 24.9581 19.9951 24.9581C20.6338 24.9581 21.1685 24.7427 21.5991 24.3121C22.0298 23.8821 22.2451 23.3474 22.2451 22.7081C22.2451 22.0694 22.0298 21.5417 21.5991 21.1251C21.1685 20.7084 20.6338 20.5001 19.9951 20.5001Z" fill="white"/>
<path d="M2.82812 22.7501C2.16146 21.6387 1.66146 20.5137 1.32812 19.3751C0.994792 18.2364 0.828125 17.1114 0.828125 16.0001C0.828125 13.1667 1.81446 10.7641 3.78713 8.79207C5.75913 6.8194 8.16179 5.83307 10.9951 5.83307C12.7171 5.83307 14.3561 6.23607 15.9121 7.04207C17.4675 7.8474 18.8285 8.9724 19.9951 10.4171C21.1618 8.9724 22.5228 7.8474 24.0781 7.04207C25.6341 6.23607 27.2731 5.83307 28.9951 5.83307C31.8285 5.83307 34.2311 6.8194 36.2031 8.79207C38.1758 10.7641 39.1621 13.1667 39.1621 16.0001C39.1621 17.0834 38.9955 18.1874 38.6621 19.3121C38.3288 20.4374 37.8288 21.5834 37.1621 22.7501C36.9395 22.4447 36.6825 22.1877 36.3911 21.9791C36.0991 21.7711 35.7865 21.5974 35.4531 21.4581C35.9811 20.5141 36.3841 19.5907 36.6621 18.6881C36.9395 17.7847 37.0781 16.8887 37.0781 16.0001C37.0781 13.7501 36.2935 11.8404 34.7241 10.2711C33.1548 8.70174 31.2451 7.91707 28.9951 7.91707C27.3565 7.91707 25.8218 8.40307 24.3911 9.37507C22.9605 10.3471 21.4951 11.7777 19.9951 13.6671C18.4951 11.7777 17.0298 10.3471 15.5991 9.37507C14.1685 8.40307 12.6338 7.91707 10.9951 7.91707C8.74512 7.91707 6.83546 8.70174 5.26612 10.2711C3.69679 11.8404 2.91213 13.7501 2.91213 16.0001C2.91213 16.8887 3.05079 17.7914 3.32812 18.7081C3.60612 19.6247 4.00912 20.5414 4.53712 21.4581C4.20379 21.6247 3.89113 21.8124 3.59913 22.0211C3.30779 22.2291 3.05079 22.4721 2.82812 22.7501Z" fill="#5D009F"/>
</svg>
