<svg width="16" height="16" viewBox="0 0 16 16" fill="none" xmlns="http://www.w3.org/2000/svg">
<path d="M7.99479 6.00065C7.46436 6.00065 6.95565 6.21136 6.58058 6.58644C6.2055 6.96151 5.99479 7.47022 5.99479 8.00065C5.99479 8.53108 6.2055 9.03979 6.58058 9.41486C6.95565 9.78994 7.46436 10.0007 7.99479 10.0007C8.52522 10.0007 9.03393 9.78994 9.40901 9.41486C9.78408 9.03979 9.99479 8.53108 9.99479 8.00065C9.99479 7.47022 9.78408 6.96151 9.40901 6.58644C9.03393 6.21136 8.52522 6.00065 7.99479 6.00065ZM7.99479 4.66732C8.87885 4.66732 9.72669 5.01851 10.3518 5.64363C10.9769 6.26875 11.3281 7.1166 11.3281 8.00065C11.3281 8.88471 10.9769 9.73255 10.3518 10.3577C9.72669 10.9828 8.87885 11.334 7.99479 11.334C7.11074 11.334 6.26289 10.9828 5.63777 10.3577C5.01265 9.73255 4.66146 8.88471 4.66146 8.00065C4.66146 7.1166 5.01265 6.26875 5.63777 5.64363C6.26289 5.01851 7.11074 4.66732 7.99479 4.66732ZM12.3281 4.50065C12.3281 4.72166 12.2403 4.93363 12.084 5.08991C11.9278 5.24619 11.7158 5.33398 11.4948 5.33398C11.2738 5.33398 11.0618 5.24619 10.9055 5.08991C10.7493 4.93363 10.6615 4.72166 10.6615 4.50065C10.6615 4.27964 10.7493 4.06768 10.9055 3.9114C11.0618 3.75512 11.2738 3.66732 11.4948 3.66732C11.7158 3.66732 11.9278 3.75512 12.084 3.9114C12.2403 4.06768 12.3281 4.27964 12.3281 4.50065ZM7.99479 2.66732C6.34546 2.66732 6.07612 2.67198 5.30879 2.70598C4.78612 2.73065 4.43546 2.80065 4.11012 2.92732C3.82079 3.03932 3.61212 3.17332 3.39012 3.39598C3.18146 3.59758 3.02103 3.84371 2.92079 4.11598C2.79412 4.44265 2.72413 4.79265 2.70012 5.31465C2.66546 6.05065 2.66146 6.30798 2.66146 8.00065C2.66146 9.64998 2.66612 9.91932 2.70012 10.6867C2.72479 11.2086 2.79479 11.56 2.92079 11.8847C3.03412 12.1747 3.16746 12.3833 3.38879 12.6047C3.61346 12.8287 3.82212 12.9627 4.10879 13.0733C4.43812 13.2007 4.78879 13.2713 5.30879 13.2953C6.04479 13.33 6.30212 13.334 7.99479 13.334C9.64412 13.334 9.91346 13.3293 10.6808 13.2953C11.2021 13.2706 11.5535 13.2007 11.8788 13.0747C12.1675 12.962 12.3775 12.828 12.5988 12.6067C12.8235 12.382 12.9575 12.1733 13.0681 11.8867C13.1948 11.558 13.2655 11.2066 13.2895 10.6867C13.3241 9.95065 13.3281 9.69332 13.3281 8.00065C13.3281 6.35132 13.3235 6.08198 13.2895 5.31465C13.2648 4.79332 13.1948 4.44132 13.0681 4.11598C12.9677 3.84399 12.8075 3.59796 12.5995 3.39598C12.3979 3.18721 12.1518 3.02676 11.8795 2.92665C11.5528 2.79998 11.2021 2.72998 10.6808 2.70598C9.94479 2.67132 9.68746 2.66732 7.99479 2.66732ZM7.99479 1.33398C9.80612 1.33398 10.0321 1.34065 10.7428 1.37398C11.4528 1.40732 11.9361 1.51865 12.3615 1.68398C12.8015 1.85332 13.1721 2.08265 13.5428 2.45265C13.8818 2.78591 14.1441 3.18904 14.3115 3.63398C14.4761 4.05865 14.5881 4.54265 14.6215 5.25265C14.6528 5.96332 14.6615 6.18932 14.6615 8.00065C14.6615 9.81198 14.6548 10.038 14.6215 10.7487C14.5881 11.4587 14.4761 11.942 14.3115 12.3673C14.1446 12.8125 13.8822 13.2157 13.5428 13.5487C13.2094 13.8875 12.8063 14.1498 12.3615 14.3173C11.9368 14.482 11.4528 14.594 10.7428 14.6273C10.0321 14.6587 9.80612 14.6673 7.99479 14.6673C6.18346 14.6673 5.95746 14.6607 5.24679 14.6273C4.53679 14.594 4.05346 14.482 3.62812 14.3173C3.18301 14.1503 2.77981 13.8879 2.44679 13.5487C2.10773 13.2154 1.84541 12.8123 1.67813 12.3673C1.51279 11.9426 1.40146 11.4587 1.36812 10.7487C1.33679 10.038 1.32812 9.81198 1.32812 8.00065C1.32812 6.18932 1.33479 5.96332 1.36812 5.25265C1.40146 4.54198 1.51279 4.05932 1.67813 3.63398C1.84495 3.18877 2.10733 2.78553 2.44679 2.45265C2.77991 2.11347 3.18308 1.85114 3.62812 1.68398C4.05346 1.51865 4.53612 1.40732 5.24679 1.37398C5.95746 1.34265 6.18346 1.33398 7.99479 1.33398Z" fill="white"/>
</svg>
