<svg width="32" height="32" viewBox="0 0 32 32" fill="none" xmlns="http://www.w3.org/2000/svg">
<path d="M15.9984 23.0335C16.3762 23.0335 16.6873 22.9057 16.9318 22.6501C17.1762 22.3946 17.2984 22.0779 17.2984 21.7001V19.3335H19.7651C20.1429 19.3335 20.4595 19.2057 20.7151 18.9501C20.9707 18.6946 21.0984 18.3779 21.0984 18.0001C21.0984 17.6224 20.9707 17.3057 20.7151 17.0501C20.4595 16.7946 20.1429 16.6668 19.7651 16.6668H17.2984V14.2668C17.2984 13.889 17.1762 13.5779 16.9318 13.3335C16.6873 13.089 16.3762 12.9668 15.9984 12.9668C15.6207 12.9668 15.304 13.089 15.0484 13.3335C14.7929 13.5779 14.6651 13.889 14.6651 14.2668V16.6668H12.2318C11.854 16.6668 11.5373 16.7946 11.2818 17.0501C11.0262 17.3057 10.8984 17.6224 10.8984 18.0001C10.8984 18.3779 11.0262 18.6946 11.2818 18.9501C11.5373 19.2057 11.854 19.3335 12.2318 19.3335H14.6651V21.7335C14.6651 22.1112 14.7929 22.4224 15.0484 22.6668C15.304 22.9112 15.6207 23.0335 15.9984 23.0335Z" fill="#5D009F"/>
<path d="M8.66406 28C8.10851 28 7.63628 27.8056 7.2474 27.4167C6.85851 27.0278 6.66406 26.5556 6.66406 26V10.0333C6.66406 9.47778 6.85851 9.00556 7.2474 8.61667C7.63628 8.22778 8.10851 8.03333 8.66406 8.03333H23.3307C23.8863 8.03333 24.3585 8.22778 24.7474 8.61667C25.1363 9.00556 25.3307 9.47778 25.3307 10.0333V26.1667C25.3307 26.7222 25.1363 27.1667 24.7474 27.5C24.3585 27.8333 23.8863 28 23.3307 28H8.66406ZM8.66406 26.1667H23.3307V10.0333H8.66406V26.1667ZM8.9974 6C8.70851 6 8.46962 5.90556 8.28073 5.71667C8.09184 5.52778 7.9974 5.28889 7.9974 5C7.9974 4.71111 8.09184 4.47222 8.28073 4.28333C8.46962 4.09444 8.70851 4 8.9974 4H23.0307C23.3196 4 23.5585 4.09444 23.7474 4.28333C23.9363 4.47222 24.0307 4.71111 24.0307 5C24.0307 5.28889 23.9363 5.52778 23.7474 5.71667C23.5585 5.90556 23.3196 6 23.0307 6H8.9974Z" fill="#B4B4B4"/>
</svg>
