<svg width="24" height="24" viewBox="0 0 24 24" fill="none" xmlns="http://www.w3.org/2000/svg">
<path d="M5.95 21.5C5.55 21.5 5.20833 21.3583 4.925 21.075C4.64167 20.7917 4.5 20.45 4.5 20.05V10.05C4.5 9.65 4.64167 9.30833 4.925 9.025C5.20833 8.74167 5.55 8.6 5.95 8.6H7.675V6.325C7.675 5.125 8.09583 4.10417 8.9375 3.2625C9.77917 2.42083 10.8 2 12 2C13.2 2 14.2208 2.42083 15.0625 3.2625C15.9042 4.10417 16.325 5.125 16.325 6.325V8.6H18.05C18.45 8.6 18.7917 8.74167 19.075 9.025C19.3583 9.30833 19.5 9.65 19.5 10.05V20.05C19.5 20.45 19.3583 20.7917 19.075 21.075C18.7917 21.3583 18.45 21.5 18.05 21.5H5.95ZM12 16.75C12.4667 16.75 12.8667 16.5875 13.2 16.2625C13.5333 15.9375 13.7 15.5417 13.7 15.075C13.7 14.6417 13.5333 14.2458 13.2 13.8875C12.8667 13.5292 12.4667 13.35 12 13.35C11.5333 13.35 11.1333 13.5292 10.8 13.8875C10.4667 14.2458 10.3 14.65 10.3 15.1C10.3 15.55 10.4667 15.9375 10.8 16.2625C11.1333 16.5875 11.5333 16.75 12 16.75ZM8.825 8.6H15.175V6.325C15.175 5.44167 14.8667 4.6875 14.25 4.0625C13.6333 3.4375 12.8833 3.125 12 3.125C11.1167 3.125 10.3667 3.4375 9.75 4.0625C9.13333 4.6875 8.825 5.44167 8.825 6.325V8.6Z" fill="black"/>
</svg>
