<svg width="78" height="86" viewBox="0 0 78 86" fill="none" xmlns="http://www.w3.org/2000/svg">
<g clip-path="url(#clip0_369_215)">
<path d="M53.2907 3.88152C54.366 3.88152 55.2377 3.01262 55.2377 1.94076C55.2377 0.868909 54.366 0 53.2907 0C52.2154 0 51.3438 0.868909 51.3438 1.94076C51.3438 3.01262 52.2154 3.88152 53.2907 3.88152Z" fill="#3AADCC"/>
<path d="M48.0251 13.1003C49.1004 13.1003 49.972 12.2314 49.972 11.1595C49.972 10.0877 49.1004 9.21875 48.0251 9.21875C46.9498 9.21875 46.0781 10.0877 46.0781 11.1595C46.0781 12.2314 46.9498 13.1003 48.0251 13.1003Z" fill="white"/>
<path d="M28.9157 5.94354C29.991 5.94354 30.8627 5.07463 30.8627 4.00277C30.8627 2.93092 29.991 2.06201 28.9157 2.06201C27.8404 2.06201 26.9688 2.93092 26.9688 4.00277C26.9688 5.07463 27.8404 5.94354 28.9157 5.94354Z" fill="#3AADCC"/>
<path d="M38.8141 11.6042C39.8894 11.6042 40.7611 10.7353 40.7611 9.66342C40.7611 8.59156 39.8894 7.72266 38.8141 7.72266C37.7389 7.72266 36.8672 8.59156 36.8672 9.66342C36.8672 10.7353 37.7389 11.6042 38.8141 11.6042Z" fill="white"/>
<path d="M30.6188 27.6154C31.6941 27.6154 32.5658 26.7465 32.5658 25.6746C32.5658 24.6028 31.6941 23.7339 30.6188 23.7339C29.5436 23.7339 28.6719 24.6028 28.6719 25.6746C28.6719 26.7465 29.5436 27.6154 30.6188 27.6154Z" fill="#3AADCC"/>
<path d="M24.697 37.3597C25.7722 37.3597 26.6439 36.4908 26.6439 35.4189C26.6439 34.3471 25.7722 33.4781 24.697 33.4781C23.6217 33.4781 22.75 34.3471 22.75 35.4189C22.75 36.4908 23.6217 37.3597 24.697 37.3597Z" fill="white"/>
<path d="M41.6032 30.6882C42.6785 30.6882 43.5502 29.8193 43.5502 28.7474C43.5502 27.6755 42.6785 26.8066 41.6032 26.8066C40.5279 26.8066 39.6562 27.6755 39.6562 28.7474C39.6562 29.8193 40.5279 30.6882 41.6032 30.6882Z" fill="#3AADCC"/>
<path d="M51.5095 36.3488C52.5847 36.3488 53.4564 35.4799 53.4564 34.408C53.4564 33.3362 52.5847 32.4673 51.5095 32.4673C50.4342 32.4673 49.5625 33.3362 49.5625 34.408C49.5625 35.4799 50.4342 36.3488 51.5095 36.3488Z" fill="white"/>
<path d="M6.49617 69.1396L4.95483 68.3714C3.04843 67.4414 1.14204 66.0263 1.14204 62.7917C1.14204 59.3954 3.77854 56.5247 7.38853 56.5247C9.90335 56.5247 12.337 57.7376 13.4728 58.5463L10.9985 62.8726C10.5118 62.4682 8.72706 61.5787 7.59134 61.5787C7.06404 61.5787 6.61786 61.9426 6.61786 62.5491C6.61786 63.1556 7.02347 63.3982 7.87527 63.8025L10.0656 64.8942C12.2154 65.9859 13.5945 67.684 13.5945 70.2717C13.5945 73.9511 10.8768 76.7409 7.22628 76.7409C4.10304 76.7409 1.30429 75.2045 0.046875 74.2745L2.84563 69.6652C3.17012 69.9483 5.56325 71.4847 7.26684 71.4847C7.67246 71.4847 8.1592 71.2017 8.1592 70.6356C8.11864 69.9887 7.46965 69.5844 6.49617 69.1396Z" fill="white"/>
<path d="M22.2279 68.0481C22.2279 69.5845 22.7146 70.5954 23.972 70.5954C25.2294 70.5954 25.7162 69.5845 25.7162 68.0481V56.8079H31.8815V68.3716C31.8815 73.1022 28.7583 76.7411 23.972 76.7411C19.1857 76.7411 16.0625 73.1426 16.0625 68.3716V56.8079H22.2279V68.0481Z" fill="white"/>
<path d="M55.2156 56.8076V76.2152H49.0503V73.6276C49.0503 71.9698 49.0908 70.2312 49.2531 68.5735L49.1314 68.5331C48.6852 69.3417 47.9145 70.5143 47.1439 71.6059L45.3186 74.1532H45.0347L43.2905 71.6868C42.5198 70.5951 41.668 69.3013 41.2219 68.5331L41.1002 68.5735C41.2624 69.8673 41.303 71.8485 41.303 73.385V76.2557H35.2188V56.8481H40.1673L45.1563 63.8024H45.278L50.2671 56.8481H55.2156V56.8076Z" fill="white"/>
<path d="M67.9875 56.5652C73.6255 56.5652 78.0062 61.0532 78.0062 66.6733C78.0062 72.2934 73.6255 76.7815 67.9875 76.7815C62.3494 76.7815 57.9688 72.2934 57.9688 66.6733C57.9688 61.0532 62.3494 56.5652 67.9875 56.5652ZM67.9875 70.5953C70.1372 70.5953 71.8408 68.8971 71.8408 66.6733C71.8408 64.4091 70.1372 62.7514 67.9875 62.7514C65.8377 62.7514 64.1341 64.4495 64.1341 66.6733C64.1341 68.8971 65.7971 70.5953 67.9875 70.5953Z" fill="white"/>
<path d="M1.0546 82.3611V85.9191H0.689548V82.3611H0V82.0376H1.74415V82.3611H1.0546Z" fill="white"/>
<path d="M4.25828 85.9191L4.05547 84.9892H3.08199L2.87918 85.9191H2.55469L3.40648 82.0376H3.77154L4.62333 85.9191H4.25828ZM3.56873 82.6037L3.36592 83.5336L3.12255 84.6657H3.97434L3.73097 83.5336L3.56873 82.6037Z" fill="white"/>
<path d="M5.88281 85.9191V82.0376H6.20731V85.5957H7.42415V85.9191H5.88281Z" fill="white"/>
<path d="M8.71875 85.9191V82.0376H10.3412V82.3611H9.04324V83.7762H10.179V84.0997H9.04324V85.5957H10.3412V85.9191H8.71875Z" fill="white"/>
<path d="M12.0042 82.9674V85.8786H11.6797V81.9971H12.0042C12.0447 82.0375 12.0447 82.1184 12.0853 82.2397C12.1259 82.361 12.1664 82.4418 12.2476 82.6036C12.2881 82.7249 12.3692 82.8462 12.4098 83.0079C12.4504 83.1292 12.5315 83.2909 12.572 83.4122C12.6126 83.5335 12.6937 83.6548 12.7343 83.7761C12.7749 83.8974 12.8154 83.9783 12.856 84.0187L13.2616 84.9891H13.3022V82.0375H13.6266V85.919H13.3022C13.2616 85.8786 13.2616 85.7977 13.221 85.6764C13.1805 85.5551 13.1399 85.4743 13.0588 85.3125C13.0182 85.1912 12.9371 85.0699 12.8965 84.9082C12.856 84.7869 12.7749 84.6252 12.7343 84.5039C12.6937 84.3826 12.6126 84.2613 12.572 84.1804C12.5315 84.0591 12.4909 84.0187 12.4909 83.9378L12.0042 82.9674Z" fill="white"/>
<path d="M15.8984 82.3611V85.9191H15.5333V82.3611H14.8438V82.0376H16.5879V82.3611H15.8984Z" fill="white"/>
<path d="M17.7266 85.9192V85.5149H18.1322V85.9192H17.7266Z" fill="white"/>
<path d="M20.3202 82.3611V85.9191H19.9552V82.3611H19.2656V82.0376H21.0098V82.3611H20.3202Z" fill="white"/>
<path d="M22.3125 85.9191V82.0376H23.935V82.3611H22.637V83.7762H23.7727V84.0997H22.637V85.5957H23.935V85.9191H22.3125Z" fill="white"/>
<path d="M26.0832 81.9973C26.3671 81.9973 26.5699 82.0782 26.7322 82.2399C26.8944 82.4016 26.9755 82.6038 26.9755 82.8868L26.6105 82.9677C26.6105 82.7655 26.5699 82.6038 26.4888 82.5229C26.4077 82.4016 26.286 82.3612 26.1237 82.3612C26.0426 82.3612 25.9615 82.3612 25.8804 82.4016C25.7992 82.4421 25.7587 82.4825 25.7181 82.5634C25.6776 82.6442 25.637 82.6847 25.637 82.7655C25.637 82.8464 25.5964 82.9273 25.5964 83.0081V85.0702C25.5964 85.151 25.5964 85.2319 25.637 85.2723C25.637 85.3532 25.6776 85.3936 25.7181 85.4745C25.7587 85.5149 25.7992 85.5554 25.8804 85.5958C25.9615 85.6362 26.0426 85.6362 26.1237 85.6362C26.286 85.6362 26.4077 85.5958 26.4888 85.4745C26.5699 85.3936 26.6105 85.2319 26.651 85.0298L27.0161 85.1106C27.0161 85.3936 26.935 85.5958 26.7727 85.7575C26.6105 85.9193 26.4077 85.9597 26.1643 85.9597C25.8804 85.9597 25.6776 85.8788 25.5153 85.7171C25.3531 85.5554 25.3125 85.3532 25.3125 85.0702V83.0486C25.3125 82.9273 25.3125 82.7655 25.3531 82.6442C25.3936 82.5229 25.4342 82.4016 25.5153 82.3208C25.5964 82.2399 25.6776 82.159 25.7992 82.1186C25.7992 82.0377 25.9209 81.9973 26.0832 81.9973Z" fill="white"/>
<path d="M29.7697 85.9191V84.0997H28.7151V85.9191H28.3906V82.0376H28.7151V83.7762H29.7697V82.0376H30.0942V85.9191H29.7697Z" fill="white"/>
<path d="M31.9651 82.9674V85.8786H31.6406V81.9971H31.9651C32.0057 82.0375 32.0057 82.1184 32.0462 82.2397C32.0868 82.361 32.1274 82.4418 32.2085 82.6036C32.249 82.7249 32.3302 82.8462 32.3707 83.0079C32.4113 83.1292 32.4924 83.2909 32.533 83.4122C32.5735 83.5335 32.6547 83.6548 32.6952 83.7761C32.7358 83.8974 32.7764 83.9783 32.8169 84.0187L33.2225 84.9891H33.2631V82.0375H33.5876V85.919H33.2631C33.2225 85.8786 33.2225 85.7977 33.182 85.6764C33.1414 85.5551 33.1008 85.4743 33.0197 85.3125C32.9792 85.1912 32.898 85.0699 32.8575 84.9082C32.8169 84.7869 32.7358 84.6252 32.6952 84.5039C32.6547 84.3826 32.5735 84.2613 32.533 84.1804C32.4924 84.0591 32.4519 84.0187 32.4519 83.9378L31.9651 82.9674Z" fill="white"/>
<path d="M35.125 85.9191V82.0376H35.4901V85.9191H35.125Z" fill="white"/>
<path d="M38.7754 84.9488C38.7754 85.1914 38.7348 85.3936 38.6537 85.5149L38.9782 85.7574L38.816 85.9596L38.4915 85.717C38.3698 85.8383 38.167 85.9192 37.883 85.9192C37.5991 85.9192 37.3557 85.8383 37.2341 85.6766C37.0718 85.5148 37.0313 85.3127 37.0313 84.9892V82.9676C37.0313 82.8463 37.0312 82.6846 37.0718 82.5633C37.1124 82.442 37.1529 82.3207 37.2341 82.2398C37.3152 82.1589 37.3963 82.0781 37.518 82.0377C37.6397 81.9972 37.7614 81.9568 37.9236 81.9568C38.0859 81.9568 38.2481 81.9972 38.3292 82.0377C38.4509 82.0781 38.532 82.1589 38.6132 82.2398C38.6943 82.3207 38.7348 82.442 38.7754 82.5633C38.816 82.6846 38.816 82.8059 38.816 82.9676V84.9488H38.7754ZM38.4103 82.9272C38.4103 82.8463 38.4103 82.7654 38.3698 82.6846C38.3698 82.6037 38.3292 82.5633 38.2887 82.4824C38.2481 82.442 38.2075 82.3611 38.1264 82.3611C38.0453 82.3207 37.9642 82.3207 37.883 82.3207C37.7614 82.3207 37.6802 82.3611 37.5991 82.4015C37.518 82.442 37.4774 82.5228 37.4369 82.5633C37.3963 82.6441 37.3557 82.725 37.3557 82.8059C37.3557 82.8867 37.3152 82.9676 37.3152 83.0485V85.0701C37.3152 85.151 37.3152 85.2318 37.3557 85.2723C37.3963 85.3531 37.3963 85.3936 37.4369 85.4744C37.4774 85.5148 37.518 85.5553 37.5991 85.5957C37.6802 85.6361 37.7614 85.6362 37.8425 85.6362C37.9642 85.6362 38.0859 85.5957 38.167 85.5553L37.8019 85.2723L37.9642 85.0701L38.2887 85.3127C38.2887 85.2723 38.3292 85.2318 38.3292 85.151C38.3292 85.1105 38.3292 85.0297 38.3292 84.9892V82.9272H38.4103Z" fill="white"/>
<path d="M41.9848 82.0375V84.9487C41.9848 85.2721 41.9037 85.5147 41.782 85.6765C41.6198 85.8382 41.417 85.9191 41.133 85.9191C40.8491 85.9191 40.6057 85.8382 40.4841 85.6765C40.3624 85.5147 40.2812 85.3126 40.2812 84.9891V81.9971H40.6057V84.9891C40.6057 85.07 40.6057 85.1508 40.6463 85.1913C40.6869 85.2721 40.6869 85.3126 40.7274 85.3934C40.768 85.4339 40.8086 85.4743 40.8897 85.5147C40.9708 85.5552 41.0519 85.5552 41.133 85.5552C41.3359 85.5552 41.4575 85.4743 41.5387 85.353C41.6198 85.2317 41.6603 85.07 41.6603 84.9082V81.9567H41.9848V82.0375Z" fill="white"/>
<path d="M43.4844 85.9191V82.0376H45.1068V82.3611H43.8089V83.7762H44.9446V84.0997H43.8089V85.5957H45.1068V85.9191H43.4844Z" fill="white"/>
<path d="M46.7266 85.9192V85.5149H47.1322V85.9192H46.7266Z" fill="white"/>
<path d="M49.1171 82.3611V85.9191H48.752V82.3611H48.0625V82.0376H49.8067V82.3611H49.1171Z" fill="white"/>
<path d="M51.0625 85.9191V82.0376H52.685V82.3611H51.387V83.7762H52.5227V84.0997H51.387V85.5957H52.685V85.9191H51.0625Z" fill="white"/>
<path d="M54.88 81.9973C55.164 81.9973 55.3668 82.0782 55.529 82.2399C55.6913 82.4016 55.7724 82.6038 55.7724 82.8868L55.4074 82.9677C55.4074 82.7655 55.3668 82.6038 55.2857 82.5229C55.2045 82.4016 55.0829 82.3612 54.9206 82.3612C54.8395 82.3612 54.7584 82.3612 54.6772 82.4016C54.5961 82.4421 54.5556 82.4825 54.515 82.5634C54.4744 82.6442 54.4339 82.6847 54.4339 82.7655C54.4339 82.8464 54.3933 82.9273 54.3933 83.0081V85.0702C54.3933 85.151 54.3933 85.2319 54.4339 85.2723C54.4339 85.3532 54.4744 85.3936 54.515 85.4745C54.5556 85.5149 54.5961 85.5554 54.6772 85.5958C54.7584 85.6362 54.8395 85.6362 54.9206 85.6362C55.0829 85.6362 55.2045 85.5958 55.2857 85.4745C55.3668 85.3936 55.4073 85.2319 55.4479 85.0298L55.813 85.1106C55.813 85.3936 55.7318 85.5958 55.5696 85.7575C55.4073 85.9193 55.2045 85.9597 54.9612 85.9597C54.6772 85.9597 54.4744 85.8788 54.3122 85.7171C54.1499 85.5554 54.1094 85.3532 54.1094 85.0702V83.0486C54.1094 82.9273 54.1094 82.7655 54.1499 82.6442C54.1905 82.5229 54.2311 82.4016 54.3122 82.3208C54.3933 82.2399 54.4744 82.159 54.5961 82.1186C54.5556 82.0377 54.7178 81.9973 54.88 81.9973Z" fill="white"/>
<path d="M58.5353 85.9191V84.0997H57.4807V85.9191H57.1562V82.0376H57.4807V83.7762H58.5353V82.0376H58.8598V85.9191H58.5353Z" fill="white"/>
<path d="M60.762 82.9677V85.8788H60.4375V81.9973H60.762C60.8026 82.0377 60.8026 82.1186 60.8431 82.2399C60.8837 82.3612 60.9242 82.4421 61.0054 82.6038C61.0459 82.7251 61.127 82.8464 61.1676 83.0081C61.2082 83.1294 61.2893 83.2912 61.3299 83.4125C61.3704 83.5338 61.4515 83.655 61.4921 83.7763C61.5327 83.8976 61.5732 83.9785 61.6138 84.0189L62.0194 84.9893H62.06V82.0377H62.3845V85.9193H62.06C62.0194 85.8788 62.0194 85.798 61.9788 85.6767C61.9383 85.5554 61.8977 85.4745 61.8166 85.3128C61.776 85.1915 61.6949 85.0702 61.6543 84.9085C61.6138 84.7872 61.5327 84.6254 61.4921 84.5041C61.4515 84.3828 61.3704 84.2615 61.3299 84.1807C61.2893 84.0594 61.2487 84.0189 61.2487 83.9381L60.762 82.9677Z" fill="white"/>
<path d="M65.5864 84.9488C65.5864 85.2723 65.5053 85.5148 65.3836 85.6766C65.2213 85.8383 65.0185 85.9192 64.7346 85.9192C64.4507 85.9192 64.2073 85.8383 64.0856 85.6766C63.9234 85.5148 63.8828 85.3127 63.8828 84.9892V82.9676C63.8828 82.8463 63.8828 82.6846 63.9234 82.5633C63.9639 82.442 64.0045 82.3207 64.0856 82.2398C64.1667 82.1589 64.2479 82.0781 64.3696 82.0377C64.4912 81.9972 64.6129 81.9568 64.7752 81.9568C64.9374 81.9568 65.0997 81.9972 65.1808 82.0377C65.3025 82.0781 65.3836 82.1589 65.4647 82.2398C65.5458 82.3207 65.5864 82.442 65.627 82.5633C65.6675 82.6846 65.6675 82.8059 65.6675 82.9676V84.9488H65.5864ZM65.2213 82.9272C65.2213 82.8463 65.2213 82.7654 65.1808 82.6846C65.1808 82.6037 65.1402 82.5633 65.0997 82.4824C65.0591 82.442 65.0185 82.3611 64.9374 82.3611C64.8563 82.3207 64.7752 82.3207 64.694 82.3207C64.5724 82.3207 64.4912 82.3611 64.4101 82.4015C64.329 82.442 64.2884 82.5228 64.2479 82.5633C64.2073 82.6441 64.1667 82.725 64.1667 82.8059C64.1667 82.8867 64.1262 82.9676 64.1262 83.0485V85.0701C64.1262 85.151 64.1262 85.2318 64.1667 85.2723C64.2073 85.3531 64.2073 85.3936 64.2479 85.4744C64.2884 85.5148 64.329 85.5553 64.4101 85.5957C64.4912 85.6361 64.5724 85.6361 64.6535 85.6361C64.8563 85.6361 64.978 85.5553 65.0591 85.434C65.1402 85.3127 65.1808 85.151 65.1808 84.9892V82.9272H65.2213Z" fill="white"/>
<path d="M67.0938 85.9192V82.0377H67.4182V85.5958H68.6351V85.9192H67.0938Z" fill="white"/>
<path d="M71.6255 84.9488C71.6255 85.2723 71.5443 85.5148 71.4227 85.6766C71.2604 85.8383 71.0576 85.9192 70.7737 85.9192C70.4897 85.9192 70.2464 85.8383 70.1247 85.6766C70.003 85.5148 69.9219 85.3127 69.9219 84.9892V82.9676C69.9219 82.8463 69.9219 82.6846 69.9624 82.5633C70.003 82.442 70.0436 82.3207 70.1247 82.2398C70.2058 82.1589 70.2869 82.0781 70.4086 82.0377C70.5303 81.9972 70.652 81.9568 70.8142 81.9568C70.9765 81.9568 71.1387 81.9972 71.2199 82.0377C71.3415 82.0781 71.4227 82.1589 71.5038 82.2398C71.5849 82.3207 71.6255 82.442 71.666 82.5633C71.7066 82.6846 71.7066 82.8059 71.7066 82.9676V84.9488H71.6255ZM71.301 82.9272C71.301 82.8463 71.301 82.7654 71.2604 82.6846C71.2604 82.6037 71.2198 82.5633 71.1793 82.4824C71.1387 82.442 71.0982 82.3611 71.017 82.3611C70.9359 82.3207 70.8548 82.3207 70.7737 82.3207C70.652 82.3207 70.5709 82.3611 70.4897 82.4015C70.4086 82.442 70.3681 82.5228 70.3275 82.5633C70.2869 82.6441 70.2464 82.725 70.2464 82.8059C70.2464 82.8867 70.2058 82.9676 70.2058 83.0485V85.0701C70.2058 85.151 70.2058 85.2318 70.2464 85.2723C70.2869 85.3531 70.2869 85.3936 70.3275 85.4744C70.3681 85.5148 70.4086 85.5553 70.4897 85.5957C70.5709 85.6361 70.652 85.6361 70.7331 85.6361C70.9359 85.6361 71.0576 85.5553 71.1387 85.434C71.2198 85.3127 71.2604 85.151 71.2604 84.9892V82.9272H71.301Z" fill="white"/>
<path d="M73.9861 85.9596C73.7022 85.9596 73.4994 85.8787 73.3371 85.717C73.1749 85.5552 73.0938 85.3531 73.0938 85.07V83.0484C73.0938 82.8867 73.0938 82.7654 73.1343 82.6441C73.1749 82.5228 73.2154 82.4015 73.2966 82.3206C73.3777 82.2398 73.4588 82.1589 73.5805 82.1185C73.7022 82.078 73.8239 82.0376 73.9861 82.0376C74.27 82.0376 74.4728 82.1185 74.5945 82.2398C74.7568 82.3611 74.7973 82.6037 74.8379 82.8462L74.5134 82.9271C74.5134 82.725 74.4728 82.5632 74.3917 82.4824C74.3106 82.4015 74.1889 82.3206 74.0267 82.3206C73.9455 82.3206 73.8644 82.3206 73.7833 82.3611C73.7022 82.4015 73.6616 82.4419 73.6211 82.5228C73.5805 82.6037 73.5399 82.6441 73.5399 82.725C73.5399 82.8058 73.4994 82.8867 73.4994 82.9675V85.0296C73.4994 85.1105 73.4994 85.1913 73.5399 85.2318C73.5399 85.3126 73.5805 85.3531 73.6211 85.4339C73.6616 85.4744 73.7022 85.5148 73.7833 85.5552C73.8644 85.5957 73.9455 85.5957 74.0267 85.5957C74.1889 85.5957 74.3106 85.5552 74.4323 85.4744C74.554 85.3935 74.5945 85.2722 74.5945 85.1105V84.1401H74.1078V83.8571H74.919V85.07C74.919 85.1913 74.8785 85.3531 74.8379 85.4339C74.7973 85.5552 74.7162 85.6361 74.6351 85.717C74.554 85.7978 74.4728 85.8383 74.3512 85.8787C74.2295 85.9191 74.1078 85.9596 73.9861 85.9596Z" fill="white"/>
<path d="M77.0705 83.8166L77.3139 83.0484L77.6384 82.0376H78.0035C77.9629 82.1185 77.9629 82.1993 77.9223 82.3206C77.8818 82.4419 77.8412 82.5632 77.8007 82.725C77.7601 82.8867 77.679 83.008 77.6384 83.1697C77.5978 83.3314 77.5167 83.4932 77.4762 83.6145C77.4356 83.7762 77.395 83.8975 77.3545 84.0188C77.3139 84.1401 77.2734 84.221 77.2734 84.3018V85.9596H76.9489V84.3018C76.9083 84.2614 76.9083 84.1401 76.8677 84.0188C76.8272 83.8975 76.7866 83.7762 76.7461 83.6145C76.7055 83.4527 76.6244 83.3314 76.5838 83.1697C76.5432 83.008 76.4621 82.8463 76.4216 82.725C76.381 82.5632 76.3404 82.4419 76.2999 82.3206C76.2593 82.1993 76.2188 82.1185 76.2188 82.0376H76.5838L76.9083 83.0484C76.9083 83.0888 76.9489 83.1293 76.9489 83.2101C76.9894 83.291 76.9894 83.3719 77.03 83.4527C77.0705 83.5336 77.0705 83.6145 77.1111 83.6953C77.03 83.7358 77.0705 83.7762 77.0705 83.8166Z" fill="white"/>
</g>
<defs>
<clipPath id="clip0_369_215">
<rect width="78" height="86" fill="white"/>
</clipPath>
</defs>
</svg>
