<svg width="32" height="32" viewBox="0 0 32 32" fill="none" xmlns="http://www.w3.org/2000/svg">
<path d="M12.5359 27.3338C12.2693 27.3338 12.0415 27.2393 11.8526 27.0504C11.6637 26.8616 11.5693 26.6338 11.5693 26.3671V24.6671H5.26927C4.73594 24.6671 4.28038 24.4782 3.9026 24.1005C3.52483 23.7227 3.33594 23.2671 3.33594 22.7338V6.60045C3.33594 6.06711 3.52483 5.61156 3.9026 5.23378C4.28038 4.856 4.73594 4.66711 5.26927 4.66711H26.7359C27.2693 4.66711 27.7248 4.856 28.1026 5.23378C28.4804 5.61156 28.6693 6.06711 28.6693 6.60045V22.7338C28.6693 23.2671 28.4804 23.7227 28.1026 24.1005C27.7248 24.4782 27.2693 24.6671 26.7359 24.6671H20.4359V26.3671C20.4359 26.6338 20.3415 26.8616 20.1526 27.0504C19.9637 27.2393 19.7359 27.3338 19.4693 27.3338H12.5359ZM5.26927 23.1671H26.7359C26.8693 23.1671 26.9748 23.1282 27.0526 23.0504C27.1304 22.9727 27.1693 22.8671 27.1693 22.7338V6.60045C27.1693 6.46711 27.1304 6.36156 27.0526 6.28378C26.9748 6.206 26.8693 6.16711 26.7359 6.16711H5.26927C5.13594 6.16711 5.03038 6.206 4.9526 6.28378C4.87483 6.36156 4.83594 6.46711 4.83594 6.60045V22.7338C4.83594 22.8671 4.87483 22.9727 4.9526 23.0504C5.03038 23.1282 5.13594 23.1671 5.26927 23.1671Z" fill="white"/>
<path d="M20.5693 14.3007H21.6693V12.7674H23.6693V11.6674H21.6693V10.1007H20.5693V14.3007ZM8.33594 12.7674H18.7359V11.6674H8.33594V12.7674ZM10.3359 19.234H11.4359V15.034H10.3359V16.5674H8.33594V17.6674H10.3359V19.234ZM13.2693 17.6674H23.6693V16.5674H13.2693V17.6674Z" fill="white"/>
</svg>
