<svg width="64" height="64" viewBox="0 0 64 64" fill="none" xmlns="http://www.w3.org/2000/svg">
<circle cx="32" cy="32" r="32" fill="#5D009F"/>
<path d="M25.6641 24.8329C25.2863 24.8329 24.9585 24.9663 24.6807 25.2329C24.403 25.4996 24.2641 25.8329 24.2641 26.2329C24.2641 26.6329 24.403 26.9718 24.6807 27.2496C24.9585 27.5274 25.2974 27.6663 25.6974 27.6663C26.0752 27.6663 26.403 27.5274 26.6807 27.2496C26.9585 26.9718 27.0974 26.6329 27.0974 26.2329C27.0974 25.8329 26.9585 25.4996 26.6807 25.2329C26.403 24.9663 26.0641 24.8329 25.6641 24.8329ZM25.6641 37.6663C25.2863 37.6663 24.9585 37.8052 24.6807 38.0829C24.403 38.3607 24.2641 38.6996 24.2641 39.0996C24.2641 39.4996 24.403 39.8329 24.6807 40.0996C24.9585 40.3663 25.2974 40.4996 25.6974 40.4996C26.0752 40.4996 26.403 40.3663 26.6807 40.0996C26.9585 39.8329 27.0974 39.4996 27.0974 39.0996C27.0974 38.6996 26.9585 38.3607 26.6807 38.0829C26.403 37.8052 26.0641 37.6663 25.6641 37.6663ZM21.6974 21.0996H42.2974C42.5863 21.0996 42.8307 21.1941 43.0307 21.3829C43.2307 21.5718 43.3307 21.8329 43.3307 22.1663V30.0996C43.3307 30.4996 43.2307 30.8163 43.0307 31.0496C42.8307 31.2829 42.5863 31.3996 42.2974 31.3996H21.6974C21.4085 31.3996 21.1641 31.2829 20.9641 31.0496C20.7641 30.8163 20.6641 30.4996 20.6641 30.0996V22.1663C20.6641 21.8329 20.7641 21.5718 20.9641 21.3829C21.1641 21.1941 21.4085 21.0996 21.6974 21.0996ZM22.1641 22.5996V29.8996H41.8307V22.5996H22.1641ZM21.6974 33.9329H42.1307C42.4641 33.9329 42.7474 34.0607 42.9807 34.3163C43.2141 34.5718 43.3307 34.8552 43.3307 35.1663V42.9663C43.3307 43.3663 43.2141 43.6829 42.9807 43.9163C42.7474 44.1496 42.4641 44.2663 42.1307 44.2663H21.8641C21.5085 44.2663 21.2196 44.1496 20.9974 43.9163C20.7752 43.6829 20.6641 43.3663 20.6641 42.9663V35.1663C20.6641 34.8552 20.7585 34.5718 20.9474 34.3163C21.1363 34.0607 21.3863 33.9329 21.6974 33.9329ZM22.1641 35.4329V42.7329H41.8307V35.4329H22.1641ZM22.1641 22.5996V29.8996V22.5996ZM22.1641 35.4329V42.7329V35.4329Z" fill="white"/>
</svg>
