<svg width="64" height="64" viewBox="0 0 64 64" fill="none" xmlns="http://www.w3.org/2000/svg">
<circle cx="32" cy="32" r="32" fill="#5D009F"/>
<path d="M32.0026 30.5987C30.9804 30.5987 30.1137 30.2376 29.4026 29.5154C28.6915 28.7931 28.3359 27.932 28.3359 26.932C28.3359 25.9098 28.6915 25.0431 29.4026 24.332C30.1137 23.6209 30.9804 23.2654 32.0026 23.2654C33.0248 23.2654 33.8915 23.6209 34.6026 24.332C35.3137 25.0431 35.6693 25.9098 35.6693 26.932C35.6693 27.932 35.3137 28.7931 34.6026 29.5154C33.8915 30.2376 33.0248 30.5987 32.0026 30.5987ZM32.0026 29.0654C32.6026 29.0654 33.1137 28.8598 33.5359 28.4487C33.9582 28.0376 34.1693 27.532 34.1693 26.932C34.1693 26.332 33.9582 25.8209 33.5359 25.3987C33.1137 24.9765 32.6026 24.7654 32.0026 24.7654C31.4026 24.7654 30.8915 24.9765 30.4693 25.3987C30.047 25.8209 29.8359 26.332 29.8359 26.932C29.8359 27.532 30.047 28.0376 30.4693 28.4487C30.8915 28.8598 31.4026 29.0654 32.0026 29.0654ZM24.3359 38.0654V35.8654C24.3359 35.3765 24.4637 34.9487 24.7193 34.582C24.9748 34.2154 25.4026 33.8654 26.0026 33.532C26.9359 33.0431 27.9026 32.6765 28.9026 32.432C29.9026 32.1876 30.9359 32.0654 32.0026 32.0654C33.0693 32.0654 34.1026 32.1876 35.1026 32.432C36.1026 32.6765 37.0693 33.0431 38.0026 33.532C38.5804 33.8654 39.0026 34.2154 39.2693 34.582C39.5359 34.9487 39.6693 35.3765 39.6693 35.8654V38.0654H24.3359ZM32.0026 33.5987C30.9359 33.5987 29.8859 33.7487 28.8526 34.0487C27.8193 34.3487 26.8137 34.7987 25.8359 35.3987V36.5654H38.1693V35.3987C37.1915 34.7765 36.1859 34.3209 35.1526 34.032C34.1193 33.7431 33.0693 33.5987 32.0026 33.5987ZM44.7359 26.6654C44.0248 24.9987 43.0248 23.5209 41.7359 22.232C40.447 20.9431 38.9804 19.9431 37.3359 19.232L37.9026 17.832C39.7915 18.6543 41.4304 19.7543 42.8193 21.132C44.2082 22.5098 45.3248 24.1654 46.1693 26.0987L44.7359 26.6654ZM19.2693 26.6654L17.8359 26.0987C18.6582 24.1654 19.7637 22.5098 21.1526 21.132C22.5415 19.7543 24.1915 18.6543 26.1026 17.832L26.6693 19.2654C24.9582 19.9765 23.4748 20.9598 22.2193 22.2154C20.9637 23.4709 19.9804 24.9543 19.2693 26.6654ZM26.0693 46.1654C24.2026 45.3654 22.5637 44.2598 21.1526 42.8487C19.7415 41.4376 18.6359 39.7876 17.8359 37.8987L19.2693 37.2987C19.9804 39.0098 20.9637 40.4987 22.2193 41.7654C23.4748 43.032 24.9693 44.0209 26.7026 44.732L26.0693 46.1654ZM37.9026 46.1654L37.3359 44.732C39.0026 44.0209 40.4748 43.0265 41.7526 41.7487C43.0304 40.4709 44.0248 38.9987 44.7359 37.332L46.1693 37.8987C45.347 39.7876 44.2359 41.432 42.8359 42.832C41.4359 44.232 39.7915 45.3431 37.9026 46.1654ZM32.0026 36.5654H38.1693H25.8359H32.0026Z" fill="white"/>
</svg>
