<svg width="24" height="24" viewBox="0 0 24 24" fill="none" xmlns="http://www.w3.org/2000/svg">
<path d="M12.0508 19.5C9.96745 19.5 8.19661 18.7708 6.73828 17.3125C5.27995 15.8542 4.55078 14.0833 4.55078 12C4.55078 9.91667 5.27995 8.14583 6.73828 6.6875C8.19661 5.22917 9.96745 4.5 12.0508 4.5C13.4008 4.5 14.6049 4.79583 15.6633 5.3875C16.7216 5.97917 17.6091 6.79167 18.3258 7.825V4.5H19.4508V10.15H13.8258V9H17.7758C17.1758 7.98333 16.3883 7.16667 15.4133 6.55C14.4383 5.93333 13.3174 5.625 12.0508 5.625C10.2674 5.625 8.75911 6.24167 7.52578 7.475C6.29245 8.70833 5.67578 10.2167 5.67578 12C5.67578 13.7833 6.29245 15.2917 7.52578 16.525C8.75911 17.7583 10.2674 18.375 12.0508 18.375C13.4008 18.375 14.6341 17.9875 15.7508 17.2125C16.8674 16.4375 17.6508 15.4083 18.1008 14.125H19.2758C18.8091 15.7417 17.9091 17.0417 16.5758 18.025C15.2424 19.0083 13.7341 19.5 12.0508 19.5Z" fill="white"/>
</svg>
